<?xml version="1.0" encoding="utf-8"?>
<!-- Generator: Adobe Illustrator 15.0.2, SVG Export Plug-In . SVG Version: 6.00 Build 0)  -->
<!DOCTYPE svg PUBLIC "-//W3C//DTD SVG 1.1//EN" "http://www.w3.org/Graphics/SVG/1.1/DTD/svg11.dtd">
<svg version="1.1" id="Layer_1" xmlns="http://www.w3.org/2000/svg" xmlns:xlink="http://www.w3.org/1999/xlink" x="0px" y="0px"
	 width="165px" height="34.111px" viewBox="0 0 165 34.111" enable-background="new 0 0 165 34.111" xml:space="preserve">
<g>
	<rect x="83" y="0.111" width="1" height="34"/>
	<path fill="#F8B322" d="M118.924,11.314c-0.139-0.039-0.275-0.086-0.422-0.119c-0.639-0.168-1.297-0.289-1.969-0.346
		c-0.146-0.012-0.289-0.021-0.43-0.029c-0.189-0.008-0.387-0.016-0.584-0.016s-0.395,0.008-0.59,0.016
		c0.045,0.387,0.057,0.771,0.057,1.168c0,0.281-0.008,0.553-0.027,0.828c0.188-0.012,0.373-0.02,0.561-0.02s0.373,0.008,0.562,0.02
		c0.145,0.01,0.281,0.023,0.426,0.031c0.715,0.074,1.396,0.229,2.049,0.443c0.156,0.049,0.303,0.109,0.457,0.166
		c3.07,1.199,5.377,3.912,5.994,7.221c0.672,0.24,1.363,0.406,2.09,0.486C126.577,16.494,123.297,12.654,118.924,11.314"/>
	<path fill="#1E1C20" d="M128.661,22.463c0-0.283,0.012-0.555,0.027-0.832c-0.188,0.014-0.373,0.02-0.562,0.02
		c-0.188,0-0.375-0.006-0.561-0.02c-0.139-0.01-0.283-0.021-0.43-0.035c-0.703-0.066-1.395-0.221-2.043-0.436
		c-0.156-0.059-0.309-0.111-0.461-0.17c-3.068-1.199-5.377-3.91-5.996-7.219c-0.66-0.24-1.361-0.406-2.088-0.49
		c0.52,4.672,3.809,8.512,8.182,9.854c0.137,0.041,0.271,0.086,0.412,0.119c0.641,0.168,1.297,0.287,1.977,0.342
		c0.137,0.01,0.283,0.023,0.426,0.031c0.193,0.012,0.391,0.018,0.582,0.018c0.195,0,0.396-0.006,0.59-0.018
		C128.682,23.24,128.661,22.852,128.661,22.463"/>
	<path fill="#007BC0" d="M114.506,10.85c-0.016-0.141-0.031-0.279-0.051-0.422c-0.768-5.691-5.65-10.096-11.545-10.096
		c-6.428,0-11.652,5.232-11.652,11.656s5.225,11.656,11.652,11.656c0.193,0,0.389-0.008,0.584-0.018
		c-0.033-0.387-0.057-0.777-0.057-1.164c0-0.283,0.016-0.555,0.029-0.832c-0.182,0.014-0.373,0.02-0.557,0.02
		c-5.326,0-9.66-4.334-9.66-9.662c0-5.326,4.334-9.662,9.66-9.662c4.912,0,8.973,3.691,9.574,8.439
		c0.023,0.137,0.037,0.281,0.053,0.43c0.016,0.264,0.031,0.521,0.031,0.793c0,0.441-0.029,0.875-0.09,1.303
		c-0.021,0.164-0.049,0.316-0.074,0.48c-0.619,3.309-2.93,6.02-5.996,7.219c-0.078,0.482-0.121,0.969-0.121,1.473
		c0,0.223,0.008,0.451,0.027,0.672c4.369-1.342,7.66-5.182,8.172-9.854c0.018-0.139,0.031-0.285,0.043-0.434
		c0.018-0.283,0.033-0.566,0.033-0.859C114.563,11.602,114.543,11.225,114.506,10.85"/>
	<path fill="#F8B322" d="M125.098,23.686c-0.609,4.746-4.668,8.43-9.578,8.43c-4.914,0-8.977-3.684-9.58-8.43
		c-0.021-0.143-0.029-0.285-0.043-0.432c-0.021-0.264-0.039-0.531-0.039-0.791c0-0.445,0.037-0.879,0.092-1.303
		c0.021-0.164,0.051-0.32,0.084-0.482c0.615-3.307,2.924-6.021,5.992-7.221c0.076-0.482,0.117-0.971,0.117-1.469
		c0-0.223-0.014-0.453-0.031-0.674c-4.371,1.342-7.65,5.18-8.172,9.85c-0.018,0.141-0.027,0.291-0.037,0.432
		c-0.021,0.291-0.039,0.568-0.039,0.867c0,0.381,0.023,0.76,0.055,1.133c0.018,0.141,0.039,0.283,0.053,0.43
		c0.766,5.686,5.65,10.086,11.549,10.086c5.896,0,10.783-4.4,11.545-10.086C126.389,23.965,125.739,23.85,125.098,23.686"/>
	<path fill="#009534" d="M150.319,23.686c-0.607,4.746-4.672,8.43-9.578,8.43c-4.914,0-8.979-3.684-9.58-8.43
		c-0.02-0.143-0.037-0.285-0.045-0.432c-0.021-0.266-0.037-0.531-0.037-0.791c0-0.445,0.037-0.879,0.092-1.303
		c0.02-0.164,0.047-0.32,0.078-0.482c0.621-3.307,2.93-6.021,5.996-7.221c0.078-0.482,0.117-0.969,0.117-1.469
		c0-0.223-0.01-0.453-0.031-0.674c-4.369,1.342-7.646,5.18-8.17,9.85c-0.018,0.141-0.033,0.291-0.039,0.432
		c-0.021,0.291-0.039,0.568-0.039,0.867c0,0.381,0.025,0.76,0.057,1.133c0.018,0.141,0.039,0.283,0.053,0.43
		c0.768,5.686,5.65,10.086,11.549,10.086c5.895,0,10.777-4.4,11.539-10.086C151.612,23.965,150.958,23.85,150.319,23.686"/>
	<path fill="#1E1C20" d="M139.727,10.85c-0.016-0.141-0.031-0.279-0.051-0.422c-0.77-5.691-5.654-10.096-11.551-10.096
		c-5.891,0-10.771,4.404-11.541,10.096c0.668,0.057,1.332,0.166,1.967,0.338c0.605-4.748,4.67-8.439,9.574-8.439
		c4.914,0,8.979,3.691,9.578,8.439c0.021,0.137,0.039,0.281,0.051,0.43c0.018,0.264,0.033,0.521,0.033,0.793
		c0,0.441-0.031,0.875-0.09,1.303c-0.02,0.164-0.051,0.316-0.074,0.482c-0.623,3.307-2.93,6.018-6,7.217
		c-0.074,0.482-0.121,0.969-0.121,1.473c0,0.223,0.014,0.451,0.033,0.672c4.367-1.342,7.658-5.182,8.172-9.854
		c0.016-0.139,0.027-0.285,0.043-0.434c0.016-0.283,0.031-0.566,0.031-0.859C139.782,11.602,139.758,11.225,139.727,10.85"/>
	<path fill="#009534" d="M144.139,11.314c-0.135-0.039-0.273-0.086-0.416-0.119c-0.639-0.168-1.297-0.289-1.969-0.346
		c-0.145-0.012-0.287-0.021-0.428-0.029c-0.195-0.008-0.391-0.016-0.586-0.016c-0.197,0-0.396,0.008-0.59,0.016
		c0.043,0.387,0.059,0.771,0.059,1.168c0,0.281-0.014,0.553-0.029,0.828c0.186-0.012,0.373-0.02,0.561-0.02s0.373,0.008,0.559,0.02
		c0.146,0.01,0.285,0.023,0.432,0.031c0.711,0.074,1.393,0.229,2.045,0.443c0.16,0.049,0.305,0.109,0.459,0.166
		c3.066,1.199,5.377,3.912,5.994,7.221c0.664,0.24,1.363,0.406,2.092,0.486C151.797,16.494,148.514,12.654,144.139,11.314"/>
	<path fill="#E2003D" d="M153.344,0.332c-5.891,0-10.771,4.404-11.539,10.096c0.666,0.057,1.328,0.166,1.963,0.338
		c0.609-4.748,4.668-8.439,9.576-8.439c5.33,0,9.662,4.336,9.662,9.662c0,5.328-4.332,9.662-9.662,9.662
		c-0.188,0-0.373-0.006-0.557-0.018c-0.146-0.012-0.287-0.023-0.432-0.037c-0.711-0.066-1.395-0.221-2.047-0.436
		c-0.156-0.059-0.307-0.111-0.459-0.168c-3.064-1.199-5.375-3.912-5.996-7.219c-0.66-0.242-1.361-0.408-2.088-0.492
		c0.52,4.674,3.811,8.512,8.178,9.854c0.137,0.039,0.273,0.086,0.42,0.119c0.637,0.166,1.295,0.287,1.971,0.342
		c0.143,0.01,0.285,0.023,0.432,0.031c0.193,0.012,0.381,0.018,0.578,0.018c6.432,0,11.656-5.232,11.656-11.656
		S159.776,0.332,153.344,0.332"/>
	<path fill="#0066A1" d="M67.296,10.031c-3.932-1.262-5.045-2.355-5.045-3.518c0-1.639,1.938-2.605,4.76-2.605
		c1.09,0,1.875,0.094,2.423,0.215l-0.019,3.238L73.12,7.43l0.262-6.506C71.635,0.504,68.938,0,66.689,0
		c-5.209,0-9.326,2.469-9.326,6.939c0,4.248,2.856,5.818,7.913,7.398c3.91,1.219,4.321,2.148,4.321,3.344
		c0,1.377-1.917,2.4-4.375,2.4c-2.517,0-5.306-0.852-7.019-1.562c-0.459,0.99-1.459,2.672-2.118,3.627
		c2.535,1.395,5.565,2.158,8.961,2.158c5.189,0,9.586-2.461,9.586-7.33C74.633,13.189,72.363,11.662,67.296,10.031"/>
	<path fill="#0066A1" d="M16.045,0.154H5.971v2.953h2.524L2.197,20.914H0.183v2.961h8.453v-2.961h-1.99L7.8,17.672h9.16l1.153,3.242
		h-1.856v2.961h9.044v-2.961h-1.887L16.045,0.154z M9.09,14.002l3.279-9.266l3.288,9.266H9.09z"/>
	<path fill="#0066A1" d="M50.477,4.23V4.227c-1.245-0.535-2.622-0.824-4.065-0.824c-0.371,0-0.738,0.021-1.097,0.057
		c-1.261,1.73-2.014,3.861-2.014,6.166c0,4.334,2.639,8.049,6.389,9.639c-0.939,0.648-2.067,1.039-3.278,1.039
		c-3.33,0-6.034-2.887-6.034-6.447c0-1.531,0.505-2.932,1.341-4.039c0.003-1.633,0.587-4.6,1.453-5.895
		c-4.207,1.352-7.215,5.355-7.215,9.934c0,1.826,0.466,3.533,1.288,5.031c-0.993,1.047-2.33,1.639-3.605,1.639
		c-1.727,0-2.967-1.357-2.967-3.387V7.844h5.387V4.143h-5.387V0.146h-4.842v3.996h-3.548v3.701h3.548v9.779
		c0,5.018,3.501,6.668,6.897,6.668c2.842,0,5.162-1.34,6.446-2.891c1.877,1.803,4.426,2.918,7.239,2.918
		c5.7,0,10.456-4.654,10.456-10.463C56.868,9.525,54.236,5.816,50.477,4.23 M52.161,15.824c-2.552-0.752-4.43-3.24-4.43-6.199
		c0-0.689,0.102-1.35,0.289-1.971c2.553,0.754,4.43,3.242,4.43,6.201C52.449,14.545,52.353,15.203,52.161,15.824"/>
	<path d="M0.546,29.068c-0.048-0.17-0.224-0.33-0.386-0.33H0v-0.297h1.746v0.297H0.957l1.198,4.594h0.024l1.401-4.891h0.369
		l1.4,4.891h0.015l1.078-4.088c0.089-0.346,0-0.506-0.297-0.506H5.783v-0.297h1.672v0.297h-0.16c-0.177,0-0.338,0.137-0.394,0.338
		l-1.335,4.996h-0.49L3.723,29.35H3.716l-1.352,4.723H1.866L0.546,29.068z"/>
	<path d="M7.197,31.971c0-1.324,0.875-2.139,2.05-2.139c1.183,0,2.05,0.814,2.05,2.139c0,1.33-0.867,2.133-2.05,2.133
		C8.072,34.104,7.197,33.301,7.197,31.971 M10.824,31.98c0-1.158-0.644-1.826-1.577-1.826s-1.578,0.668-1.578,1.826
		c0,1.15,0.644,1.818,1.578,1.818S10.824,33.131,10.824,31.98"/>
	<path d="M11.644,33.781h0.354c0.122,0,0.234-0.111,0.234-0.232V30.42c0-0.111-0.112-0.242-0.234-0.242h-0.394v-0.305h0.95
		c0.095,0,0.144,0.057,0.144,0.289v0.531c0.322-0.418,0.755-0.844,1.392-0.844c0.104,0,0.176,0.016,0.2,0.023v0.387
		c0,0-0.113-0.008-0.185-0.008c-0.62,0-0.989,0.281-1.407,0.748v2.781h0.773v0.291h-1.827V33.781z"/>
	<path d="M14.347,33.781h0.393c0.121,0,0.241-0.111,0.241-0.232V28.98c0-0.113-0.12-0.242-0.241-0.242h-0.426v-0.297h1.021
		c0.079,0,0.105,0.047,0.105,0.145v4.963c0,0.121,0.12,0.232,0.242,0.232h0.401v0.291h-1.736V33.781z"/>
	<path d="M16.404,32.02c0-1.641,0.998-2.188,1.89-2.188c0.684,0,1.143,0.283,1.416,0.604v-1.697h-0.708v-0.297h1.061
		c0.082,0,0.112,0.057,0.112,0.145v4.955c0,0.119,0.122,0.24,0.233,0.24h0.363v0.289h-0.941c-0.082,0-0.112-0.086-0.121-0.264
		v-0.514c-0.314,0.434-0.828,0.811-1.544,0.811C17.296,34.104,16.404,33.637,16.404,32.02 M19.71,32.963v-2.205
		c-0.345-0.363-0.693-0.572-1.344-0.572c-0.692,0-1.489,0.371-1.489,1.818s0.724,1.785,1.344,1.785
		C18.905,33.789,19.365,33.412,19.71,32.963"/>
	<path d="M21.317,30.477c-0.057-0.186-0.186-0.299-0.338-0.299h-0.193v-0.305h1.553v0.305h-0.645l0.967,3.281h0.015l1.095-3.586
		h0.403l1.094,3.586h0.016l0.845-2.9c0.063-0.227-0.026-0.381-0.242-0.381h-0.323v-0.305h1.48v0.305h-0.17
		c-0.151,0-0.296,0.09-0.354,0.283l-1.069,3.611h-0.443l-1.076-3.531h-0.01l-1.093,3.531h-0.442L21.317,30.477z"/>
	<path d="M27.381,33.781h0.394c0.121,0,0.233-0.111,0.233-0.232V30.42c0-0.111-0.113-0.242-0.233-0.242H27.34v-0.305h1.011
		c0.09,0,0.122,0.057,0.122,0.25v3.426c0,0.121,0.122,0.232,0.234,0.232h0.402v0.291h-1.729V33.781z M27.87,28.963
		c0-0.176,0.138-0.312,0.315-0.312c0.177,0,0.313,0.137,0.313,0.312c0,0.178-0.137,0.314-0.313,0.314
		C28.008,29.277,27.87,29.141,27.87,28.963"/>
	<path d="M29.431,32.02c0-1.641,0.997-2.188,1.889-2.188c0.686,0,1.143,0.283,1.417,0.604v-1.697h-0.708v-0.297h1.062
		c0.08,0,0.113,0.057,0.113,0.145v4.955c0,0.119,0.121,0.24,0.233,0.24h0.362v0.289h-0.94c-0.08,0-0.114-0.086-0.122-0.264v-0.514
		c-0.314,0.434-0.828,0.811-1.545,0.811C30.323,34.104,29.431,33.637,29.431,32.02 M32.736,32.963v-2.205
		c-0.346-0.363-0.692-0.572-1.344-0.572c-0.691,0-1.487,0.371-1.487,1.818s0.723,1.785,1.342,1.785
		C31.932,33.789,32.391,33.412,32.736,32.963"/>
	<path d="M34.102,31.988c0-1.318,0.813-2.156,1.957-2.156c1.077,0,1.801,0.588,1.801,1.965c0,0.088-0.008,0.176-0.008,0.191h-3.274
		c0.007,1.174,0.555,1.811,1.616,1.811c0.676,0,1.072-0.234,1.287-0.492h0.273v0.332c-0.298,0.232-0.796,0.465-1.591,0.465
		C34.818,34.104,34.102,33.293,34.102,31.988 M37.393,31.676c-0.024-1.111-0.547-1.539-1.335-1.539
		c-0.822,0-1.384,0.557-1.465,1.539H37.393z"/>
	<path d="M39.843,33.781h0.45c0.137,0,0.266-0.143,0.266-0.273v-4.486c0-0.129-0.129-0.283-0.266-0.283h-0.45v-0.297h1.938v0.297
		h-0.45c-0.136,0-0.275,0.154-0.275,0.283v4.486c0,0.131,0.139,0.273,0.275,0.273h0.45v0.291h-1.938V33.781z"/>
	<path d="M43.534,33.781h0.427c0.137,0,0.273-0.143,0.273-0.273v-4.752H42.6l-0.063,1.223h-0.354v-1.537h4.601v1.537h-0.346
		l-0.073-1.223h-1.633v4.752c0,0.131,0.129,0.273,0.267,0.273h0.435v0.291h-1.899V33.781z"/>
	<path d="M49.266,33.781h0.372c0.135,0,0.272-0.143,0.272-0.273v-4.486c0-0.129-0.137-0.283-0.272-0.283h-0.372v-0.297h2.165
		c1.206,0,2.019,0.426,2.019,1.633c0,1.199-0.771,1.648-2.028,1.648H50.41v2.059h0.738v0.291h-1.882V33.781z M51.422,31.41
		c1.006,0,1.529-0.348,1.529-1.336c0-0.965-0.573-1.303-1.529-1.303H50.41v2.639H51.422z"/>
	<path d="M53.746,32.889c0-0.844,0.7-1.223,1.673-1.223c0.409,0,0.765,0.041,1.093,0.129v-0.756c0-0.676-0.408-0.877-1.004-0.877
		c-0.62,0-1.014,0.201-1.254,0.418h-0.233v-0.395c0.329-0.184,0.828-0.354,1.526-0.354c0.853,0,1.432,0.266,1.432,1.168v2.436
		c0,0.25,0.104,0.354,0.328,0.354c0.099,0,0.21-0.021,0.21-0.021v0.264c-0.048,0.025-0.192,0.072-0.361,0.072
		c-0.402,0-0.645-0.168-0.645-0.562v-0.09c-0.32,0.404-0.753,0.66-1.374,0.66C54.31,34.111,53.746,33.727,53.746,32.889
		 M56.512,33.107v-1.014c-0.313-0.074-0.649-0.121-1.013-0.121c-0.795,0-1.301,0.266-1.301,0.916c0,0.637,0.377,0.9,1.003,0.9
		C55.828,33.789,56.192,33.5,56.512,33.107"/>
	<path d="M57.815,33.781h0.352c0.121,0,0.234-0.111,0.234-0.232V30.42c0-0.111-0.113-0.242-0.234-0.242h-0.393v-0.305h0.95
		c0.096,0,0.143,0.057,0.143,0.289v0.531c0.323-0.418,0.757-0.844,1.394-0.844c0.104,0,0.177,0.016,0.2,0.023v0.387
		c0,0-0.112-0.008-0.184-0.008c-0.62,0-0.991,0.281-1.409,0.748v2.781h0.774v0.291h-1.826V33.781z"/>
	<path d="M61.361,33.162v-2.984h-0.604v-0.305h0.604v-1.158h0.467v1.158h1.094v0.305h-1.094v2.945c0,0.498,0.144,0.666,0.562,0.666
		c0.178,0,0.331-0.039,0.395-0.078h0.225v0.305c-0.137,0.047-0.386,0.096-0.627,0.096C61.716,34.111,61.361,33.846,61.361,33.162"/>
	<path d="M63.307,33.781h0.354c0.121,0,0.233-0.111,0.233-0.232V30.42c0-0.111-0.112-0.242-0.233-0.242h-0.394v-0.305h0.948
		c0.096,0,0.137,0.057,0.145,0.273v0.467c0.459-0.402,1.102-0.781,1.787-0.781c0.627,0,1.126,0.211,1.126,1.047v2.67
		c0,0.121,0.119,0.232,0.233,0.232h0.313v0.291h-1.736v-0.291h0.723v-2.766c0-0.668-0.338-0.805-0.813-0.805
		c-0.603,0-1.158,0.307-1.633,0.691v2.879h0.724v0.291h-1.776V33.781z"/>
	<path d="M68.123,31.988c0-1.318,0.812-2.156,1.956-2.156c1.077,0,1.801,0.588,1.801,1.965c0,0.088-0.008,0.176-0.008,0.191h-3.272
		c0.008,1.174,0.554,1.811,1.616,1.811c0.676,0,1.071-0.234,1.287-0.492h0.273v0.332c-0.296,0.232-0.796,0.465-1.592,0.465
		C68.84,34.104,68.123,33.293,68.123,31.988 M71.413,31.676c-0.023-1.111-0.547-1.539-1.335-1.539c-0.821,0-1.383,0.557-1.464,1.539
		H71.413z"/>
	<path d="M72.257,33.781h0.354c0.12,0,0.233-0.111,0.233-0.232V30.42c0-0.111-0.113-0.242-0.233-0.242h-0.394v-0.305h0.948
		c0.097,0,0.146,0.057,0.146,0.289v0.531c0.32-0.418,0.755-0.844,1.392-0.844c0.104,0,0.176,0.016,0.2,0.023v0.387
		c0,0-0.112-0.008-0.185-0.008c-0.62,0-0.99,0.281-1.407,0.748v2.781h0.772v0.291h-1.826V33.781z"/>
</g>
</svg>
