<?xml version="1.0" encoding="utf-8"?>
<!-- Generator: Adobe Illustrator 15.0.2, SVG Export Plug-In . SVG Version: 6.00 Build 0)  -->
<!DOCTYPE svg PUBLIC "-//W3C//DTD SVG 1.1//EN" "http://www.w3.org/Graphics/SVG/1.1/DTD/svg11.dtd">
<svg version="1.1" id="Layer_1" xmlns="http://www.w3.org/2000/svg" xmlns:xlink="http://www.w3.org/1999/xlink" x="0px" y="0px"
	viewBox="0 0 450 18.796" enable-background="new 0 0 450 18.796" xml:space="preserve">
<g>
	<path fill="#010101" d="M4.023,14.32h1.146c0.368,0,0.736-0.391,0.736-0.736V8.759L1.601,1.666C1.319,1.19,0.865,0.8,0.346,0.8H0V0
		h4.585v0.8H2.596l4.131,6.835H6.77l3.353-5.516C10.641,1.254,10.317,0.8,9.495,0.8H8.673V0h4.412v0.8h-0.454
		c-0.455,0-0.8,0.346-1.082,0.822L7.224,8.716v4.868c0,0.346,0.368,0.736,0.736,0.736h1.146v0.82H4.023V14.32z"/>
	<path fill="#010101" d="M12.046,9.495c0-3.569,2.357-5.753,5.515-5.753c3.18,0,5.515,2.184,5.515,5.753s-2.335,5.733-5.515,5.733
		C14.404,15.228,12.046,13.064,12.046,9.495z M21.8,9.517c0-3.114-1.73-4.91-4.239-4.91s-4.239,1.795-4.239,4.91
		c0,3.094,1.73,4.889,4.239,4.889S21.8,12.611,21.8,9.517z"/>
	<path fill="#010101" d="M25.866,12.48V5.321c0-0.325-0.324-0.649-0.627-0.649h-1.017V3.85h2.898v8.263
		c0,1.752,0.93,2.184,2.098,2.184c1.622,0,3.157-0.865,4.369-1.859V4.672h-1.795V3.85h3.028v9.862c0,0.326,0.324,0.65,0.648,0.65
		h1.06v0.777h-2.574c-0.238,0-0.346-0.131-0.368-0.713v-1.189c-1.319,1.082-2.833,2.033-4.736,2.033
		C27.271,15.271,25.866,14.621,25.866,12.48z"/>
	<path fill="#010101" d="M37.652,14.363h0.952c0.324,0,0.627-0.305,0.627-0.629V5.321c0-0.303-0.303-0.649-0.627-0.649h-1.06V3.85
		h2.552c0.26,0,0.389,0.151,0.389,0.778v1.428c0.865-1.125,2.033-2.271,3.742-2.271c0.282,0,0.476,0.043,0.541,0.065v1.038
		c0,0-0.302-0.021-0.497-0.021c-1.666,0-2.66,0.756-3.785,2.011v7.485h2.076v0.777h-4.909V14.363z"/>
	<path fill="#010101" d="M51.925,13.734v0.52c0,0.412-0.411,0.887-0.627,0.887H50.67V1.449c0-0.303-0.303-0.649-0.627-0.649h-1.038
		V0h2.618c0.216,0,0.303,0.13,0.303,0.39v5.645c0.908-1.125,2.249-2.292,4.391-2.292c2.162,0,4.455,1.254,4.455,5.622
		c0,4.456-2.639,5.864-5.082,5.864C53.72,15.228,52.747,14.556,51.925,13.734z M59.495,9.452c0-3.786-1.773-4.758-3.59-4.758
		c-1.73,0-3.05,1.103-3.979,2.227v5.905c0.865,0.975,1.859,1.557,3.59,1.557C57.332,14.382,59.495,13.388,59.495,9.452z"/>
	<path fill="#010101" d="M63.582,12.48V5.321c0-0.325-0.324-0.649-0.627-0.649h-1.017V3.85h2.898v8.263
		c0,1.752,0.931,2.184,2.099,2.184c1.621,0,3.156-0.865,4.368-1.859V4.672h-1.796V3.85h3.029v9.862c0,0.326,0.324,0.65,0.648,0.65
		h1.06v0.777h-2.573c-0.238,0-0.346-0.131-0.368-0.713v-1.189c-1.319,1.082-2.833,2.033-4.736,2.033
		C64.988,15.271,63.582,14.621,63.582,12.48z"/>
	<path fill="#010101" d="M75.584,14.601V12.48h0.844c0.086,1.039,0.237,1.428,0.671,1.602c0.54,0.193,1.081,0.324,2.205,0.324
		c2.012,0,3.115-0.822,3.115-2.422c0-1.385-1.039-1.819-3.094-2.165c-2.184-0.367-3.504-0.93-3.504-3.006
		c0-1.947,1.406-3.071,3.915-3.071c1.817,0,2.79,0.259,3.482,0.541v1.99h-0.821c-0.109-0.887-0.217-1.211-0.671-1.406
		c-0.476-0.195-0.952-0.26-2.012-0.26c-1.86,0-2.769,0.779-2.769,2.055c0,1.405,0.887,1.772,2.92,2.12
		c2.379,0.389,3.721,1.037,3.721,3.049c0,2.162-1.363,3.396-4.262,3.396C77.314,15.228,76.298,14.88,75.584,14.601z"/>
	<path fill="#010101" d="M84.97,14.363h1.06c0.324,0,0.627-0.305,0.627-0.629V5.321c0-0.303-0.303-0.649-0.627-0.649h-1.168V3.85
		h2.725c0.238,0,0.325,0.151,0.325,0.67v9.213c0,0.324,0.324,0.629,0.627,0.629h1.082v0.777h-4.65V14.363z M86.289,1.406
		c0-0.476,0.368-0.843,0.844-0.843c0.477,0,0.844,0.368,0.844,0.843c0,0.476-0.367,0.844-0.844,0.844
		C86.657,2.25,86.289,1.882,86.289,1.406z"/>
	<path fill="#010101" d="M90.744,14.363h0.952c0.324,0,0.627-0.305,0.627-0.629V5.321c0-0.303-0.303-0.649-0.627-0.649h-1.06V3.85
		h2.552c0.26,0,0.368,0.151,0.39,0.735V5.84c1.232-1.082,2.963-2.098,4.801-2.098c1.688,0,3.029,0.562,3.029,2.812v7.18
		c0,0.324,0.324,0.629,0.627,0.629h0.844v0.777h-4.673v-0.777h1.946V6.921c0-1.795-0.908-2.163-2.184-2.163
		c-1.622,0-3.115,0.822-4.391,1.86v7.745h1.946v0.777h-4.78V14.363z"/>
	<path fill="#010101" d="M104.023,9.538c0-3.547,2.184-5.796,5.255-5.796c2.898,0,4.845,1.579,4.845,5.278
		c0,0.236-0.021,0.475-0.021,0.518h-8.803c0.021,3.159,1.492,4.868,4.348,4.868c1.816,0,2.877-0.627,3.461-1.32h0.734v0.887
		c-0.8,0.629-2.141,1.256-4.282,1.256C105.947,15.228,104.023,13.042,104.023,9.538z M112.869,8.694
		c-0.064-2.984-1.471-4.13-3.591-4.13c-2.206,0-3.72,1.492-3.937,4.13H112.869z"/>
	<path fill="#010101" d="M115.896,14.601V12.48h0.844c0.086,1.039,0.237,1.428,0.67,1.602c0.541,0.193,1.082,0.324,2.206,0.324
		c2.012,0,3.114-0.822,3.114-2.422c0-1.385-1.038-1.819-3.093-2.165c-2.185-0.367-3.504-0.93-3.504-3.006
		c0-1.947,1.405-3.071,3.915-3.071c1.816,0,2.79,0.259,3.482,0.541v1.99h-0.822c-0.108-0.887-0.217-1.211-0.67-1.406
		c-0.477-0.195-0.952-0.26-2.012-0.26c-1.86,0-2.77,0.779-2.77,2.055c0,1.405,0.888,1.772,2.92,2.12
		c2.379,0.389,3.721,1.037,3.721,3.049c0,2.162-1.362,3.396-4.261,3.396C117.625,15.228,116.609,14.88,115.896,14.601z"/>
	<path fill="#010101" d="M125.498,14.601V12.48h0.844c0.086,1.039,0.238,1.428,0.67,1.602c0.541,0.193,1.082,0.324,2.207,0.324
		c2.011,0,3.113-0.822,3.113-2.422c0-1.385-1.037-1.819-3.092-2.165c-2.185-0.367-3.504-0.93-3.504-3.006
		c0-1.947,1.406-3.071,3.914-3.071c1.816,0,2.791,0.259,3.482,0.541v1.99h-0.822c-0.107-0.887-0.216-1.211-0.67-1.406
		c-0.477-0.195-0.951-0.26-2.012-0.26c-1.859,0-2.769,0.779-2.769,2.055c0,1.405,0.888,1.772,2.92,2.12
		c2.38,0.389,3.72,1.037,3.72,3.049c0,2.162-1.361,3.396-4.26,3.396C127.228,15.228,126.211,14.88,125.498,14.601z"/>
	<path fill="#010101" d="M140.138,12.697V4.672h-1.622V3.85h1.622V0.735h1.254V3.85h2.942v0.822h-2.942v7.916
		c0,1.342,0.391,1.795,1.515,1.795c0.476,0,0.887-0.107,1.06-0.215h0.605v0.822c-0.367,0.129-1.038,0.258-1.687,0.258
		C141.09,15.248,140.138,14.535,140.138,12.697z"/>
	<path fill="#010101" d="M145.609,9.538c0-3.547,2.186-5.796,5.256-5.796c2.898,0,4.846,1.579,4.846,5.278
		c0,0.236-0.021,0.475-0.021,0.518h-8.803c0.021,3.159,1.492,4.868,4.347,4.868c1.816,0,2.876-0.627,3.46-1.32h0.736v0.887
		c-0.801,0.629-2.142,1.256-4.283,1.256C147.535,15.228,145.609,13.042,145.609,9.538z M154.456,8.694
		c-0.065-2.984-1.471-4.13-3.591-4.13c-2.205,0-3.719,1.492-3.936,4.13H154.456z"/>
	<path fill="#010101" d="M157.288,9.474c0-3.569,2.271-5.731,5.58-5.731c1.86,0,2.941,0.324,3.655,0.648v2.076h-0.865
		c-0.086-1.06-0.281-1.319-0.822-1.557c-0.475-0.216-1.146-0.325-1.989-0.325c-2.596,0-4.282,1.751-4.282,4.91
		c0,3.137,1.449,4.911,4.195,4.911c1.839,0,2.79-0.736,3.266-1.428h0.692v0.908c-0.648,0.605-1.968,1.342-3.979,1.342
		C159.191,15.228,157.288,13.042,157.288,9.474z"/>
	<path fill="#010101" d="M170.933,14.363h1.947v0.777h-4.779v-0.777h0.951c0.324,0,0.627-0.305,0.627-0.629V1.449
		c0-0.303-0.303-0.649-0.627-0.649h-1.038V0h2.616c0.217,0,0.303,0.13,0.303,0.39v5.45c1.234-1.082,2.964-2.098,4.803-2.098
		c1.687,0,3.027,0.562,3.027,2.812v7.18c0,0.324,0.324,0.629,0.627,0.629h0.844v0.777h-4.672v-0.777h1.947V6.921
		c0-1.795-0.908-2.163-2.186-2.163c-1.621,0-3.113,0.822-4.391,1.86V14.363z"/>
	<path fill="#010101" d="M181.358,14.363h0.952c0.324,0,0.627-0.305,0.627-0.629V5.321c0-0.303-0.303-0.649-0.627-0.649h-1.061V3.85
		h2.553c0.26,0,0.367,0.151,0.389,0.735V5.84c1.232-1.082,2.963-2.098,4.802-2.098c1.687,0,3.028,0.562,3.028,2.812v7.18
		c0,0.324,0.324,0.629,0.627,0.629h0.844v0.777h-4.672v-0.777h1.946V6.921c0-1.795-0.909-2.163-2.185-2.163
		c-1.621,0-3.115,0.822-4.391,1.86v7.745h1.947v0.777h-4.78V14.363z"/>
	<path fill="#010101" d="M194.636,9.495c0-3.569,2.357-5.753,5.516-5.753c3.18,0,5.516,2.184,5.516,5.753s-2.336,5.733-5.516,5.733
		C196.994,15.228,194.636,13.064,194.636,9.495z M204.39,9.517c0-3.114-1.729-4.91-4.238-4.91s-4.239,1.795-4.239,4.91
		c0,3.094,1.73,4.889,4.239,4.889S204.39,12.611,204.39,9.517z"/>
	<path fill="#010101" d="M206.812,14.363h1.061c0.324,0,0.648-0.305,0.648-0.629V1.449c0-0.303-0.324-0.649-0.648-0.649h-1.146V0
		h2.746c0.217,0,0.281,0.13,0.281,0.39v13.344c0,0.324,0.324,0.629,0.648,0.629h1.082v0.777h-4.672V14.363z"/>
	<path fill="#010101" d="M212.629,9.495c0-3.569,2.358-5.753,5.515-5.753c3.18,0,5.516,2.184,5.516,5.753s-2.336,5.733-5.516,5.733
		C214.988,15.228,212.629,13.064,212.629,9.495z M222.384,9.517c0-3.114-1.73-4.91-4.24-4.91c-2.508,0-4.238,1.795-4.238,4.91
		c0,3.094,1.73,4.889,4.238,4.889C220.654,14.406,222.384,12.611,222.384,9.517z"/>
	<path fill="#010101" d="M224.525,15.984c0-1.342,0.951-2.119,2.098-2.66c-0.541-0.217-1.018-0.691-1.018-1.514
		c0-0.844,0.477-1.45,1.061-1.862c-0.756-0.605-1.232-1.557-1.232-2.659c0-1.99,1.428-3.547,4.024-3.547
		c0.41,0,0.822,0.042,1.189,0.108h3.805v0.822h-1.404c-0.238,0-0.455,0.195-0.455,0.433c0.584,0.562,0.865,1.298,0.865,2.185
		c0,1.989-1.428,3.46-4,3.46c-0.932,0-1.645-0.193-2.229-0.498c-0.346,0.348-0.563,0.758-0.563,1.299
		c0,0.67,0.499,0.973,1.254,0.973h3.225c1.988,0,3.244,0.779,3.244,2.705c0,1.988-1.385,3.568-5.191,3.568
		C225.757,18.796,224.525,17.583,224.525,15.984z M233.176,15.443c0-1.318-0.756-1.795-2.162-1.795h-3.656
		c-0.952,0.477-1.622,1.146-1.622,2.207c0,1.189,0.691,2.076,3.504,2.076C232.029,17.931,233.176,16.828,233.176,15.443z
		 M232.246,7.289c0-1.514-0.887-2.725-2.789-2.725c-1.904,0-2.813,1.211-2.813,2.725c0,1.536,0.909,2.64,2.813,2.64
		C231.359,9.929,232.246,8.825,232.246,7.289z"/>
	<path fill="#010101" d="M235.598,14.363h1.061c0.324,0,0.627-0.305,0.627-0.629V5.321c0-0.303-0.303-0.649-0.627-0.649h-1.17V3.85
		h2.725c0.238,0,0.326,0.151,0.326,0.67v9.213c0,0.324,0.324,0.629,0.627,0.629h1.082v0.777h-4.65V14.363z M236.916,1.406
		c0-0.476,0.369-0.843,0.844-0.843c0.477,0,0.844,0.368,0.844,0.843c0,0.476-0.367,0.844-0.844,0.844
		C237.285,2.25,236.916,1.882,236.916,1.406z"/>
	<path fill="#010101" d="M241.588,14.601V12.48h0.842c0.088,1.039,0.238,1.428,0.672,1.602c0.541,0.193,1.082,0.324,2.205,0.324
		c2.012,0,3.115-0.822,3.115-2.422c0-1.385-1.037-1.819-3.092-2.165c-2.186-0.367-3.504-0.93-3.504-3.006
		c0-1.947,1.404-3.071,3.914-3.071c1.816,0,2.789,0.259,3.482,0.541v1.99H248.4c-0.107-0.887-0.215-1.211-0.672-1.406
		c-0.475-0.195-0.951-0.26-2.01-0.26c-1.861,0-2.77,0.779-2.77,2.055c0,1.405,0.889,1.772,2.92,2.12
		c2.379,0.389,3.721,1.037,3.721,3.049c0,2.162-1.361,3.396-4.26,3.396C243.318,15.228,242.301,14.88,241.588,14.601z"/>
	<path fill="#010101" d="M252.271,12.697V4.672h-1.623V3.85h1.623V0.735h1.254V3.85h2.941v0.822h-2.941v7.916
		c0,1.342,0.389,1.795,1.514,1.795c0.477,0,0.887-0.107,1.061-0.215h0.605v0.822c-0.369,0.129-1.039,0.258-1.688,0.258
		C253.223,15.248,252.271,14.535,252.271,12.697z"/>
	<path fill="#010101" d="M258.045,14.601V12.48h0.844c0.086,1.039,0.238,1.428,0.67,1.602c0.541,0.193,1.082,0.324,2.207,0.324
		c2.01,0,3.115-0.822,3.115-2.422c0-1.385-1.039-1.819-3.094-2.165c-2.186-0.367-3.504-0.93-3.504-3.006
		c0-1.947,1.406-3.071,3.914-3.071c1.816,0,2.791,0.259,3.482,0.541v1.99h-0.822c-0.107-0.887-0.215-1.211-0.67-1.406
		c-0.477-0.195-0.953-0.26-2.012-0.26c-1.859,0-2.768,0.779-2.768,2.055c0,1.405,0.887,1.772,2.918,2.12
		c2.381,0.389,3.721,1.037,3.721,3.049c0,2.162-1.361,3.396-4.26,3.396C259.775,15.228,258.758,14.88,258.045,14.601z"/>
	<path fill="#010101" d="M267.496,14.363c0-0.498,0.389-0.889,0.908-0.889s0.908,0.391,0.908,0.889c0,0.477-0.389,0.865-0.908,0.865
		S267.496,14.839,267.496,14.363z"/>
	<path fill="#010101" d="M275.67,0h4.412c3.482,0,5.58,1.341,5.58,4.607c0,3.265-2.076,4.695-5.623,4.695h-2.033v5.838h-2.336V0z
		 M278.006,7.591h2.033c2.25,0,3.244-0.908,3.244-2.94c0-2.033-0.994-2.855-3.244-2.855h-2.033V7.591z"/>
	<path fill="#010101" d="M286.787,9.517c0-3.612,2.334-5.861,5.406-5.861s5.408,2.249,5.408,5.861c0,3.59-2.336,5.754-5.408,5.754
		S286.787,13.107,286.787,9.517z M295.352,9.517c0-2.725-1.232-4.196-3.158-4.196c-1.902,0-3.158,1.471-3.158,4.196
		c0,2.725,1.256,4.088,3.158,4.088C294.119,13.605,295.352,12.242,295.352,9.517z"/>
	<path fill="#010101" d="M298.617,4.477V3.828h2.055l2.27,8.175h0.043l2.467-8.175h1.729l2.445,8.175h0.043l2.248-8.175h1.797v0.649
		L310.6,15.14h-1.969l-2.422-8.089h-0.045l-2.465,8.089h-1.947L298.617,4.477z"/>
	<path fill="#010101" d="M316.998,9.905c0.107,2.682,1.32,3.7,3.439,3.7c1.449,0,2.443-0.477,3.137-1.039h0.713v1.535
		c-0.822,0.564-2.055,1.17-4.174,1.17c-3.461,0-5.385-2.207-5.385-5.754c0-3.612,2.227-5.861,5.168-5.861
		c2.984,0,4.736,1.751,4.736,5.472c0,0.303-0.021,0.691-0.021,0.777H316.998z M317.041,8.456h5.408
		c-0.045-2.443-0.996-3.287-2.553-3.287C318.426,5.169,317.279,6.056,317.041,8.456z"/>
	<path fill="#010101" d="M329.002,6.878v8.262h-2.207V3.828h1.385c0.541,0,0.777,0.238,0.822,1.558
		c0.756-0.865,1.836-1.666,3.244-1.666c0.258,0,0.475,0.043,0.605,0.086v1.816c0,0-0.412-0.021-0.498-0.021
		C330.818,5.602,329.715,6.25,329.002,6.878z"/>
	<path fill="#010101" d="M334.732,1.319c0-0.713,0.605-1.298,1.297-1.298c0.693,0,1.299,0.584,1.299,1.298
		c0,0.692-0.605,1.254-1.299,1.254C335.338,2.574,334.732,2.012,334.732,1.319z M334.904,15.14V3.828h1.232
		c0.865,0,0.975,0.26,0.975,1.687v9.625H334.904z"/>
	<path fill="#010101" d="M342.258,5.256c1.104-0.865,2.66-1.6,4.326-1.6c1.578,0,2.898,0.648,2.898,3.115v8.37h-2.207V7.289
		c0-1.406-0.627-1.795-1.709-1.795c-1.232,0-2.379,0.584-3.309,1.124v8.522h-2.205V3.828h1.383
		C341.977,3.828,342.215,4.066,342.258,5.256z"/>
	<path fill="#010101" d="M361.723,14.751c0,2.66-2.055,4.021-5.213,4.021c-1.947,0-3.395-0.41-4.348-0.951v-1.666h0.715
		c0.734,0.564,1.902,0.975,3.33,0.975c2.055,0,3.309-0.713,3.309-2.529v-1.213c-0.801,0.844-1.99,1.471-3.482,1.471
		c-2.291,0-4.412-1.514-4.412-5.364c0-4.239,2.379-5.839,4.758-5.839c1.494,0,2.531,0.497,3.289,1.232
		c0.129-0.605,0.432-1.06,1.037-1.06h1.018V14.751z M359.516,11.832V6.424c-0.691-0.649-1.449-0.995-2.596-0.995
		c-1.492,0-3.07,0.778-3.07,3.893c0,3.03,1.146,3.917,2.768,3.917C357.787,13.238,358.76,12.611,359.516,11.832z"/>
	<path fill="#010101" d="M371.453,14.058v4.586h-2.207V3.828h1.385c0.541,0,0.779,0.238,0.822,1.45
		c0.844-0.844,1.99-1.622,3.676-1.622c2.121,0,4.24,1.427,4.24,5.58c0,4.348-2.422,5.84-4.779,5.84
		C373.162,15.076,372.211,14.687,371.453,14.058z M371.453,6.727v5.732c0.672,0.67,1.471,0.996,2.596,0.996
		c1.557,0,3.07-0.758,3.07-4.002c0-3.223-1.383-4.023-2.768-4.023C373.248,5.429,372.232,6.056,371.453,6.727z"/>
	<path fill="#010101" d="M383.781,6.878v8.262h-2.207V3.828h1.385c0.539,0,0.777,0.238,0.822,1.558
		c0.756-0.865,1.838-1.666,3.244-1.666c0.26,0,0.475,0.043,0.605,0.086v1.816c0,0-0.412-0.021-0.498-0.021
		C385.598,5.602,384.494,6.25,383.781,6.878z"/>
	<path fill="#010101" d="M388.516,9.517c0-3.612,2.336-5.861,5.408-5.861c3.07,0,5.406,2.249,5.406,5.861
		c0,3.59-2.336,5.754-5.406,5.754C390.852,15.271,388.516,13.107,388.516,9.517z M397.08,9.517c0-2.725-1.232-4.196-3.156-4.196
		c-1.904,0-3.158,1.471-3.158,4.196c0,2.725,1.254,4.088,3.158,4.088C395.848,13.605,397.08,12.242,397.08,9.517z"/>
	<path fill="#010101" d="M410.945,14.751c0,2.66-2.057,4.021-5.215,4.021c-1.945,0-3.395-0.41-4.346-0.951v-1.666h0.713
		c0.736,0.564,1.904,0.975,3.332,0.975c2.055,0,3.309-0.713,3.309-2.529v-1.213c-0.801,0.844-1.99,1.471-3.482,1.471
		c-2.293,0-4.412-1.514-4.412-5.364c0-4.239,2.379-5.839,4.758-5.839c1.494,0,2.531,0.497,3.287,1.232
		c0.131-0.605,0.434-1.06,1.039-1.06h1.018V14.751z M408.738,11.832V6.424c-0.691-0.649-1.449-0.995-2.596-0.995
		c-1.492,0-3.07,0.778-3.07,3.893c0,3.03,1.145,3.917,2.768,3.917C407.008,13.238,407.98,12.611,408.738,11.832z"/>
	<path fill="#010101" d="M416.025,6.878v8.262h-2.205V3.828h1.383c0.541,0,0.779,0.238,0.822,1.558
		c0.758-0.865,1.838-1.666,3.244-1.666c0.26,0,0.477,0.043,0.605,0.086v1.816c0,0-0.412-0.021-0.498-0.021
		C417.842,5.602,416.738,6.25,416.025,6.878z"/>
	<path fill="#010101" d="M423.033,9.905c0.107,2.682,1.318,3.7,3.439,3.7c1.447,0,2.443-0.477,3.135-1.039h0.715v1.535
		c-0.824,0.564-2.055,1.17-4.176,1.17c-3.461,0-5.385-2.207-5.385-5.754c0-3.612,2.229-5.861,5.17-5.861
		c2.984,0,4.736,1.751,4.736,5.472c0,0.303-0.023,0.691-0.023,0.777H423.033z M423.076,8.456h5.406
		c-0.043-2.443-0.994-3.287-2.551-3.287C424.461,5.169,423.312,6.056,423.076,8.456z"/>
	<path fill="#010101" d="M432.311,14.253v-1.709h0.713c0.518,0.498,1.471,1.018,2.877,1.018c1.578,0,2.357-0.562,2.357-1.645
		c0-0.952-0.541-1.362-2.381-1.643c-2.291-0.326-3.566-1.168-3.566-3.268c0-2.14,1.578-3.308,4.066-3.308
		c1.6,0,2.572,0.368,3.33,0.8v1.688h-0.715c-0.541-0.433-1.361-0.8-2.596-0.8c-1.447,0-2.117,0.497-2.117,1.449
		c0,0.887,0.627,1.277,2.398,1.535c2.488,0.369,3.656,1.189,3.656,3.354c0,2.141-1.363,3.523-4.326,3.523
		C434.148,15.248,433.066,14.751,432.311,14.253z"/>
	<path fill="#010101" d="M441.977,14.253v-1.709h0.713c0.52,0.498,1.471,1.018,2.879,1.018c1.578,0,2.355-0.562,2.355-1.645
		c0-0.952-0.539-1.362-2.379-1.643c-2.293-0.326-3.568-1.168-3.568-3.268c0-2.14,1.578-3.308,4.066-3.308
		c1.6,0,2.574,0.368,3.33,0.8v1.688h-0.713c-0.541-0.433-1.363-0.8-2.596-0.8c-1.449,0-2.119,0.497-2.119,1.449
		c0,0.887,0.627,1.277,2.4,1.535C448.832,8.739,450,9.56,450,11.724c0,2.141-1.361,3.523-4.324,3.523
		C443.814,15.248,442.732,14.751,441.977,14.253z"/>
</g>
</svg>
