<?xml version="1.0" encoding="utf-8"?>
<!-- Generator: Adobe Illustrator 15.0.2, SVG Export Plug-In . SVG Version: 6.00 Build 0)  -->
<!DOCTYPE svg PUBLIC "-//W3C//DTD SVG 1.1//EN" "http://www.w3.org/Graphics/SVG/1.1/DTD/svg11.dtd">
<svg version="1.1" id="Layer_1" xmlns="http://www.w3.org/2000/svg" xmlns:xlink="http://www.w3.org/1999/xlink" x="0px" y="0px"
	 width="240.322px" height="174.555px" viewBox="0 0 240.322 174.555" enable-background="new 0 0 240.322 174.555"
	 xml:space="preserve">
<g>
	<g>
		<path fill="#0066A1" stroke="#0066A1" stroke-width="0.5" stroke-linejoin="round" stroke-miterlimit="10" d="M16.732,52.807
			c2.59,4.841,5.678,8.952,5.984,8.802c0.684-0.71-0.053-9.367-0.041-9.863c-0.03-0.477,0.613-0.564,0.668-0.022
			c0.119,3.363,0.864,10.288-0.443,10.652c-1.14,0.4-5.88-7.396-6.15-8.312c0.165,1.517,0.525,6.89,0.639,8.633
			c0.004,0.503-0.691,0.51-0.644-0.039c-0.258-3.753-0.696-9.243-0.644-9.693C16.068,52.566,16.485,52.445,16.732,52.807z"/>
		<path fill="#0066A1" stroke="#0066A1" stroke-width="0.5" stroke-linejoin="round" stroke-miterlimit="10" d="M28.233,61.976
			c-2.122,0.186-3.156-1.185-3.291-2.877c-0.162-1.84,0.701-3.613,2.708-3.943c2.149-0.352,2.947,1.189,2.738,2.141
			c-0.14,0.492-0.844,0.763-1.702,1.044c-1.433,0.465-3.154,0.779-3.16,0.78c0.132,1.781,1.436,2.424,2.668,2.302
			c1.283-0.128,1.73-0.885,1.951-1.253c0.229-0.386,0.693-0.11,0.526,0.224C30.435,60.861,29.854,61.833,28.233,61.976z
			 M25.526,58.525c0.399-0.066,4.223-0.833,4.292-1.481c0.021-0.893-0.82-1.459-1.944-1.336
			C26.604,55.849,25.576,56.87,25.526,58.525z"/>
		<path fill="#0066A1" stroke="#0066A1" stroke-width="0.5" stroke-linejoin="round" stroke-miterlimit="10" d="M35.565,56.563
			c-0.001-0.005-0.673,4.868-1.945,4.926c-1.446,0.072-2.329-5.824-2.347-6.364c-0.049-0.481,0.586-0.483,0.616-0.047
			c0.026,0.274,0.231,1.755,0.553,3.012c0.329,1.284,0.809,2.703,1.136,2.753c0.288,0.04,0.79-1.436,1.092-2.757
			c0.281-1.238,0.409-2.547,0.467-2.764c0.08-0.429,0.528-0.454,0.684-0.078c0.097,0.206,0.346,1.345,0.732,2.45
			c0.461,1.317,1.092,2.842,1.439,2.74c0.363-0.114,0.742-1.535,0.976-2.818c0.269-1.487,0.39-3.063,0.394-3.538
			c0.002-0.521,0.662-0.416,0.645-0.043c-0.051,1.166-0.514,6.917-2.014,7.075C36.801,61.241,35.565,56.563,35.565,56.563z"/>
	</g>
	<g>
		<path fill="#0066A1" stroke="#0066A1" stroke-width="0.5" stroke-linejoin="round" stroke-miterlimit="10" d="M22.136,155.374
			c0.179,3.899,0.232,8.618,0.33,9.722c1.862-0.105,3.792-0.361,5.121-0.607c0.54-0.106,0.617,0.475,0.213,0.594
			c-1.752,0.307-5.778,0.756-5.975,0.568c-0.119-1.346-0.173-6.76-0.318-10.142C21.479,154.977,22.066,154.91,22.136,155.374z"/>
		<path fill="#0066A1" stroke="#0066A1" stroke-width="0.5" stroke-linejoin="round" stroke-miterlimit="10" d="M32.118,157.593
			c2.932,0.819,2.857,7.216-0.398,7.516c-1.935,0.198-2.919-1.272-3.095-3.115c-0.184-1.931,0.385-3.849,2.302-4.06
			c0.166-0.018,0.369-0.007,0.713,0.061c-0.1-0.152,0.013-0.412,0.25-0.435C31.942,157.555,32.02,157.566,32.118,157.593z
			 M31.789,158.692c-0.341-0.166-0.616-0.185-0.886-0.159c-1.511,0.145-1.848,2.305-1.682,3.502c0.16,1.129,0.719,2.681,2.432,2.531
			c1.268-0.12,1.977-1.585,2.008-3.078c0.013-1.322-0.41-2.671-1.451-3.19C32.305,158.483,32.122,158.828,31.789,158.692z"/>
		<path fill="#0066A1" stroke="#0066A1" stroke-width="0.5" stroke-linejoin="round" stroke-miterlimit="10" d="M43.627,163.701
			c0.032,0.475-0.558,0.484-0.589,0.047c-0.003-0.043-0.294-3.891-0.607-5.601c-0.481,0.341-1.252,0.854-2.562,0.544
			c0.43,1.128,0.553,2.734,0.718,5.23c0.249,3.768,0.019,6.691-2.377,6.902c-1.376,0.121-2.029-0.763-2.289-1.189
			c-0.217-0.377,0.22-0.77,0.539-0.293c0.16,0.231,0.671,1.031,1.716,0.939c2.443-0.214,1.916-5.389,1.746-7.164
			c-0.401,0.889-1.041,1.525-2.134,1.636c-1.772,0.183-2.735-1.327-2.7-3.769c0.03-2.117,1.115-3.778,2.613-3.83
			c0.555-0.02,1.16,0.344,1.466,0.57c1.67,1.23,3.147-0.221,3.205-0.26c0.272-0.187,0.52-0.068,0.568,0.172
			C43.212,158.965,43.614,163.504,43.627,163.701z M37.63,157.777c-0.974,0.025-1.895,1.426-1.941,3.197
			c-0.055,2.125,0.743,3.401,2.144,3.213c1.323-0.18,2.105-1.701,1.832-3.842C39.418,158.567,38.606,157.75,37.63,157.777z
			 M42.406,155.292c0.536,0.016,0.48,0.761-0.05,0.736C41.869,156.006,41.875,155.275,42.406,155.292z"/>
		<path fill="#0066A1" stroke="#0066A1" stroke-width="0.5" stroke-linejoin="round" stroke-miterlimit="10" d="M44.477,157.841
			c-0.042-0.505,0.609-0.528,0.655-0.193c0.018,0.128,0.018,0.362,0.018,0.362s0.414-1.099,1.905-1.298
			c0.763-0.103,1.586,0.089,2.148,0.737c0.792,0.915,0.884,3.796,0.962,5.568c0.021,0.489-0.588,0.488-0.61,0.061
			c-0.056-1.027-0.127-4.072-0.718-5.023c-0.403-0.65-1.147-0.84-1.578-0.806c-1.578,0.127-2.058,1.784-1.933,2.896l0.285,3.253
			c0.037,0.405-0.569,0.5-0.646,0.009L44.477,157.841z"/>
	</g>
	<g>
		<path fill="#0066A1" stroke="#0066A1" stroke-width="0.5" stroke-linejoin="round" stroke-miterlimit="10" d="M138.033,46.979
			c0.421-1.636,0.688-3.485,0.829-4.984c0.053-0.547,0.453-0.646,0.714-0.286c0.312,0.431,1.326,2.987,2.178,5.032
			c0.195-0.016,0.401-0.047,0.596-0.063c0.39-0.05,0.49,0.503,0.114,0.557c-0.171,0.042-0.417,0.066-0.502,0.078
			c0.692,1.595,1.378,3.292,1.505,3.532c0.214,0.462-0.394,0.62-0.543,0.288c-0.097-0.198-1.146-2.748-1.584-3.758
			c-0.694,0.062-1.636,0.16-2.832,0.182c-0.162,0.608-0.766,2.787-1.277,4.101c-0.205,0.5-0.723,0.207-0.589-0.132
			c0.162-0.401,0.753-2.043,1.262-3.966c-0.179,0.003-0.396-0.003-0.574-0.013c-0.391-0.04-0.347-0.565,0.064-0.564L138.033,46.979z
			 M138.659,46.992c0.771-0.02,1.617-0.082,2.469-0.175c-0.506-1.328-1.178-2.97-1.75-4.241
			C139.289,43.612,139.13,44.764,138.659,46.992z"/>
		<path fill="#0066A1" stroke="#0066A1" stroke-width="0.5" stroke-linejoin="round" stroke-miterlimit="10" d="M148.43,40.935
			c-0.056-0.538,0.532-0.542,0.565-0.153c0.044,0.506,0.197,4.511,0.483,8.231c0.046,0.609,0.564,0.9,0.724,0.994
			c0.312,0.199,0.064,0.622-0.349,0.437c-0.33-0.153-0.627-0.482-0.694-0.621c-0.316,0.48-0.772,0.958-1.772,1.124
			c-2.153,0.346-3.11-1.135-3.293-2.526c-0.291-2.575,1.074-3.741,2.506-4.014c0.61-0.116,1.396-0.06,2.016,0.241L148.43,40.935z
			 M144.661,48.345c0.166,1.218,1.035,2.329,2.58,2.115c0.823-0.117,1.399-0.786,1.563-1.251c0.122-0.352-0.157-3.772-0.138-3.748
			c-0.277-0.317-0.987-0.606-1.835-0.498C145.353,45.15,144.403,46.51,144.661,48.345z"/>
		<path fill="#0066A1" stroke="#0066A1" stroke-width="0.5" stroke-linejoin="round" stroke-miterlimit="10" d="M155.213,40.34
			c-0.056-0.539,0.532-0.543,0.564-0.154c0.044,0.506,0.197,4.512,0.483,8.231c0.046,0.609,0.564,0.9,0.725,0.994
			c0.312,0.199,0.064,0.623-0.35,0.437c-0.33-0.153-0.626-0.482-0.693-0.621c-0.317,0.48-0.773,0.959-1.773,1.124
			c-2.152,0.346-3.11-1.134-3.293-2.526c-0.291-2.575,1.075-3.741,2.506-4.014c0.611-0.115,1.396-0.06,2.016,0.241L155.213,40.34z
			 M151.443,47.749c0.167,1.219,1.036,2.329,2.58,2.115c0.823-0.117,1.4-0.786,1.563-1.251c0.122-0.352-0.157-3.772-0.138-3.748
			c-0.277-0.317-0.987-0.606-1.836-0.498C152.135,44.555,151.185,45.915,151.443,47.749z"/>
	</g>
	<g>
		<path fill="#0066A1" stroke="#0066A1" stroke-width="0.5" stroke-linejoin="round" stroke-miterlimit="10" d="M82.663,54.7
			c-0.116,0.864-0.648,4.947-2.277,5.839l0.431,4.889c0.037,0.378-0.562,0.484-0.599,0.024c-0.099-1.214-0.3-3.424-0.456-4.838
			c-1.774-0.284-2.985-3.948-3.266-5.312c-0.083-0.41,0.521-0.55,0.606-0.086c0.267,1.437,1.64,4.881,2.863,4.759
			c1.228-0.123,2.004-4.408,2.078-5.374C82.081,54.124,82.738,54.145,82.663,54.7z"/>
		<path fill="#0066A1" stroke="#0066A1" stroke-width="0.5" stroke-linejoin="round" stroke-miterlimit="10" d="M86.146,65.095
			c-2.123,0.187-3.157-1.184-3.292-2.876c-0.161-1.84,0.701-3.613,2.708-3.943c2.149-0.352,2.948,1.189,2.739,2.14
			c-0.141,0.493-0.845,0.764-1.702,1.044c-1.434,0.466-3.155,0.78-3.161,0.781c0.132,1.781,1.436,2.423,2.669,2.302
			c1.283-0.128,1.73-0.885,1.95-1.253c0.229-0.386,0.693-0.11,0.526,0.223C88.348,63.981,87.767,64.953,86.146,65.095z
			 M83.438,61.646c0.4-0.066,4.223-0.833,4.292-1.482c0.021-0.892-0.819-1.458-1.943-1.335
			C84.517,58.969,83.489,59.989,83.438,61.646z"/>
		<path fill="#0066A1" stroke="#0066A1" stroke-width="0.5" stroke-linejoin="round" stroke-miterlimit="10" d="M90.104,63.608
			c0.408,0.297,0.972,0.544,1.823,0.456c0.956-0.1,1.709-0.665,1.634-1.491c-0.105-1.164-1.294-1.196-2.146-1.345
			c-1.063-0.186-1.998-0.67-2.066-1.771c-0.056-0.895,0.537-1.891,1.987-2.035c1.08-0.108,1.733,0.148,2.203,0.53
			c0.328,0.268-0.078,0.713-0.4,0.463c-0.333-0.257-0.794-0.524-1.765-0.416c-0.967,0.109-1.48,0.747-1.436,1.434
			c0.047,0.723,0.777,1.062,1.447,1.195c1.055,0.211,2.609,0.237,2.752,1.897c0.11,1.295-1.002,1.982-2.163,2.099
			c-1.057,0.106-1.828-0.226-2.212-0.528C89.419,63.826,89.783,63.373,90.104,63.608z"/>
	</g>
	<g>
		<path fill="#0066A1" stroke="#0066A1" stroke-width="0.5" stroke-linejoin="round" stroke-miterlimit="10" d="M26.722,110.148
			c2.59,4.841,5.678,8.953,5.984,8.802c0.684-0.71-0.053-9.366-0.041-9.862c-0.03-0.477,0.613-0.564,0.668-0.023
			c0.119,3.363,0.864,10.289-0.443,10.652c-1.14,0.4-5.88-7.395-6.15-8.311c0.165,1.516,0.525,6.889,0.639,8.632
			c0.004,0.503-0.691,0.511-0.644-0.039c-0.258-3.753-0.696-9.243-0.644-9.692C26.058,109.908,26.475,109.787,26.722,110.148z"/>
		<path fill="#0066A1" stroke="#0066A1" stroke-width="0.5" stroke-linejoin="round" stroke-miterlimit="10" d="M38.486,111.908
			c2.933,0.819,2.858,7.217-0.397,7.516c-1.935,0.197-2.919-1.272-3.095-3.115c-0.184-1.93,0.385-3.848,2.302-4.059
			c0.166-0.018,0.369-0.008,0.713,0.06c-0.1-0.153,0.013-0.411,0.25-0.435C38.312,111.871,38.39,111.883,38.486,111.908z
			 M38.158,113.008c-0.342-0.166-0.616-0.184-0.886-0.158c-1.512,0.144-1.848,2.305-1.682,3.502c0.16,1.128,0.718,2.68,2.432,2.531
			c1.268-0.121,1.977-1.586,2.008-3.078c0.013-1.322-0.41-2.672-1.451-3.191C38.674,112.799,38.491,113.145,38.158,113.008z"/>
	</g>
	<g>
		<path fill="#0066A1" stroke="#0066A1" stroke-width="0.5" stroke-linejoin="round" stroke-miterlimit="10" d="M19.737,66.825
			c-0.181,1.559-0.368,4.93,0.006,6.478c0.329,1.274,1.098,1.531,1.855,1.451c0.866-0.092,1.633-0.559,1.979-1.509
			c0.259-0.716,0.075-6.259,0.062-6.528c-0.019-0.43,0.526-0.444,0.551-0.074c0.016,0.228,0.116,4.725,0.074,6.002
			c-0.026,0.795,0.438,1.573,1.244,1.891c0.417,0.164,0.195,0.547-0.096,0.483c-0.856-0.191-1.424-1.148-1.424-1.148
			c-0.002-0.045-0.721,1.329-2.48,1.403c-1.076,0.048-1.817-0.429-2.203-1.473c-0.519-1.409-0.331-6.008-0.119-7.078
			C19.25,66.396,19.788,66.385,19.737,66.825z"/>
		<path fill="#0066A1" stroke="#0066A1" stroke-width="0.5" stroke-linejoin="round" stroke-miterlimit="10" d="M26.932,73.958
			c0.332,0.26,0.795,0.482,1.508,0.432c0.8-0.057,1.444-0.509,1.404-1.199c-0.056-0.974-1.047-1.034-1.753-1.181
			c-0.883-0.185-1.648-0.614-1.677-1.534c-0.021-0.748,0.501-1.563,1.716-1.644c0.903-0.061,1.441,0.171,1.823,0.503
			c0.266,0.232-0.085,0.593-0.348,0.376c-0.27-0.225-0.647-0.461-1.46-0.396c-0.81,0.064-1.257,0.582-1.238,1.155
			c0.02,0.605,0.619,0.907,1.176,1.037c0.873,0.206,2.17,0.271,2.243,1.659c0.057,1.084-0.89,1.627-1.862,1.691
			c-0.885,0.06-1.519-0.238-1.83-0.502C26.354,74.123,26.669,73.755,26.932,73.958z"/>
		<path fill="#0066A1" stroke="#0066A1" stroke-width="0.5" stroke-linejoin="round" stroke-miterlimit="10" d="M33.717,74.536
			c-1.775,0.098-2.601-1.074-2.667-2.491c-0.084-1.539,0.686-2.995,2.369-3.214c1.803-0.235,2.427,1.072,2.226,1.86
			c-0.13,0.407-0.725,0.613-1.449,0.823c-1.208,0.351-2.654,0.565-2.659,0.564c0.062,1.49,1.132,2.062,2.164,1.994
			c1.075-0.07,1.469-0.689,1.663-0.991c0.201-0.315,0.581-0.072,0.433,0.201C35.586,73.668,35.074,74.462,33.717,74.536z
			 M31.554,71.584c0.335-0.045,3.546-0.58,3.621-1.118c0.042-0.744-0.644-1.24-1.585-1.168
			C32.529,69.38,31.641,70.204,31.554,71.584z"/>
		<path fill="#0066A1" stroke="#0066A1" stroke-width="0.5" stroke-linejoin="round" stroke-miterlimit="10" d="M37.395,68.928
			c0.079-0.094,0.369-0.461,1.125-0.483c0.707-0.021,1.157,0.426,1.369,0.782c0.222,0.354-0.196,0.599-0.402,0.337
			c-0.23-0.263-0.405-0.664-1.083-0.604c-0.395,0.034-0.998,0.448-1.014,1.006c-0.014,0.505,0.104,3.177,0.12,4.047
			c0.004,0.352-0.49,0.413-0.505,0.019c-0.052-1.315-0.165-4.669-0.172-5.169c-0.006-0.469,0.537-0.401,0.553-0.111L37.395,68.928z"
			/>
	</g>
	<g>
		<path fill="#0066A1" stroke="#0066A1" stroke-width="0.5" stroke-linejoin="round" stroke-miterlimit="10" d="M134.453,54.331
			c1.894,4.478,4.283,8.353,4.565,8.244c0.66-0.57,0.71-8.263,0.761-8.699c0.012-0.422,0.585-0.448,0.59,0.033
			c-0.166,2.976-0.068,9.142-1.251,9.357c-1.037,0.261-4.587-6.996-4.751-7.825c0.022,1.351-0.093,6.117-0.134,7.662
			c-0.038,0.445-0.651,0.395-0.564-0.086c0.075-3.33,0.133-8.206,0.216-8.599C133.886,54.066,134.263,53.992,134.453,54.331z"/>
		<path fill="#0066A1" stroke="#0066A1" stroke-width="0.5" stroke-linejoin="round" stroke-miterlimit="10" d="M145.477,62.25
			c-0.228,0.276-0.812,1.025-2.099,1.081c-1.631,0.078-2.352-1.368-2.032-3.112c0.404-2.142,1.798-2.964,2.994-2.959
			c0.62-0.01,0.987,0.215,1.263,0.493c0.026-0.474,0.637-0.413,0.602-0.046c-0.013,0.496-0.349,3.18-0.264,4.172
			c0.03,0.268,0.311,0.659,0.604,0.73c0.363,0.098,0.284,0.614-0.131,0.517C145.915,63.02,145.501,62.45,145.477,62.25z
			 M143.329,62.854c0.884-0.028,1.521-0.529,1.847-1.201c0.224-0.46,0.394-2.499,0.345-3.119c-0.027-0.329-0.61-0.845-1.387-0.752
			c-0.898,0.06-2.001,0.963-2.258,2.537C141.638,61.65,142.125,62.87,143.329,62.854z"/>
		<path fill="#0066A1" stroke="#0066A1" stroke-width="0.5" stroke-linejoin="round" stroke-miterlimit="10" d="M148.36,57.975
			c0,0,0.429-0.822,1.758-0.751c1.398,0.055,1.665,1.749,1.666,1.546c-0.001,0.003,0.352-1.62,2.073-1.579
			c0.925,0.021,1.688,0.735,1.719,1.772c0.049,1.622,0.011,3.692,0.015,4.09c0.006,0.396-0.556,0.395-0.552-0.015
			c0.002-0.367,0.014-2.525-0.04-4.014c-0.019-0.726-0.541-1.291-1.155-1.305c-1.026-0.025-1.623,0.938-1.734,2.03
			c-0.115,1.128-0.107,2.482-0.126,3.36c-0.007,0.337-0.558,0.371-0.553-0.074c0.011-0.836,0.05-2.074-0.01-3.138
			c-0.062-1.081-0.536-2.134-1.315-2.193c-1.147-0.052-1.719,0.94-1.774,1.64c-0.038,0.469-0.071,2.802-0.098,3.643
			c-0.022,0.374-0.575,0.384-0.554-0.037c0.021-0.817,0.077-4.629,0.116-5.146c0.012-0.456,0.578-0.374,0.577-0.071L148.36,57.975z"
			/>
		<path fill="#0066A1" stroke="#0066A1" stroke-width="0.5" stroke-linejoin="round" stroke-miterlimit="10" d="M159.169,63.402
			c-1.886-0.007-2.687-1.3-2.669-2.803c0.006-1.636,0.91-3.129,2.707-3.257c1.923-0.138,2.503,1.286,2.24,2.107
			c-0.162,0.423-0.805,0.605-1.584,0.782c-1.302,0.296-2.845,0.434-2.85,0.433c-0.027,1.582,1.069,2.253,2.167,2.245
			c1.141-0.008,1.598-0.64,1.821-0.946c0.233-0.321,0.619-0.041,0.445,0.239C161.202,62.599,160.611,63.408,159.169,63.402z
			 M157.062,60.142c0.358-0.026,3.79-0.394,3.904-0.959c0.09-0.786-0.605-1.353-1.606-1.335
			C158.23,57.869,157.24,58.687,157.062,60.142z"/>
	</g>
	<g>
		<path fill="#0066A1" stroke="#0066A1" stroke-width="0.5" stroke-linejoin="round" stroke-miterlimit="10" d="M145.274,136.191
			c0.421-1.637,0.688-3.486,0.829-4.984c0.053-0.547,0.453-0.646,0.714-0.287c0.312,0.431,1.326,2.988,2.178,5.033
			c0.195-0.016,0.401-0.047,0.596-0.064c0.39-0.05,0.49,0.504,0.114,0.557c-0.171,0.042-0.417,0.066-0.502,0.078
			c0.692,1.596,1.378,3.293,1.505,3.532c0.214,0.462-0.394,0.62-0.543,0.288c-0.097-0.198-1.146-2.748-1.584-3.758
			c-0.694,0.062-1.636,0.16-2.832,0.182c-0.162,0.608-0.766,2.787-1.277,4.101c-0.205,0.5-0.723,0.207-0.589-0.132
			c0.162-0.4,0.753-2.043,1.262-3.965c-0.179,0.002-0.396-0.004-0.574-0.014c-0.391-0.039-0.347-0.564,0.064-0.564L145.274,136.191z
			 M145.9,136.204c0.771-0.02,1.617-0.082,2.469-0.175c-0.506-1.328-1.178-2.97-1.75-4.241
			C146.53,132.824,146.372,133.977,145.9,136.204z"/>
		<path fill="#0066A1" stroke="#0066A1" stroke-width="0.5" stroke-linejoin="round" stroke-miterlimit="10" d="M155.671,130.146
			c-0.056-0.537,0.532-0.542,0.565-0.153c0.044,0.506,0.197,4.511,0.483,8.231c0.046,0.609,0.564,0.9,0.724,0.994
			c0.312,0.199,0.064,0.623-0.349,0.437c-0.33-0.153-0.627-0.482-0.694-0.621c-0.316,0.48-0.772,0.958-1.772,1.124
			c-2.153,0.346-3.11-1.135-3.293-2.526c-0.291-2.575,1.074-3.741,2.506-4.014c0.61-0.116,1.396-0.06,2.016,0.241L155.671,130.146z
			 M151.902,137.557c0.166,1.219,1.035,2.329,2.58,2.115c0.823-0.117,1.399-0.785,1.563-1.251c0.122-0.351-0.157-3.772-0.138-3.748
			c-0.277-0.317-0.987-0.606-1.835-0.498C152.594,134.363,151.644,135.723,151.902,137.557z"/>
		<path fill="#0066A1" stroke="#0066A1" stroke-width="0.5" stroke-linejoin="round" stroke-miterlimit="10" d="M162.455,129.552
			c-0.056-0.538,0.532-0.543,0.564-0.154c0.044,0.507,0.197,4.512,0.483,8.231c0.046,0.609,0.564,0.9,0.725,0.994
			c0.312,0.199,0.064,0.623-0.35,0.438c-0.33-0.154-0.626-0.482-0.693-0.621c-0.317,0.48-0.773,0.958-1.773,1.123
			c-2.152,0.346-3.11-1.134-3.293-2.525c-0.291-2.576,1.075-3.742,2.506-4.014c0.611-0.116,1.396-0.061,2.016,0.24L162.455,129.552z
			 M158.684,136.961c0.167,1.219,1.036,2.329,2.58,2.115c0.823-0.117,1.4-0.785,1.563-1.25c0.122-0.352-0.157-3.773-0.138-3.749
			c-0.277-0.317-0.987-0.606-1.836-0.498C159.376,133.768,158.426,135.127,158.684,136.961z"/>
	</g>
	<g>
		<path fill="#0066A1" stroke="#0066A1" stroke-width="0.5" stroke-linejoin="round" stroke-miterlimit="10" d="M235.059,157.984
			c0.26,0.13,0.437,0.469,0.285,0.767c-0.156,0.309-0.542,0.377-0.818,0.233c-0.248-0.123-0.376-0.471-0.179-0.783
			C234.515,157.936,234.828,157.87,235.059,157.984z M237.066,158.873c-0.258-0.01-0.513-0.183-0.543-0.448
			c-0.048-0.439,0.25-0.682,0.55-0.703c0.272-0.019,0.547,0.142,0.57,0.501C237.683,158.677,237.372,158.885,237.066,158.873z
			 M239.56,158.761c-0.276,0.042-0.586-0.113-0.614-0.428c-0.05-0.468,0.273-0.68,0.575-0.679c0.261,0.001,0.519,0.168,0.548,0.493
			C240.102,158.525,239.838,158.736,239.56,158.761z"/>
	</g>
	<g>
		<path fill="#0066A1" stroke="#0066A1" stroke-width="0.5" stroke-linejoin="round" stroke-miterlimit="10" d="M140.496,148.242
			c0.527-1.476,0.931-3.161,1.188-4.532c0.095-0.501,0.473-0.559,0.684-0.203c0.251,0.424,0.972,2.869,1.585,4.829
			c0.182,0.001,0.374-0.009,0.555-0.008c0.364-0.014,0.41,0.505,0.058,0.523c-0.16,0.023-0.389,0.024-0.47,0.029
			c0.504,1.531,0.995,3.156,1.091,3.388c0.158,0.446-0.416,0.54-0.525,0.221c-0.073-0.191-0.825-2.634-1.145-3.603
			c-0.646-0.002-1.524,0.009-2.63-0.073c-0.201,0.549-0.942,2.509-1.527,3.678c-0.231,0.444-0.684,0.13-0.531-0.171
			c0.184-0.355,0.868-1.823,1.499-3.555c-0.164-0.012-0.364-0.036-0.528-0.061c-0.356-0.069-0.271-0.552,0.106-0.515
			L140.496,148.242z M141.073,148.306c0.715,0.047,1.501,0.062,2.295,0.048c-0.354-1.27-0.836-2.841-1.256-4.063
			C141.941,145.239,141.698,146.29,141.073,148.306z"/>
		<path fill="#0066A1" stroke="#0066A1" stroke-width="0.5" stroke-linejoin="round" stroke-miterlimit="10" d="M150.584,146.968
			c-0.288,0.776-1.389,5.657-2.601,5.725c-1.478,0.091-2.233-5.348-2.328-5.769c-0.087-0.391,0.457-0.624,0.555-0.012
			c0.04,0.548,0.965,5.232,1.717,5.21c0.724-0.021,2.025-4.965,2.129-5.387C150.211,146.276,150.778,146.385,150.584,146.968z"/>
		<path fill="#0066A1" stroke="#0066A1" stroke-width="0.5" stroke-linejoin="round" stroke-miterlimit="10" d="M154.931,151.618
			c-0.228,0.276-0.812,1.025-2.099,1.08c-1.631,0.079-2.352-1.367-2.032-3.111c0.404-2.142,1.798-2.964,2.994-2.959
			c0.62-0.01,0.987,0.214,1.263,0.492c0.026-0.473,0.637-0.413,0.602-0.046c-0.013,0.497-0.349,3.181-0.264,4.172
			c0.03,0.268,0.311,0.66,0.604,0.731c0.363,0.098,0.284,0.614-0.131,0.517C155.369,152.388,154.956,151.818,154.931,151.618z
			 M152.783,152.223c0.884-0.028,1.521-0.529,1.847-1.202c0.224-0.459,0.394-2.498,0.345-3.118c-0.027-0.329-0.61-0.846-1.387-0.753
			c-0.898,0.06-2.001,0.964-2.258,2.538C151.092,151.019,151.579,152.238,152.783,152.223z"/>
		<path fill="#0066A1" stroke="#0066A1" stroke-width="0.5" stroke-linejoin="round" stroke-miterlimit="10" d="M158.607,146.948
			l1.094-0.002c0.374,0.025,0.352,0.49-0.056,0.491l-1.09-0.005c-0.189,2.351-0.43,4.309,0.504,4.773
			c0.415,0.206,1.071-0.12,1.409-0.544c0.245-0.305,0.675-0.016,0.386,0.349c-0.4,0.505-1.347,1.035-2.178,0.567
			c-1.066-0.601-0.831-2.708-0.663-5.142l-1.01-0.004c-0.405-0.016-0.375-0.499-0.029-0.506l1.093,0.005
			c0.003-0.004,0.054-0.619,0.148-1.544c0.046-0.453,0.589-0.355,0.547,0.054L158.607,146.948z"/>
		<path fill="#0066A1" stroke="#0066A1" stroke-width="0.5" stroke-linejoin="round" stroke-miterlimit="10" d="M165.86,151.659
			c-0.228,0.276-0.812,1.025-2.099,1.081c-1.631,0.078-2.352-1.368-2.032-3.112c0.404-2.142,1.798-2.964,2.994-2.959
			c0.62-0.01,0.987,0.215,1.263,0.493c0.026-0.474,0.637-0.413,0.602-0.046c-0.013,0.496-0.349,3.18-0.264,4.172
			c0.03,0.268,0.311,0.659,0.604,0.73c0.363,0.098,0.284,0.614-0.131,0.517C166.297,152.429,165.884,151.859,165.86,151.659z
			 M163.711,152.264c0.884-0.028,1.521-0.529,1.847-1.201c0.224-0.46,0.394-2.499,0.345-3.119c-0.027-0.329-0.61-0.845-1.387-0.752
			c-0.898,0.06-2.001,0.963-2.258,2.537C162.021,151.06,162.507,152.279,163.711,152.264z"/>
		<path fill="#0066A1" stroke="#0066A1" stroke-width="0.5" stroke-linejoin="round" stroke-miterlimit="10" d="M168.79,147.044
			c0.09-0.094,0.419-0.465,1.221-0.441c0.75,0.021,1.199,0.521,1.402,0.913c0.213,0.388-0.245,0.621-0.447,0.331
			c-0.229-0.292-0.389-0.729-1.11-0.708c-0.419,0.013-1.084,0.414-1.134,1.003c-0.046,0.534-0.086,3.37-0.125,4.292
			c-0.018,0.373-0.544,0.407-0.534-0.012c0.026-1.396,0.113-4.953,0.138-5.482c0.022-0.497,0.594-0.392,0.593-0.084L168.79,147.044z
			"/>
	</g>
	<g>
		<path fill="#0066A1" stroke="#0066A1" stroke-width="0.3" stroke-linejoin="round" stroke-miterlimit="10" d="M59.041,0.73
			c-0.059-0.708,1.062-0.814,1.13-0.062l0.045,0.491L70.29,0.477c0.804-0.043,0.915,0.949,0.016,1.032
			c-3.398,0.31-8.941,0.648-9.991,0.758c0,0.012,0.303,4.271,0.511,6.996c2.78-0.265,4.896-0.487,7.907-0.779
			c0.818-0.079,1.046,0.939,0.12,1.067c-1.065,0.146-6.257,0.646-7.942,0.807c0.162,2.992,0.375,5.713,0.634,9.101
			c0.101,1.336-1.101,1.203-1.166,0.338c-0.284-3.709-0.356-5.185-0.675-9.304l-1.217,0.105c-0.826,0.066-0.893-0.989-0.109-1.103
			c0.401-0.058,0.963-0.093,1.292-0.127c-0.267-3.475-0.335-4.693-0.539-7.023c-0.04,0.002-0.549,0.012-1.093,0.05
			c-0.728,0.051-0.785-1.03-0.056-1.066l1.087-0.1L59.041,0.73z"/>
		<path fill="#0066A1" stroke="#0066A1" stroke-width="0.3" stroke-linejoin="round" stroke-miterlimit="10" d="M74.083,2.262
			c-0.086,1.213-0.541,9.734,0.063,14.579c0.186,1.232,0.549,1.805,1.608,1.747c1.023,0.025,0.833,1.003,0.06,1.046
			c-0.639,0.061-2.053,0.089-2.546-1.448c-0.894-3.797-0.464-15.055-0.342-16.065C73.052,1.123,74.1,1.184,74.083,2.262z"/>
		<path fill="#0066A1" stroke="#0066A1" stroke-width="0.3" stroke-linejoin="round" stroke-miterlimit="10" d="M83.822,5.76
			c5.304,1.665,4.793,13.336-1.167,13.691c-3.541,0.247-5.251-2.494-5.464-5.865c-0.224-3.535,0.927-7.002,4.438-7.272
			c0.303-0.024,0.672,0.007,1.296,0.148c-0.171-0.284,0.047-0.75,0.484-0.777C83.504,5.678,83.645,5.703,83.822,5.76z M83.157,7.746
			c-0.612-0.324-1.114-0.372-1.605-0.341c-2.768,0.174-3.509,4.096-3.274,6.291c0.225,2.067,1.153,4.935,4.289,4.762
			c2.319-0.146,3.699-2.777,3.845-5.5c0.102-2.412-0.593-4.897-2.461-5.908C84.111,7.395,83.757,8.013,83.157,7.746z"/>
		<path fill="#0066A1" stroke="#0066A1" stroke-width="0.3" stroke-linejoin="round" stroke-miterlimit="10" d="M96.482,9.823
			c-0.001-0.01-1.512,8.845-3.837,8.875c-2.644,0.047-3.911-10.765-3.911-11.751c-0.061-0.882,1.099-0.85,1.129-0.049
			c0.031,0.501,0.318,3.216,0.831,5.527c0.525,2.363,1.319,4.98,1.911,5.091c0.523,0.089,1.527-2.574,2.155-4.968
			c0.586-2.244,0.895-4.622,1.013-5.016c0.171-0.778,0.991-0.799,1.251-0.103c0.165,0.382,0.553,2.473,1.194,4.514
			c0.765,2.432,1.827,5.249,2.467,5.085c0.67-0.186,1.445-2.759,1.945-5.087c0.578-2.699,0.891-5.568,0.926-6.434
			c0.033-0.95,1.231-0.721,1.178-0.041c-0.16,2.125-1.341,12.592-4.088,12.795C98.466,18.434,96.482,9.823,96.482,9.823z"/>
	</g>
	<g>
		<path fill="#0066A1" d="M149.379,82.239c0.018,0.001,0.09,0.004,0.107,0.004c0.02,0,0.045-0.009,0.064-0.011
			c-0.057,0.122-0.094,0.254-0.077,0.396c1.013,9.006,2.019,19.031,2.381,22.68c-1.146-0.888-3.008-2.577-4.588-4.128
			c-0.295-0.29-0.77-0.285-1.061,0.01c-0.29,0.296-0.286,0.771,0.01,1.061c4.804,4.716,6.026,5.168,6.495,5.168
			c0.027,0,0.045-0.005,0.068-0.007c0.012-0.001,0.023-0.001,0.035-0.002c0.003,0,0.006-0.002,0.008-0.003
			c0.014-0.002,0.031-0.002,0.043-0.004c0.313-0.052,1.145-0.191,5.522-6.82c0.228-0.346,0.133-0.811-0.213-1.039
			c-0.345-0.228-0.81-0.134-1.039,0.213c-1.288,1.95-2.821,4.108-3.798,5.306c-0.371-3.729-1.369-13.664-2.374-22.602
			c-0.027-0.242-0.173-0.433-0.367-0.549c6.229-2.918,27.171-24.702,27.342-27.301c0.028-0.438,0.083-1.254-4.445-6.089
			c-6.367-6.801-23.524-22.738-27.854-22.738c-0.28,0-0.532,0.055-0.748,0.164c-3.324,1.675-25.272,25.822-25.677,30.317
			c-0.057,0.641,0.186,1.738,2.596,4.569C127.971,68.071,144.543,81.895,149.379,82.239z M120.708,56.399
			c0.305-3.391,21.62-27.479,24.931-29.115c4.301,0,30.223,24.352,30.805,27.207c-0.643,3.19-24.324,26.253-26.957,26.252v0.75
			v-0.75c-4.025-0.287-20.15-13.381-26.534-20.881C120.668,57.179,120.706,56.43,120.708,56.399z"/>
		<path fill="#0066A1" d="M153.727,115.436c0.004,0,0.476-0.139,2.191,0.901c8.189,4.967,26.274,24.339,26.695,26.499
			c-0.006,0.397,0.301,0.732,0.701,0.759c0.416,0.022,0.77-0.286,0.797-0.699c0.193-2.93-19.49-22.613-26.682-27.374
			c-2.154-1.427-3.503-1.864-4.371-1.429c-3.789,1.91-27.363,25.257-27.74,29.46c-0.061,0.667,0.226,1.85,2.989,5.097
			c6.04,7.097,23.315,22.445,28.312,22.803c0.025,0.002,0.052,0.003,0.078,0.003c3.979,0,24.762-19.939,27.277-24.583
			c0.197-0.364,0.061-0.819-0.303-1.017c-0.366-0.197-0.82-0.062-1.018,0.302c-2.736,5.054-23.148,23.8-25.889,23.8
			c-0.014,0-0.026,0-0.039-0.001c-3.904-0.279-20.27-14.049-27.27-22.271c-2.686-3.155-2.648-3.967-2.645-3.999
			C127.098,140.514,149.995,117.316,153.727,115.436z"/>
		<path fill="#0066A1" d="M108.226,53.393c-0.333-0.247-0.801-0.177-1.049,0.155c-0.247,0.333-0.177,0.803,0.156,1.05
			c1.881,1.395,3.955,3.046,5.096,4.087c-2.231,0.108-6.979,0.35-14.711,0.794c-0.414,0.024-0.729,0.379-0.706,0.792
			c0.022,0.399,0.354,0.707,0.748,0.707c0.014,0,0.029,0,0.043-0.001c7.836-0.45,12.595-0.692,14.782-0.799
			c-0.95,1.097-2.735,2.861-4.368,4.354c-0.306,0.279-0.327,0.754-0.048,1.06c0.148,0.162,0.351,0.244,0.554,0.244
			c0.181,0,0.362-0.064,0.506-0.196c5.64-5.152,5.547-5.998,5.507-6.361C114.7,58.963,114.606,58.125,108.226,53.393z"/>
		<path fill="#0066A1" d="M74.417,60.814c-6.289,0.388-12.654,0.79-17.01,1.119c-0.612-1.172-2.354-3.59-7.289-8.859
			C45.164,47.782,31.427,34.05,27.421,34.05c-0.276,0-0.525,0.056-0.741,0.164C23.211,35.962,0.398,60.22,0.007,64.601
			c-0.056,0.626,0.184,1.703,2.562,4.499c6.221,7.312,22.838,21.208,28.21,22.334c0.251,3.293,0.441,6.353,0.816,12.447
			c0.024,0.397,0.354,0.704,0.748,0.704c0.015,0,0.031,0,0.046-0.001c0.414-0.026,0.728-0.382,0.703-0.795
			c-0.378-6.151-0.569-9.214-0.824-12.547c5.557-2.582,23.842-23.682,25.358-27.82c4.343-0.328,10.649-0.726,16.882-1.109
			c0.414-0.026,0.728-0.382,0.703-0.795C75.186,61.104,74.834,60.776,74.417,60.814z M31.692,89.938
			c-0.17,0.038-0.279,0.069-0.548,0.036c-4.373-0.687-21.002-14.29-27.432-21.848c-2.25-2.644-2.214-3.362-2.211-3.393
			c0.294-3.301,22.471-27.476,25.92-29.185c3.999,0,26.988,23.115,28.713,27.059c0.091,0.196,0.138,0.259,0.053,0.449
			C55.175,66.273,35.789,88.555,31.692,89.938z"/>
		<path fill="#0066A1" d="M28.147,134.17c-0.34,0.235-0.425,0.703-0.189,1.043c4.833,6.975,5.937,7.491,6.431,7.491
			c0.046,0,0.086-0.004,0.125-0.009c0.318-0.035,1.165-0.13,5.876-6.823c0.238-0.339,0.157-0.807-0.182-1.045
			c-0.339-0.239-0.806-0.156-1.045,0.182c-1.373,1.951-2.996,4.098-4.035,5.303c-0.084-2.25-0.299-7.141-0.84-16.521
			c-0.024-0.414-0.376-0.736-0.792-0.706c-0.414,0.024-0.729,0.379-0.706,0.792c0.531,9.227,0.748,14.096,0.834,16.377
			c-1.133-1.318-2.922-3.714-4.434-5.895C28.955,134.018,28.488,133.934,28.147,134.17z"/>
		<path fill="#0066A1" d="M50.232,145.954c-7.367,0-36.526,1.843-37.878,5.941c-1.332,4.039,0.129,17.212,1.35,20.706
			c0.354,1.015,1.711,1.953,9.174,1.953c0.001,0,0.001,0,0.002,0c7.975,0,19.548-1.068,27.207-1.774
			c2.938-0.271,5.258-0.485,6.373-0.543c0.533-0.027,1.278-0.322,1.805-1.571c2.001-4.738,0.018-21.875-1.701-23.837
			C56.295,146.523,55.795,145.954,50.232,145.954z M56.883,170.082c-0.201,0.477-0.396,0.651-0.501,0.657
			c-1.145,0.059-3.479,0.274-6.433,0.547c-7.631,0.704-19.163,1.769-27.069,1.769h-0.002c-6.958,0-7.703-0.864-7.758-0.947
			c-1.268-3.629-2.5-16.229-1.344-19.734c1.049-2.171,23.507-4.919,36.457-4.919c4.466,0,5.191,0.334,5.204,0.364
			C56.611,149.159,58.726,165.719,56.883,170.082z"/>
		<path fill="#0066A1" d="M227.328,142.957c-0.034-0.319-0.126-1.165-6.917-5.98c-0.337-0.24-0.806-0.16-1.045,0.178
			c-0.24,0.338-0.16,0.806,0.178,1.045c2.141,1.518,4.512,3.33,5.657,4.364c-4.117,0.78-5.31-0.128-6.458-1.015
			c-0.831-0.642-1.771-1.363-3.58-1.327c-1.537,0.035-2.077,1.187-2.511,2.111c-0.551,1.173-0.983,2.095-3.142,1.93
			c-1.042-0.082-1.968-1.436-2.863-2.744c-1.119-1.638-2.287-3.347-4.083-3.255c-2.134,0.087-3.346,1.484-4.415,2.717
			c-1.009,1.164-1.883,2.172-3.412,2.172c-0.02,0-0.039-0.001-0.058-0.001c-0.974-0.016-1.413-0.521-1.97-1.159
			c-0.646-0.744-1.457-1.675-3.124-1.562c-1.364,0.086-2.405,1.158-3.323,2.104c-0.459,0.472-1.086,1.118-1.369,1.134
			c-0.414,0.023-0.73,0.377-0.708,0.791c0.022,0.413,0.356,0.724,0.79,0.707c0.869-0.049,1.596-0.796,2.363-1.587
			c0.729-0.752,1.556-1.604,2.342-1.653c0.891-0.051,1.264,0.321,1.898,1.051c0.639,0.734,1.434,1.648,3.076,1.675
			c2.244,0.023,3.52-1.411,4.628-2.688c0.996-1.148,1.856-2.141,3.343-2.202c0.979-0.014,1.895,1.305,2.783,2.604
			c1.095,1.6,2.227,3.254,3.982,3.394c0.202,0.016,0.395,0.023,0.578,0.023c2.723,0,3.509-1.678,4.041-2.812
			c0.428-0.914,0.629-1.235,1.188-1.248c1.262-0.038,1.843,0.407,2.629,1.015c1.197,0.925,2.654,2.04,6.754,1.449
			c-1.273,1.121-3.273,2.702-5.115,4.059c-0.333,0.245-0.404,0.715-0.158,1.049c0.146,0.199,0.374,0.305,0.604,0.305
			c0.155,0,0.311-0.048,0.445-0.146C227.466,144.213,227.375,143.395,227.328,142.957z"/>
	</g>
</g>
</svg>
