<?xml version="1.0" encoding="utf-8"?>
<!-- Generator: Adobe Illustrator 15.0.2, SVG Export Plug-In . SVG Version: 6.00 Build 0)  -->
<!DOCTYPE svg PUBLIC "-//W3C//DTD SVG 1.1//EN" "http://www.w3.org/Graphics/SVG/1.1/DTD/svg11.dtd">
<svg version="1.1" id="Layer_1" xmlns="http://www.w3.org/2000/svg" xmlns:xlink="http://www.w3.org/1999/xlink" x="0px" y="0px"
	 width="185px" height="60.414px" viewBox="0 0 185 60.414" enable-background="new 0 0 185 60.414" xml:space="preserve">
<path fill="#0066A1" d="M185,42.179c0,12.096-10.934,18.203-23.824,18.203c-8.439,0-15.959-1.887-22.258-5.352
	c1.637-2.381,4.113-6.545,5.268-9.018c4.254,1.766,11.178,3.885,17.426,3.885c6.104,0,10.871-2.547,10.871-5.963
	c0-2.973-1.02-5.297-10.727-8.32c-12.568-3.906-19.668-7.814-19.668-18.37C142.087,6.141,152.306,0,165.253,0
	c5.59,0,12.281,1.244,16.639,2.29l-0.65,16.169l-9.213-0.167l0.045-8.042c-1.361-0.299-3.318-0.55-6.027-0.55
	c-7.004,0-11.822,2.413-11.822,6.483c0,2.884,2.766,5.601,12.541,8.746C179.351,28.974,185,32.779,185,42.179z M57.73,51.966h4.686
	v7.352H39.938v-7.352h4.622l-2.861-8.07H18.929l-2.854,8.07h4.933v7.352H0v-7.352h5.005L20.667,7.723h-6.284V0.376h25.043
	L57.73,51.966z M38.467,34.792L30.301,11.77l-8.148,23.022H38.467z M140.857,34.435c0,14.42-11.828,25.979-25.98,25.979
	c-6.982,0-13.32-2.764-17.99-7.246c-3.191,3.855-8.95,7.186-16.019,7.186c-8.438,0-17.13-4.098-17.13-16.578V19.493h-8.826v-9.2
	h8.826V0.357h12.021v9.936h13.39v9.2h-13.39v23.1c0,5.035,3.092,8.4,7.379,8.4c3.166,0,6.491-1.475,8.952-4.07
	c-2.031-3.711-3.195-7.959-3.195-12.488c0-11.386,7.464-21.322,17.939-24.698c-2.168,3.229-3.607,10.593-3.613,14.651
	c-2.082,2.744-3.338,6.243-3.338,10.047c0,8.834,6.719,15.998,14.994,15.998c3.008,0,5.803-0.957,8.148-2.586
	c-9.322-3.941-15.873-13.172-15.873-23.936c0-5.728,1.861-11.021,5-15.315c0.898-0.091,1.803-0.142,2.725-0.142
	c3.588,0,7.002,0.724,10.107,2.042c0,0-0.006,0.003-0.006,0.008C134.308,14.442,140.857,23.671,140.857,34.435z M129.873,34.435
	c0-7.362-4.664-13.546-11.01-15.409c-0.465,1.538-0.721,3.18-0.721,4.885c0,7.363,4.67,13.545,11.01,15.406
	C129.621,37.779,129.873,36.136,129.873,34.435z"/>
</svg>
