<?xml version="1.0" encoding="utf-8"?>
<!-- Generator: Adobe Illustrator 15.0.2, SVG Export Plug-In . SVG Version: 6.00 Build 0)  -->
<!DOCTYPE svg PUBLIC "-//W3C//DTD SVG 1.1//EN" "http://www.w3.org/Graphics/SVG/1.1/DTD/svg11.dtd">
<svg version="1.1" id="Layer_1" xmlns="http://www.w3.org/2000/svg" xmlns:xlink="http://www.w3.org/1999/xlink" x="0px" y="0px"
	 width="137.041px" height="96.205px" viewBox="0 0 137.041 96.205" enable-background="new 0 0 137.041 96.205"
	 xml:space="preserve">
<path fill="#00B2A9" d="M114.568,2.105c-22.942-4.098-46.54-2.396-68.102,6.727c-21.464,9.08-45,28.475-46.415,53.393
	C-1.297,85.953,24.392,94.298,43.304,95.82c17.873,1.438,35.728-1.125,52.254-8.182c12.677-5.412,24.081-14.287,31.775-25.779
	c6.442-9.623,13.089-23.893,7.771-35.432c-7.301-15.844-33.387-16.268-47.764-12.248c-3.227,0.902-5.908,9.318-1.525,8.094
	c11.363-3.178,26.416-2.701,36.756,3.27c18.051,10.426,1.254,34.68-9.36,43.855C98.528,82.089,77.838,87.464,58.786,88.001
	c-17.939,0.506-42.697-1.793-50.748-20.637c-5.246-12.277,3.172-24.973,11.637-33.254c8.229-8.051,18.142-14.326,28.795-18.643
	c19.892-8.062,42.064-8.869,63.003-5.129C114.891,10.951,118.602,2.826,114.568,2.105L114.568,2.105z"/>
</svg>
