<?xml version="1.0" encoding="utf-8"?>
<!-- Generator: Adobe Illustrator 15.0.2, SVG Export Plug-In . SVG Version: 6.00 Build 0)  -->
<!DOCTYPE svg PUBLIC "-//W3C//DTD SVG 1.1//EN" "http://www.w3.org/Graphics/SVG/1.1/DTD/svg11.dtd">
<svg version="1.1" id="Layer_1" xmlns="http://www.w3.org/2000/svg" xmlns:xlink="http://www.w3.org/1999/xlink" x="0px" y="0px"
	 width="187.448px" height="340.817px" viewBox="0 0 187.448 340.817" enable-background="new 0 0 187.448 340.817"
	 xml:space="preserve">
<g>
	<path fill="#4CC9C3" d="M15.672,74.327c0.031,0.392,0.359,0.688,0.746,0.688c0.021,0,0.041-0.001,0.062-0.003
		c107.357-8.784,122.745-9.762,131.939-10.347c1.601-0.102,3.005-0.19,4.677-0.308c0.413-0.028,0.725-0.387,0.695-0.801
		c-0.028-0.412-0.372-0.722-0.801-0.695c-1.667,0.116-3.068,0.206-4.667,0.308c-9.199,0.584-24.596,1.562-131.967,10.349
		C15.945,73.552,15.638,73.914,15.672,74.327z"/>
	<path fill="#4CC9C3" d="M24.045,55.979c-0.302-0.283-0.777-0.268-1.06,0.034c-5.82,6.209-5.763,7.051-5.74,7.368
		c0.028,0.406,0.088,1.251,7.812,5.271c0.111,0.058,0.229,0.085,0.346,0.085c0.271,0,0.532-0.146,0.666-0.403
		c0.191-0.368,0.049-0.82-0.318-1.012c-2.846-1.481-6.108-3.369-6.92-4.104c0.554-0.951,3.036-3.818,5.249-6.18
		C24.362,56.737,24.348,56.263,24.045,55.979z"/>
	<path fill="#4CC9C3" d="M168.604,266.315c-0.028-0.412-0.364-0.717-0.801-0.695c-4.273,0.299-135.68,9.354-137.007,9.446
		c-0.413,0.028-0.725,0.387-0.696,0.8c0.027,0.396,0.356,0.698,0.747,0.698c0.018,0,0.035-0.001,0.053-0.002
		c1.326-0.091,132.734-9.146,137.009-9.446C168.321,267.087,168.633,266.729,168.604,266.315z"/>
	<path fill="#4CC9C3" d="M148.035,46.021c-2.246-0.097-15.064,1.038-15.607,1.086c-0.412,0.037-0.718,0.4-0.681,0.813
		c0.034,0.39,0.362,0.684,0.746,0.684c0.022,0,0.045-0.001,0.067-0.003c0.132-0.013,13.2-1.171,15.414-1.082
		c0.362,0.022,0.763-0.304,0.779-0.719C148.771,46.388,148.449,46.038,148.035,46.021z"/>
	<path fill="#4CC9C3" d="M148.714,51.734c-9.245,1.137-15.33,0.685-15.389,0.681c-0.422-0.018-0.773,0.277-0.807,0.689
		c-0.032,0.413,0.276,0.774,0.689,0.807c0.112,0.009,1.362,0.102,3.541,0.102c2.729,0,6.916-0.146,12.148-0.79
		c0.411-0.051,0.703-0.425,0.652-0.836S149.131,51.686,148.714,51.734z"/>
	<path fill="#4CC9C3" d="M148.737,57.244l-14.912,1.043l0.105,1.496l14.912-1.043c0.413-0.028,0.725-0.388,0.695-0.801
		C149.51,57.526,149.167,57.223,148.737,57.244z"/>
	<path fill="#4CC9C3" d="M38.791,299.774c-0.371-0.014-0.765,0.3-0.784,0.714s0.3,0.765,0.714,0.784
		c1.198,0.057,2.772,0.109,4.486,0.109c5.548-0.001,12.546-0.55,12.876-3.294c0.493-4.081-4.194-7.295-6.203-8.474
		c0.697-0.91,1.553-2.622,1.092-5.229c-0.46-2.609-3.466-4.227-5.941-4.099c-2.73,0.139-4.496,2.053-4.722,5.122
		c-0.149,2.028,0.648,3.703,1.285,4.693c-5.041,1.619-5.906,7.314-5.617,10.288c0.04,0.411,0.396,0.712,0.817,0.674
		c0.412-0.039,0.714-0.405,0.675-0.817c-0.03-0.32-0.67-7.853,5.536-8.951c0.271-0.048,0.492-0.24,0.58-0.502
		c0.087-0.261,0.023-0.549-0.164-0.75c-0.019-0.019-1.805-1.966-1.616-4.525c0.229-3.114,2.167-3.676,3.301-3.733
		c2.067-0.103,4.102,1.234,4.39,2.861c0.549,3.107-1.204,4.502-1.273,4.556c-0.21,0.155-0.323,0.408-0.3,0.668
		s0.18,0.489,0.413,0.605c1.878,0.934,6.663,4.089,6.26,7.433C54.427,299.29,47.043,300.161,38.791,299.774z"/>
	<path fill="#4CC9C3" d="M78.171,292.66c-0.001,0-0.002,0-0.002,0c-0.415,0.001-0.749,0.338-0.748,0.752
		c0.003,0.841-1.595,2.706-2.676,3.701c-0.2,0.185-0.285,0.463-0.222,0.728c0.064,0.265,0.266,0.474,0.528,0.547
		c0.021,0.006,0.709,0.188,1.718,0.188c2.096,0,5.575-0.786,7.328-5.573c1.303-0.217,4.899-1.028,6.793-3.564
		c1.055-1.411,1.409-3.11,1.054-5.051c-0.801-4.373-5.371-7.402-10.623-7.025c-6.168,0.431-10.297,3.944-10.039,8.543
		c0.173,3.056,2.082,5.293,5.521,6.472c0.396,0.133,0.817-0.075,0.953-0.467c0.134-0.392-0.075-0.818-0.467-0.953
		c-2.855-0.978-4.373-2.706-4.51-5.136c-0.213-3.788,3.263-6.587,8.646-6.963c4.417-0.303,8.391,2.238,9.043,5.799
		c0.28,1.533,0.025,2.802-0.777,3.88c-1.894,2.541-6.191,3.039-6.234,3.043c-0.293,0.032-0.54,0.233-0.632,0.513
		c-1.394,4.258-4.233,4.986-5.955,5.004c0.928-1.022,2.054-2.508,2.05-3.688C78.92,292.994,78.584,292.66,78.171,292.66z"/>
	<path fill="#4CC9C3" d="M124.987,288.964c0.107,0.053,0.222,0.078,0.333,0.078c0.276,0,0.542-0.152,0.673-0.416
		c0.846-1.702,0.92-4.133,0.618-5.788c-0.658-3.588-4.033-7.214-9.015-6.867c-2.777,0.194-5.282,1.324-7.015,3.124
		c0.022-0.915,0.078-2.082,0.147-3.133c0.027-0.413-0.285-0.771-0.698-0.798c-0.412-0.018-0.771,0.285-0.798,0.698
		c-0.328,4.924-0.089,5.267,0.07,5.493c0.303,0.432,0.878,0.616,3.887,0.932c0.257,0.026,0.47,0.049,0.606,0.066
		c0.032,0.004,0.063,0.006,0.096,0.006c0.372,0,0.694-0.276,0.743-0.655c0.053-0.41-0.238-0.786-0.649-0.839
		c-0.144-0.019-0.368-0.042-0.641-0.07c-0.444-0.046-1.346-0.142-2.054-0.251c0.777-0.936,2.771-2.822,6.409-3.077
		c4.108-0.285,6.894,2.692,7.435,5.642c0.305,1.668,0.104,3.662-0.486,4.85C124.465,288.329,124.616,288.779,124.987,288.964z"/>
	<path fill="#4CC9C3" d="M123.498,295.984c0.028,0.003,0.057,0.005,0.084,0.005c0.377,0,0.702-0.283,0.744-0.667
		c0.531-4.777,0.286-5.129,0.124-5.359c-0.341-0.488-0.993-0.562-3.404-0.594c-0.511-0.007-1.038-0.014-1.242-0.04
		c-0.416-0.048-0.787,0.238-0.839,0.649s0.239,0.787,0.649,0.839c0.288,0.036,0.784,0.043,1.411,0.052
		c0.358,0.005,0.86,0.013,1.323,0.031c-0.849,0.971-2.823,2.705-6.298,2.949c-3.873,0.29-7.064-2.97-7.648-6.162
		c-0.22-1.207-0.065-2.51,0.446-3.769c0.156-0.384-0.028-0.821-0.411-0.978c-0.382-0.156-0.821,0.027-0.978,0.411
		c-0.621,1.524-0.805,3.116-0.532,4.604c0.669,3.661,4.128,7.409,8.651,7.409c0.19,0,0.383-0.007,0.576-0.021
		c2.736-0.192,5.211-1.289,6.941-3.044c-0.059,0.856-0.155,1.905-0.261,2.854C122.79,295.568,123.087,295.938,123.498,295.984z"/>
	<path fill="#4CC9C3" d="M59.628,281.38c0.414,0,0.75-0.336,0.75-0.75s-0.336-0.75-0.75-0.75c-0.052,0-0.103,0-0.154,0
		c-1.099,0-2.02,0.004-2.82,0.01c-0.021-1.518-0.032-2.786-0.032-2.813c-0.003-0.413-0.329-0.72-0.756-0.744
		c-0.414,0.003-0.747,0.342-0.744,0.756c0.001,0.111,0.011,1.344,0.032,2.817c-2.976,0.042-3.199,0.131-3.318,0.18
		c-0.384,0.157-0.566,0.596-0.408,0.979c0.119,0.29,0.398,0.465,0.693,0.465c0.068,0,0.138-0.009,0.206-0.028
		c0.277-0.042,1.43-0.072,2.852-0.092c0.026,1.395,0.062,2.751,0.107,3.41c0.027,0.395,0.356,0.697,0.747,0.697
		c0.018,0,0.035-0.001,0.054-0.002c0.413-0.028,0.725-0.387,0.695-0.801c-0.044-0.627-0.078-1.95-0.104-3.321
		c0.981-0.008,1.989-0.012,2.869-0.012C59.574,281.38,59.601,281.38,59.628,281.38z"/>
	<path fill="#4CC9C3" d="M145.23,295.432c0.52,0.395,1.201,0.594,1.863,0.594c0.617,0,1.218-0.173,1.653-0.522
		c0.756-0.604,3.781-5.578,5.045-7.687c0.656,0.172,1.341,0.273,2.058,0.273c0.196,0,0.396-0.008,0.597-0.021
		c4.818-0.337,8.07-4.09,7.732-8.924c-0.339-4.847-4.109-8.303-8.914-7.959c-5.249,0.367-8.698,3.726-8.388,8.167
		c0.152,2.182,1.214,4.438,2.89,6.112c-0.936,1.099-4.4,5.226-5.172,7.023C144.097,293.649,144.334,294.75,145.23,295.432z
		 M148.373,279.247c-0.292-4.177,3.304-6.307,6.997-6.565c0.184-0.013,0.364-0.019,0.544-0.019c3.714,0,6.497,2.708,6.769,6.587
		c0.281,4.03-2.326,7.041-6.342,7.322C152.003,286.894,148.626,282.857,148.373,279.247z M145.974,293.08
		c0.613-1.43,3.572-5.046,4.928-6.635c0.453,0.329,0.938,0.617,1.449,0.857c-1.969,3.272-4.109,6.645-4.541,7.03
		c-0.339,0.27-1.177,0.28-1.671-0.095C145.925,294.075,145.674,293.777,145.974,293.08z"/>
	<path fill="#4CC9C3" d="M34.058,129.694c0.002,0,0.001,0,0.003,0c9.839,0,26.164-2.24,30.028-3.015
		c0.84-0.169,1.467-0.898,1.918-2.232c2.383-7.035-0.341-35.3-2.327-37.566c-0.269-0.307-0.769-0.877-5.988-0.877
		c-8.59,0-34.1,2.044-35.385,5.945c-1.355,4.108,2.336,32.141,3.608,35.781C26.254,128.701,27.486,129.694,34.058,129.694z
		 M23.73,92.421c0.904-2.17,21.836-4.917,33.961-4.917c4.062,0,4.815,0.355,4.851,0.355h0.001
		c1.435,1.981,4.497,29.854,1.948,36.369c-0.263,0.673-0.533,0.947-0.697,0.98c-3.826,0.768-19.992,2.985-29.733,2.985
		c-0.001,0-0.002,0-0.003,0c-6.225,0-6.709-0.92-6.727-0.958C26.028,123.51,22.589,95.882,23.73,92.421z"/>
	<path fill="#4CC9C3" d="M70.079,94.986c0.034,0.391,0.361,0.685,0.746,0.685c0.022,0,0.045-0.001,0.066-0.003l41.247-3.637
		c0.413-0.036,0.718-0.4,0.682-0.812c-0.036-0.413-0.424-0.716-0.812-0.682l-1.669,0.147c-0.407-0.772-1.406-3.232-2.286-5.543
		l3.33-0.274c0.413-0.033,0.72-0.396,0.686-0.809c-0.034-0.412-0.402-0.726-0.809-0.686l-40.517,3.334
		c-0.413,0.033-0.72,0.396-0.686,0.809c0.032,0.392,0.36,0.688,0.746,0.688c0.021,0,0.042-0.001,0.062-0.003l0.448-0.037
		c-0.133,0.163-0.203,0.376-0.163,0.599c0.169,0.95,0.715,3.719,1.559,5.239l-1.949,0.172C70.348,94.21,70.043,94.574,70.079,94.986
		z M101.209,88.154c0.286,1.199,0.583,2.426,1.053,3.242l-5.138,0.453c0.302-0.406,0.66-0.991,1.168-1.844
		c0.559-0.937,1.779-2.983,2.468-3.53C100.905,86.884,101.076,87.598,101.209,88.154z M97.004,89.238
		c-0.265,0.444-0.588,0.985-0.854,1.391c-0.05-0.107-0.1-0.217-0.146-0.319c-0.917-2.021-1.651-3.458-2.742-3.526
		c-0.279-0.01-0.828,0.055-1.26,0.757c-1.77,2.885-2.603,3.199-2.926,3.168c-0.242-0.007-0.465-0.324-0.609-0.591
		c-0.633-1.167-1.531-2.43-2.466-3.161l13.285-1.094C98.594,86.633,97.866,87.792,97.004,89.238z M84.619,87.853
		c0.402,0.144,1.479,1.042,2.529,2.979c0.602,1.111,1.358,1.361,1.888,1.376c0.017,0,0.033,0,0.05,0c1.588,0,3.053-2.029,4.16-3.827
		c0.438,0.446,1.094,1.892,1.393,2.549c0.227,0.5,0.388,0.846,0.528,1.093l-13.602,1.198c1.336-1.268,2.759-3.991,3.028-5.271
		C84.603,87.91,84.611,87.878,84.619,87.853z M105.087,91.147c0.824-1.075,1.602-2.715,2.136-3.983
		c0.714,1.834,1.191,2.956,1.524,3.66L105.087,91.147z M103.562,90.668c-0.356-0.604-0.663-1.891-0.895-2.861
		c-0.22-0.921-0.396-1.66-0.637-2.17l4.335-0.356C105.744,86.99,104.323,89.974,103.562,90.668z M72.377,88.077l10.904-0.897
		c-0.062,0.134-0.116,0.28-0.154,0.46c-0.295,1.396-1.97,4.069-2.755,4.669c-0.246-0.399-0.585-1.111-0.867-1.705
		c-0.971-2.041-1.421-2.87-2.205-2.811c-0.188,0.013-0.649,0.11-0.852,0.742c-0.608,1.89-1.709,4.322-2.322,4.935
		c-0.516-0.753-1.156-3.049-1.498-4.97C72.597,88.325,72.501,88.185,72.377,88.077z M77.534,89.99
		c0.214,0.412,0.445,0.897,0.616,1.257c0.44,0.925,0.822,1.719,1.176,2.172l-3.546,0.312C76.515,92.62,77.149,91.052,77.534,89.99z"
		/>
	<path fill="#4CC9C3" d="M72.852,103.147c0.016,0,0.03,0,0.046-0.001c2.815-0.17,69.013-4.168,74.599-5.562
		c0.401-0.1,0.646-0.507,0.546-0.909s-0.507-0.648-0.909-0.546c-5.452,1.36-73.638,5.478-74.325,5.519
		c-0.414,0.025-0.729,0.381-0.704,0.794C72.128,102.841,72.458,103.147,72.852,103.147z"/>
	<path fill="#4CC9C3" d="M148.332,107.2c-0.002,0-0.004,0-0.008,0c-0.998,0-73.167,4.725-74.99,5.478
		c-0.383,0.158-0.606,0.61-0.448,0.993c0.121,0.293,0.381,0.476,0.667,0.476c0.089,0,0.181-0.018,0.271-0.055
		c2.251-0.496,71.848-5.562,74.426-5.394c0.408,0.019,0.768-0.295,0.79-0.708C149.062,107.576,148.745,107.223,148.332,107.2z"/>
	<path fill="#4CC9C3" d="M73.214,123.098c0.031,0.393,0.36,0.69,0.747,0.69c0.021,0,0.04-0.001,0.061-0.002
		c0.694-0.056,69.523-5.531,76.094-5.99c0.413-0.028,0.725-0.387,0.695-0.801c-0.028-0.412-0.373-0.719-0.801-0.695
		c-6.576,0.46-75.413,5.936-76.107,5.99C73.489,122.323,73.182,122.685,73.214,123.098z"/>
	<path fill="#4CC9C3" d="M31.379,213.077c-1.319,4.001,1.257,33.204,2.467,36.665c0.442,1.267,2.553,1.808,7.057,1.808
		c0,0,0,0,0.001,0c6.659,0,16.937-1.215,24.44-2.101c3.591-0.425,6.427-0.76,7.765-0.829c0.616-0.032,1.104-0.46,1.447-1.272
		c2.192-5.188-0.34-36.758-2.391-39.098c-0.277-0.317-0.795-0.907-6.348-0.907C58.237,207.343,32.68,209.13,31.379,213.077z
		 M71.027,209.226c1.435,2.04,4.526,36.054,2.003,37.896c-1.387,0.072-4.245,0.409-7.862,0.837
		c-7.468,0.883-17.694,2.091-24.266,2.091c-5.149,0-5.625-0.774-5.641-0.802c-1.29-3.689-3.593-32.262-2.459-35.7
		c0.803-1.979,19.934-4.705,33.015-4.705C70.206,208.843,70.991,209.226,71.027,209.226
		C71.026,209.226,71.026,209.226,71.027,209.226z"/>
	<path fill="#4CC9C3" d="M155.676,216.884c-29.704,3.354-31.712,3.479-65.247,5.566l-9.136,0.57
		c-0.413,0.025-0.728,0.382-0.702,0.795c0.025,0.397,0.355,0.703,0.748,0.703c0.016,0,0.032,0,0.048-0.001l9.135-0.57
		c33.571-2.089,35.581-2.214,65.322-5.573c0.412-0.046,0.708-0.418,0.661-0.829C156.459,217.134,156.083,216.846,155.676,216.884z"
		/>
	<path fill="#4CC9C3" d="M155.655,227.844c-25.954,2.368-42.892,3.862-54.099,4.852c-16.324,1.44-19.051,1.687-19.694,1.952
		c-0.374,0.154-0.541,0.572-0.398,0.951c0.112,0.298,0.405,0.48,0.713,0.48c0.082,0,0.166-0.014,0.247-0.041
		c0.594-0.201,5.678-0.65,19.265-1.849c11.208-0.989,28.146-2.484,54.104-4.852c0.412-0.038,0.716-0.402,0.679-0.815
		C156.432,228.111,156.077,227.803,155.655,227.844z"/>
	<path fill="#4CC9C3" d="M159.225,237.623c-15.925,2.679-76.209,6.003-76.816,6.036c-0.414,0.022-0.73,0.377-0.708,0.79
		c0.022,0.399,0.353,0.709,0.748,0.709c0.014,0,0.028,0,0.042-0.001c0.608-0.033,60.977-3.362,76.982-6.056
		c0.409-0.068,0.685-0.455,0.615-0.863C160.02,237.829,159.634,237.548,159.225,237.623z"/>
	<path fill="#4CC9C3" d="M79.211,215.556c-0.392,0.055-0.679,0.4-0.645,0.798c0.032,0.392,0.36,0.688,0.746,0.688
		c0.021,0,0.043-0.001,0.063-0.003l52.47-4.421c0.413-0.034,0.72-0.397,0.685-0.81c-0.034-0.413-0.422-0.722-0.81-0.685
		l-3.525,0.297l2.83-3.972c0.241-0.338,0.162-0.806-0.175-1.046c-0.34-0.242-0.807-0.162-1.046,0.175l-2.521,3.539
		c-0.414-0.969-0.971-2.609-1.463-4.242l5.271-0.42c0.413-0.033,0.721-0.395,0.688-0.808c-0.033-0.413-0.402-0.708-0.808-0.688
		l-5.662,0.451c-0.149-0.171-0.367-0.275-0.616-0.254c-0.239,0.019-0.439,0.156-0.562,0.348l-2.986,0.237
		c-0.165-0.167-0.341-0.288-0.544-0.348c-0.382-0.113-0.782-0.005-1.1,0.295c-0.059,0.056-0.115,0.129-0.171,0.197l-22.553,1.796
		c-0.005-0.002-0.011-0.007-0.017-0.009c-0.255-0.086-0.519-0.067-0.745,0.05c-0.011,0.006-0.021,0.016-0.032,0.021l-16.751,1.334
		c-0.413,0.033-0.721,0.395-0.688,0.808c0.031,0.393,0.36,0.69,0.747,0.69c0.021,0,0.04-0.001,0.061-0.002l2.32-0.185
		c-0.251,1.102-1.368,3.817-2.444,6.1C79.217,215.51,79.219,215.533,79.211,215.556z M120.194,206.321l0.178-0.014
		c0.334,0.808,0.711,2.292,0.938,3.193c0.275,1.093,0.481,1.881,0.689,2.441l-3.679,0.31c0.19-0.542,0.397-1.261,0.665-2.223
		C119.315,208.848,119.776,207.205,120.194,206.321z M104.744,213.396l-3.573,0.302c0.006-0.161,0.006-0.344,0.005-0.553
		c-0.008-2.288,0.219-4.67,1.958-4.98c0.512-0.089,0.744,0.048,0.875,0.16c0.791,0.674,0.754,2.942,0.734,4.161
		C104.736,212.859,104.732,213.153,104.744,213.396z M115.44,210.758c0.188,0.712,0.339,1.259,0.489,1.695l-2.879,0.243
		c0.222-0.541,0.372-1.321,0.566-2.364c0.153-0.825,0.423-2.269,0.701-2.82C114.729,208.063,115.2,209.85,115.44,210.758z
		 M112.143,210.057c-0.083,0.443-0.189,1.017-0.298,1.472c-0.723-1.195-1.605-3.286-2.037-4.38l3.165-0.252
		C112.595,207.671,112.375,208.809,112.143,210.057z M110.942,212.874l-3.999,0.337c0.452-0.784,1.089-2.054,2.026-4.155
		C109.507,210.312,110.271,211.956,110.942,212.874z M106.248,211.309c-0.023-1.345-0.189-2.859-0.957-3.801l2.819-0.224
		C107.492,208.694,106.809,210.177,106.248,211.309z M99.739,211.247c-0.696-1.438-1.217-2.45-1.653-3.165l2.791-0.223
		C100.135,208.785,99.847,210.085,99.739,211.247z M99.345,213.851l-5.672,0.479c0.315-0.57,0.709-1.434,1.293-2.725
		c0.479-1.061,1.156-2.561,1.529-3.23c0.594,0.82,1.587,2.886,2.105,3.965C98.939,213.044,99.171,213.52,99.345,213.851z
		 M93.599,210.987c-0.203,0.449-0.436,0.964-0.658,1.439c-0.212-1.362-0.54-2.897-1.226-3.838l3.125-0.249
		C94.521,208.969,94.125,209.821,93.599,210.987z M90.096,209.205c0.006,0,0.013-0.001,0.02-0.001c0.344,0,0.979,0.625,1.507,4.624
		c0.036,0.271,0.066,0.492,0.095,0.665l-4.494,0.379c0.21-0.419,0.438-0.985,0.742-1.766
		C88.376,212.052,89.471,209.249,90.096,209.205z M80.923,215.403c0.848-1.833,1.402-3.181,1.754-4.175
		c0.68,1.359,1.557,2.92,2.261,3.836L80.923,215.403z M124.322,211.746c0.224-0.675,0.468-1.716,0.724-3.339
		c0.421,1.248,0.891,2.468,1.312,3.168L124.322,211.746z M123.117,210.493c-0.123-0.444-0.246-0.935-0.354-1.358
		c-0.317-1.258-0.578-2.219-0.84-2.951l1.937-0.153C123.644,207.687,123.371,209.368,123.117,210.493z M117.541,209.626
		c-0.134,0.479-0.29,1.04-0.44,1.532c-0.071-0.256-0.142-0.525-0.21-0.783c-0.381-1.439-0.753-2.841-1.325-3.685l2.949-0.235
		C118.204,207.288,117.896,208.354,117.541,209.626z M88.333,208.858c-0.68,0.941-1.229,2.33-1.766,3.703
		c-0.18,0.461-0.401,1.028-0.588,1.439c-0.74-1.082-2.031-3.522-2.604-4.748L88.333,208.858z"/>
	<path fill="#4CC9C3" d="M37.313,190.084c1.795,0,3.898-0.054,6.304-0.162c0.414-0.019,0.734-0.369,0.716-0.782
		c-0.019-0.414-0.404-0.749-0.782-0.716c-8.415,0.375-12.27-0.019-12.752-0.323c-1.817-2.466-4.777-33.997-1.285-37.054
		c3.298-2.885,26.969-4.183,34.988-2.484c2.082,0.441,2.316,0.9,2.317,0.9c1.225,3.754,4.093,31.448,2.895,34.855
		c-0.648,0.98-8.031,2.562-22.71,3.714c-0.413,0.033-0.722,0.394-0.689,0.807c0.033,0.413,0.399,0.713,0.807,0.689
		c15.246-1.198,23.318-2.772,23.993-4.682c1.439-4.078-1.672-32.182-2.869-35.849c-0.241-0.741-1.057-1.279-2.564-1.693
		c-7.768-2.137-33.2-0.846-37.155,2.613c-4.274,3.741-1.049,36.563,1.121,39.143C30.219,189.742,32.79,190.084,37.313,190.084z"/>
	<path fill="#4CC9C3" d="M77.125,164.267c0.023,0,0.048-0.001,0.072-0.003c0.598-0.058,59.938-5.706,74.172-6.123
		c0.413-0.013,0.739-0.358,0.728-0.772c-0.014-0.413-0.333-0.756-0.772-0.728c-14.282,0.419-73.671,6.072-74.27,6.129
		c-0.412,0.04-0.715,0.406-0.676,0.818C76.416,163.976,76.743,164.267,77.125,164.267z"/>
	<path fill="#4CC9C3" d="M153.042,167.68c-34.916,3.743-58.701,5.056-68.858,5.617c-5.337,0.294-6.219,0.353-6.575,0.499
		c-0.384,0.157-0.593,0.605-0.436,0.988c0.12,0.292,0.388,0.473,0.678,0.473c0.09,0,0.184-0.018,0.274-0.056
		c0.36-0.088,2.785-0.222,6.142-0.407c10.168-0.562,33.98-1.876,68.936-5.622c0.412-0.045,0.71-0.414,0.666-0.826
		C153.823,167.934,153.46,167.637,153.042,167.68z"/>
	<path fill="#4CC9C3" d="M154.123,176.837c-10.903,2.568-75.318,5.937-75.968,5.971c-0.413,0.021-0.731,0.374-0.71,0.788
		c0.021,0.4,0.352,0.711,0.748,0.711c0.014,0,0.026,0,0.04-0.001c2.657-0.138,65.2-3.409,76.233-6.008
		c0.403-0.096,0.653-0.499,0.559-0.902C154.93,176.991,154.522,176.749,154.123,176.837z"/>
	<path fill="#4CC9C3" d="M80.087,155.913c0.133,0,0.269-0.031,0.398-0.097c0.037-0.019,0.08-0.049,0.124-0.081l31.907-2.624
		c0.123,0.064,0.252,0.103,0.371,0.103c0.001,0,0.001,0,0.001,0c0.211,0,0.372-0.056,0.514-0.176l22.766-1.872
		c0.413-0.033,0.72-0.396,0.686-0.809c-0.034-0.412-0.396-0.725-0.809-0.686l-1.083,0.089c0.491-0.713,0.863-1.826,1.115-2.802
		c0.104-0.401-0.139-0.811-0.539-0.914c-0.403-0.1-0.811,0.137-0.914,0.539c-0.171,0.665-0.471,1.517-0.723,2.041
		c-0.128-0.231-0.272-0.504-0.401-0.748c-0.79-1.492-1.532-2.805-2.341-3.541l4.254-0.333c0.413-0.032,0.722-0.394,0.689-0.807
		c-0.032-0.412-0.399-0.71-0.807-0.689l-60.317,4.719c-0.413,0.032-0.722,0.394-0.689,0.807c0.031,0.393,0.359,0.691,0.747,0.691
		c0.02,0,0.04-0.001,0.06-0.002l1.862-0.146c-0.606,1.48-1.349,4.407-1.688,5.803c-0.023,0.099-0.026,0.197-0.012,0.292
		l-0.263,0.021c-0.413,0.033-0.72,0.396-0.686,0.809c0.032,0.392,0.359,0.688,0.746,0.688c0.021,0,0.042-0.001,0.062-0.003
		l4.595-0.378C79.831,155.87,79.955,155.913,80.087,155.913z M119.216,150.222c-0.108-0.293-0.228-0.635-0.334-0.941
		c-0.593-1.708-1.099-3.052-1.688-3.853l4.701-0.367C121.625,146.158,120.102,149.055,119.216,150.222z M122.955,146.456
		c0.349,0.596,0.748,1.285,1.088,1.874c0.488,0.844,0.954,1.649,1.295,2.223l-4.846,0.398
		C121.348,149.79,122.373,147.935,122.955,146.456z M117.974,151.158l-3.847,0.316c0.1-0.318,0.206-0.673,0.335-1.108
		c0.341-1.149,1.014-3.42,1.484-4.127c0.497,0.591,1.201,2.617,1.52,3.533C117.676,150.377,117.833,150.819,117.974,151.158z
		 M113.023,149.94c-0.062,0.211-0.129,0.436-0.195,0.656c-0.729-1.502-1.893-3.672-2.857-4.604l4.612-0.36
		C114.092,146.484,113.632,147.887,113.023,149.94z M111.713,151.673l-5.358,0.44c0.571-0.562,1.39-1.849,2.926-4.688
		C109.971,148.356,111.108,150.398,111.713,151.673z M108.033,146.576c-1.226,2.271-1.94,3.44-2.356,4.019
		c-0.76-1.283-2.389-3.424-3.56-3.987l6.161-0.481C108.215,146.242,108.137,146.386,108.033,146.576z M104.879,152.235
		l-10.307,0.847c0.173-0.558,0.375-1.351,0.665-2.491c0.154-0.606,0.349-1.37,0.527-2.018c0.074,0.205,0.146,0.411,0.211,0.599
		c0.402,1.149,0.818,2.338,1.28,2.937c0.341,0.441,0.891,0.589,1.46,0.399c1.188-0.397,2.832-2.547,3.33-4.16
		c0.919,0.888,2.426,2.901,2.601,3.491C104.693,151.996,104.777,152.126,104.879,152.235z M100.694,147.504
		c-0.013,0.944-1.623,3.19-2.349,3.544c-0.297-0.494-0.658-1.525-0.954-2.371c-0.256-0.732-0.446-1.26-0.622-1.65l4.275-0.335
		C100.852,146.857,100.7,147.112,100.694,147.504z M93.784,150.221c-0.139,0.543-0.301,1.182-0.45,1.729
		c-0.445-0.678-0.987-1.477-1.412-2.094c-0.771-1.115-1.287-1.844-1.661-2.321l4.352-0.341
		C94.416,147.779,94.17,148.702,93.784,150.221z M92.399,153.261l-3.879,0.319c0.542-1.208,0.928-2.977,1.151-4.314
		C90.543,150.478,91.768,152.282,92.399,153.261z M87.043,153.272c-0.596-0.863-1.467-3.263-1.781-4.126
		c-0.194-0.535-0.335-0.919-0.476-1.183l3.619-0.283C88.32,148.693,87.636,152.177,87.043,153.272z M85.623,153.818l-3.698,0.304
		c0.753-1.113,1.597-2.573,2.181-3.774C84.682,151.899,85.161,153.05,85.623,153.818z M132.939,149.928l-5.21,0.428
		c0.144-0.392,0.291-0.869,0.472-1.462c0.359-1.179,1.027-3.373,1.591-3.685c0.602,0.007,1.941,2.538,2.382,3.37
		C132.517,149.226,132.742,149.646,132.939,149.928z M126.767,148.457c-0.098,0.319-0.211,0.693-0.32,1.024
		c-0.317-0.541-0.715-1.228-1.104-1.901c-0.712-1.232-1.204-2.084-1.565-2.667l4.578-0.358
		C127.742,145.377,127.288,146.742,126.767,148.457z M83.372,148.074c-0.022,0.082-0.042,0.167-0.034,0.271
		c-0.09,0.677-1.889,3.883-2.954,5.404c-0.115-0.476-0.242-1.04-0.349-1.517c-0.452-2.012-0.737-3.155-1.003-3.818L83.372,148.074z
		 M77.993,150.11c0.204,0.785,0.421,1.748,0.578,2.45c0.179,0.796,0.311,1.366,0.421,1.803l-2.218,0.183
		C77.158,152.982,77.624,151.271,77.993,150.11z"/>
	<path fill="#4CC9C3" d="M186.884,265.877c-0.801-10.987-1.492-11.208-2.101-11.403c-1.497-0.485-3.269,0.453-3.578,0.627
		c-0.838-9.371-1.309-14.788-1.444-17.978c-0.188-4.391-3.174-47.518-5.654-80.819c2.595-0.131,4.022-0.664,4.219-1.596
		c0.079-0.371-3.055-49.755-3.921-50.757c-0.204-0.233-0.626-0.709-4.554-0.479c-0.366-6.365-0.776-14.304-1.184-22.557l0.14-0.008
		c1.843-0.086,3.663-0.273,3.927-1.518c0.039-0.183-1.143-25.745-2.046-27.084c-0.113-0.169-0.312-0.303-0.513-0.338
		c-0.333-0.059-1.579,0.032-2.875,0.152c-0.138-2.985-0.266-5.766-0.38-8.251c-0.368-7.993-0.634-13.769-0.698-14.693
		c-0.204-2.938-2.84-28.707-31.962-29.126C131.937,0.017,129.572,0,127.175,0C92.74,0,54.593,3.364,27.618,8.781
		C17.478,10.815-1.328,19.964,0.074,40.021c0.17,2.558,17.056,255.864,17.837,267.042c0.615,8.788,2.055,29.37,32.819,32.86
		c5.225,0.593,11.681,0.894,19.19,0.894c0.002,0,0,0,0.002,0c28.291,0,64.983-4.239,74.733-6.455l2.124-0.48
		c22.594-5.104,40.439-9.135,37.623-42.314c-0.415-4.895-0.804-9.403-1.166-13.551c0.391,0.017,0.758,0.027,1.078,0.027
		c2.979,0,3.068-0.678,3.124-1.107C187.498,276.478,187.246,270.839,186.884,265.877z M173.183,104.99
		c0.576,4.257,3.709,46.292,3.679,49.306c-0.375,0.221-1.633,0.445-2.866,0.513c-1.473-19.718-2.748-35.668-3.119-37.477
		c-0.215-1.051-0.549-5.716-0.938-12.362C171.216,104.901,172.594,104.896,173.183,104.99z M169.476,53.452
		c0.562,3.45,1.853,23.917,1.795,25.562c-0.202,0.144-0.818,0.315-2.534,0.396l-0.143,0.008c-0.434-8.839-0.861-17.946-1.225-25.796
		C168.235,53.54,169.007,53.477,169.476,53.452z M146.45,332.418l-2.126,0.481c-9.694,2.204-46.214,6.418-74.403,6.418
		c-7.453,0-13.853-0.298-19.021-0.884c-29.525-3.35-30.854-22.346-31.493-31.476C18.626,295.783,1.741,42.479,1.57,39.919
		c-1.33-19.02,16.65-27.723,26.343-29.667C54.798,4.854,92.833,1.5,127.175,1.5c2.39,0,4.747,0.017,7.063,0.05
		c27.782,0.399,30.292,24.934,30.487,27.73c0.063,0.907,0.328,6.675,0.695,14.658c0.118,2.567,0.247,5.369,0.384,8.328
		c-0.252,0.026-0.492,0.052-0.71,0.075c-0.411,0.045-0.709,0.415-0.665,0.827c0.045,0.412,0.422,0.709,0.827,0.665
		c0.203-0.022,0.41-0.044,0.617-0.065c1.164,25.145,2.856,60.564,3.533,63.864c0.996,4.856,8.553,112.482,8.855,119.555
		c0.151,3.562,0.711,9.811,1.727,21.153c0.722,8.064,1.711,19.108,2.92,33.354C185.614,323.571,169.187,327.282,146.45,332.418z
		 M183.106,276.509c-0.635-7.259-1.18-13.346-1.623-18.302c-0.053-0.588-0.104-1.153-0.153-1.714
		c0.188,0.055,0.396,0.037,0.58-0.068c0.349-0.199,1.444-0.693,2.229-0.567c0.907,2.054,1.811,17.772,1.818,20.569
		C185.438,276.525,184.274,276.562,183.106,276.509z"/>
	<path fill="#4CC9C3" d="M117.094,309.854c-0.159,0-0.31,0.007-0.449,0.02c-1.573,0.148-25.066,2.227-30.316,2.394
		c-1.548,0.05-4.13,0.727-4.034,4.698c0.004,0.178,0,0.394-0.005,0.649c-0.014,0.767-0.034,1.925,0.121,3.523
		c0.294,3.012,3.066,4.085,5.563,4.085l0.202-0.004c0.657-0.037,3.683-0.23,7.54-0.476c7.855-0.5,19.727-1.256,20.987-1.295
		c2.079-0.063,5.277-1.179,5.57-3.989c0.114-1.104-0.188-4.211-0.322-5.496C121.65,311.125,119.295,309.854,117.094,309.854z
		 M120.781,319.306c-0.215,2.062-3.122,2.613-4.124,2.644c-1.285,0.04-12.701,0.768-21.037,1.298
		c-3.852,0.245-6.873,0.438-7.522,0.475l-0.124,0.002c-0.893,0-3.823-0.197-4.071-2.73c-0.146-1.513-0.127-2.575-0.113-3.351
		c0.005-0.281,0.009-0.517,0.005-0.713c-0.051-2.099,0.77-3.104,2.582-3.162c5.283-0.168,28.832-2.252,30.409-2.399
		c0.096-0.01,0.199-0.014,0.309-0.014c0.513,0,3.087,0.133,3.365,2.767C120.722,316.622,120.849,318.657,120.781,319.306z"/>
	<path fill="#4CC9C3" d="M22.158,218.8c0.019,0,0.036-0.001,0.055-0.002c0.413-0.029,0.724-0.389,0.694-0.802
		c-1.07-14.987-1.951-29.066-2.425-36.63c-0.17-2.723-0.289-4.621-0.347-5.446c-0.062-0.881-0.254-3.5-0.541-7.408
		c-5.423-73.849-7.999-113.157-7.663-116.9c2.569-1.095,23.776-2.255,37.919-3.029c6.376-0.349,11.881-0.65,15.601-0.918
		c9.734-0.701,21.962-1.682,33.786-2.629c24.269-1.944,51.674-4.14,55.196-3.688c0.272,1.543,1.062,8.975,3.349,38.376
		c0.033,0.413,0.379,0.712,0.807,0.689c0.412-0.032,0.722-0.394,0.689-0.807c-3.011-38.704-3.362-39.054-3.702-39.392
		c-0.922-0.914-10.948-0.324-56.458,3.325c-11.822,0.947-24.047,1.928-33.774,2.628c-3.707,0.267-9.206,0.568-15.575,0.917
		c-30.695,1.68-38.38,2.405-39.157,3.699c-0.363,0.604-1.038,1.728,7.487,117.838c0.287,3.905,0.479,6.522,0.541,7.403
		c0.058,0.822,0.176,2.718,0.346,5.435c0.474,7.565,1.354,21.649,2.426,36.644C21.439,218.498,21.769,218.8,22.158,218.8z"/>
	<path fill="#4CC9C3" d="M172.36,261.731c-0.434-7.871-6.855-100.705-12.55-174.936c-0.031-0.413-0.396-0.71-0.806-0.69
		c-0.413,0.032-0.722,0.393-0.69,0.806c5.694,74.222,12.115,167.035,12.548,174.902c0.122,2.215,0.338,5.608,0.582,9.423
		c0.572,8.963,1.422,22.265,1.282,24.654c-7.787,1.285-133.415,10.272-143.551,10.272c-0.016,0-0.031,0-0.047,0
		c-0.254-1.644-0.561-7.548-0.835-12.817c-0.33-6.364-0.705-13.578-1.152-17.699c-0.513-4.721-2.962-39.326-4-54.388
		c-0.028-0.413-0.393-0.721-0.8-0.696c-0.413,0.028-0.725,0.387-0.696,0.8c1.039,15.07,3.49,49.704,4.005,54.446
		c0.443,4.079,0.816,11.271,1.146,17.615c0.686,13.196,0.804,13.685,1.315,14.065c0.041,0.03,0.101,0.074,0.893,0.074
		c2.849,0,15.168-0.569,70.168-4.391c16.547-1.149,70.804-4.973,74.248-5.896c0.135-0.036,0.493-0.132,0.65-0.494
		c0.348-0.802,0.104-6.313-1.129-25.641C172.698,267.332,172.481,263.943,172.36,261.731z"/>
	<path fill="#4CC9C3" d="M62.232,24.586c0.492,0,0.949-0.047,1.312-0.084c0.185-0.019,0.358-0.037,0.516-0.048
		c0.322-0.022,34.721-2.554,35.3-2.625c0.189-0.022,0.387-0.041,0.589-0.061c1.729-0.163,4.622-0.438,4.369-4.354
		c-0.208-3.236-4.129-3.019-6.239-2.9c-0.264,0.015-0.507,0.028-0.72,0.034c-1.206,0.035-30.16,2.229-31.393,2.321
		c-0.413,0.031-0.723,0.392-0.691,0.805c0.032,0.414,0.396,0.713,0.805,0.691c10.424-0.79,30.386-2.29,31.322-2.317
		c0.226-0.007,0.482-0.021,0.761-0.037c2.876-0.16,4.563,0.033,4.659,1.5c0.151,2.349-0.988,2.572-3.015,2.764
		c-0.215,0.021-0.426,0.041-0.623,0.064c-0.647,0.069-33.003,2.463-35.228,2.618c-0.173,0.012-0.362,0.031-0.564,0.052
		c-1.893,0.194-3.257,0.174-3.556-1.83c-0.099-0.66,0.017-1.153,0.354-1.507c0.775-0.814,2.576-0.829,3.205-0.766
		c0.41,0.051,0.779-0.259,0.821-0.67c0.042-0.412-0.256-0.779-0.668-0.822c-0.305-0.031-3.02-0.266-4.441,1.22
		c-0.461,0.482-0.966,1.354-0.756,2.766C58.758,24.118,60.673,24.586,62.232,24.586z"/>
	<path fill="#4CC9C3" d="M111.302,21.64c0.006,0,0.103,0.001,0.108,0.001h0.001c2.511,0,4.101-2.055,4.372-4.084
		c0.154-1.145-0.123-2.188-0.779-2.938c-0.552-0.632-1.724-1.396-3.854-1.126l-0.127,0.016c-1.086,0.134-3.345,0.412-3.774,3.617
		c-0.183,1.362,0.063,2.45,0.731,3.231C108.678,21.173,109.796,21.604,111.302,21.64z M108.734,17.324
		c0.276-2.057,1.393-2.194,2.472-2.327l0.133-0.017c0.241-0.03,0.468-0.046,0.682-0.046c0.841,0,1.465,0.226,1.854,0.671
		c0.368,0.42,0.519,1.042,0.423,1.751c-0.129,0.963-0.898,2.784-2.887,2.784v0.75l-0.073-0.751
		c-1.062-0.024-1.808-0.279-2.217-0.758C108.741,18.938,108.611,18.246,108.734,17.324z"/>
	<path fill="#4CC9C3" d="M49.8,25.035c0.655,0.277,1.298,0.418,1.91,0.418c1.406,0,2.529-0.748,3.163-2.108
		c0.514-1.103,0.604-2.209,0.255-3.116c-0.277-0.719-0.825-1.28-1.543-1.583c-0.629-0.265-1.25-0.398-1.848-0.398
		c-1.461,0-2.634,0.823-3.337,2.404C48.017,21.896,47.88,24.221,49.8,25.035z M49.802,21.178c0.433-0.963,1.065-1.431,1.936-1.431
		c0.391,0,0.828,0.097,1.266,0.281c0.349,0.146,0.593,0.396,0.726,0.74c0.201,0.522,0.125,1.213-0.215,1.943
		c-0.39,0.835-0.979,1.242-1.804,1.241c-0.404,0-0.862-0.104-1.324-0.299C49.242,23.17,49.81,21.178,49.802,21.178L49.802,21.178z"
		/>
	<path fill="#4CC9C3" d="M40.979,25.643c0.417,0.212,0.938,0.324,1.508,0.324c1.188,0,2.804-0.522,3.454-1.995
		c0.591-1.343,0.413-2.382,0.16-3.019c-0.313-0.786-0.92-1.401-1.709-1.733c-0.428-0.18-0.938-0.275-1.476-0.275
		c-1.512,0-3.343,0.748-3.794,2.393C38.593,23.274,39.655,24.97,40.979,25.643z M40.569,21.732c0.221-0.806,1.366-1.288,2.347-1.288
		c0.339,0,0.648,0.055,0.894,0.158c0.416,0.175,0.734,0.496,0.897,0.905c0.211,0.53,0.163,1.173-0.14,1.858
		c-0.473,1.071-2.212,1.296-2.909,0.938C40.9,23.92,40.236,22.95,40.569,21.732z"/>
	<path fill="#4CC9C3" d="M158.609,81.298c-0.412,0.043-0.712,0.411-0.669,0.823l0.256,2.472c0.04,0.386,0.365,0.673,0.745,0.673
		c0.025,0,0.052-0.001,0.078-0.004c0.412-0.043,0.712-0.411,0.669-0.823l-0.256-2.472C159.39,81.556,159.03,81.253,158.609,81.298z"
		/>
</g>
</svg>
