<?xml version="1.0" encoding="utf-8"?>
<!-- Generator: Adobe Illustrator 15.0.2, SVG Export Plug-In . SVG Version: 6.00 Build 0)  -->
<!DOCTYPE svg PUBLIC "-//W3C//DTD SVG 1.1//EN" "http://www.w3.org/Graphics/SVG/1.1/DTD/svg11.dtd">
<svg version="1.1" id="Layer_1" xmlns="http://www.w3.org/2000/svg" xmlns:xlink="http://www.w3.org/1999/xlink" x="0px" y="0px"
	 width="290.317px" height="340.567px" viewBox="0 0 290.317 340.567" enable-background="new 0 0 290.317 340.567"
	 xml:space="preserve">
<g>
	<g>
		<path fill="#D9D9D9" d="M119.153,164.494c4.952-62.911,10.936-116.104,11.883-124.407c9.588,0.994,32.668,3.245,68.378,5.877
			c34.234,2.522,62.776,4.999,76.473,6.226c-1.145,9.927-5.548,49.663-10.819,117.053c-6.143,78.547-13.39,138.481-13.39,138.481
			l10.716,0.858c0,0,5.689-67.666,10.726-131.661c5.394-68.531,12.013-125.539,12.013-125.539l-0.372-0.069l1.034-12.555
			c0,0-6.754-0.154-17.378-0.528l0.821-6.656c8.57,1.191,19.342,2.969,19.342,2.969l1.737-12.465c0,0-8.767-1.331-17.386-2.42
			l1.106-8.966c0,0-19.927-4.343-60.516-7.258c-40.59-2.916-72.979-1.831-72.979-1.831l-0.872,9.02
			c-4.394-0.682-9.488-1.556-9.488-1.556l-0.883,9.571c-4.71-0.065-7.292-0.055-7.292-0.055l-1.22,12.608
			c0,0,2.269,0.094,6.225,0.284l-0.857,6.548l-3.944-0.733c0,0-4.965,40.981-11.11,119.526
			c-6.142,78.544-13.388,138.48-13.388,138.48l10.716,0.857C108.429,296.154,114.117,228.488,119.153,164.494z M162.138,14.116
			c12.816,0.406,29.436,1.105,45.552,2.284c12.213,0.893,23.716,1.912,33.549,2.864l-0.666,6.876
			c-11.611-1.475-26.909-3.096-46.233-4.524c-12.141-0.898-23.22-1.529-32.865-1.976L162.138,14.116z"/>
		<path fill="#D9D9D9" d="M255.58,324.569l2.038-14.905c0,0-25.22-2.867-73.459-6.42c-48.239-3.556-85.209-7.021-85.209-7.021
			l-1.171,14.226c0,0,2.043,0.095,5.645,0.274l-0.289,7.777c0,0,4.51,0.361,10.522,0.799l-1.476,12.02
			c0,0,21.064,4.106,68.716,7.585c39.062,2.853,70.424,1.173,70.424,1.173l1.205-12.609c0,0-3.365-0.004-8.963-0.081l0.446-4.667
			C251.327,323.822,255.58,324.569,255.58,324.569z M197.84,324.318c0,0,7.846,1.23,15.722,2.259
			c-11.466-0.464-24.104-1.169-35.92-2.244c-7.289-0.663-14.379-1.344-21.024-2.004l0.711-8.502
			c7.048,0.463,14.284,0.965,21.44,1.499c6.928,0.518,13.646,1.116,20.054,1.754L197.84,324.318z"/>
	</g>
	<g>
		<path fill="#0066A1" stroke="#0066A1" stroke-width="0.3" stroke-linejoin="round" stroke-miterlimit="10" d="M7.546,38.871
			c2.068,8.093,5.137,15.289,5.643,15.178c1.268-0.8,3.326-13.857,3.523-14.587c0.128-0.713,1.111-0.61,0.994,0.208
			c-1.045,5.014-2.459,15.516-4.523,15.58c-1.829,0.177-5.999-13.063-6.068-14.514C6.81,43.036,5.389,51.104,4.923,53.719
			c-0.178,0.747-1.207,0.503-0.937-0.29c0.982-5.638,2.331-13.91,2.572-14.554C6.651,38.277,7.312,38.248,7.546,38.871z"/>
		<path fill="#0066A1" stroke="#0066A1" stroke-width="0.3" stroke-linejoin="round" stroke-miterlimit="10" d="M24.249,55.151
			c-0.458,0.412-1.645,1.534-3.844,1.299c-2.791-0.286-3.643-2.927-2.654-5.809c1.236-3.535,3.813-4.575,5.844-4.261
			c1.057,0.143,1.625,0.618,2.02,1.161c0.166-0.797,1.188-0.538,1.035,0.078c-0.15,0.84-1.409,5.313-1.518,7.021
			c-0.018,0.462,0.358,1.2,0.84,1.397c0.591,0.259,0.325,1.115-0.356,0.842C24.795,56.571,24.237,55.499,24.249,55.151z
			 M20.442,55.627c1.51,0.179,2.718-0.51,3.446-1.567c0.497-0.723,1.309-4.144,1.385-5.21c0.039-0.568-0.82-1.594-2.163-1.635
			c-1.541-0.129-3.646,1.125-4.486,3.732C17.878,53.15,18.393,55.347,20.442,55.627z"/>
		<path fill="#0066A1" stroke="#0066A1" stroke-width="0.3" stroke-linejoin="round" stroke-miterlimit="10" d="M40.793,48.963
			c0.282-0.439,0.974-0.175,0.887,0.34c-0.038,0.217-1.17,5.395-1.721,9.673c-0.077,0.614-1.003,0.513-0.918-0.135
			c0.366-2.79,1.004-6.015,1.394-7.992c-0.886,0.883-2.406,1.19-3.381,1.091c-2.024,4.422-3.801,6.456-5.484,6.196
			c-0.544-0.085-3.259-1.041-2.621-10.878c0.043-0.661,0.997-0.582,0.926,0.076c-0.491,4.536,0.334,9.652,1.872,9.907
			c0.547,0.091,2.009-0.347,4.418-5.59c-0.634-0.36-1.088-1.019-1.262-1.867c-0.344-1.681,0.647-2.592,1.819-2.368
			c1.452,0.277,1.578,1.656,0.729,3.625C38.271,50.999,39.759,50.569,40.793,48.963z M36.527,48.299
			c-1.133-0.197-0.937,1.979,0.011,2.512c0.748-1.72,0.596-2.405,0.022-2.506L36.527,48.299z M41.565,47.282
			c-0.722-0.182-0.575-1.39,0.324-1.16C42.713,46.34,42.317,47.471,41.565,47.282z"/>
		<path fill="#0066A1" stroke="#0066A1" stroke-width="0.3" stroke-linejoin="round" stroke-miterlimit="10" d="M51.196,51.32
			c-0.245-0.174-0.452-0.149-0.501-0.142c-0.266,0.051-0.5,0.351-0.542,0.416l-0.026,0.038c0.154,0.417,0.259,0.89,0.308,1.41
			c0.25,2.334-1.051,17.344-6.479,16.754c-2.351-0.258-2.807-1.939-2.956-2.464c-0.219-0.766,0.667-0.943,0.846-0.287
			c0.138,0.419,0.499,1.75,2.159,1.902c1.691,0.158,2.956-1.968,3.806-4.344c0.986-2.754,1.346-5.962,1.346-5.962
			s-0.988,2.734-4.25,2.146c-3.017-0.551-2.848-4.213-1.929-6.692c1.198-3.238,3.049-4.576,5.064-4.354
			c0.632,0.07,1.171,0.405,1.58,0.946c0.205-0.17,0.495-0.357,0.849-0.445c0.318-0.079,0.824-0.038,1.261,0.326
			C52.236,50.987,51.733,51.701,51.196,51.32z M47.982,50.65c-1.455-0.22-3.097,0.97-4.137,3.705
			c-0.832,2.333-0.919,5.271,1.353,5.616c2.595,0.369,3.829-2.404,4.139-4.378C49.727,53.152,49.394,50.864,47.982,50.65z"/>
		<path fill="#0066A1" stroke="#0066A1" stroke-width="0.3" stroke-linejoin="round" stroke-miterlimit="10" d="M59.101,60.545
			c-0.458,0.413-1.645,1.535-3.844,1.299c-2.791-0.285-3.643-2.927-2.654-5.807c1.236-3.536,3.813-4.576,5.844-4.261
			c1.057,0.142,1.625,0.618,2.02,1.161c0.166-0.797,1.189-0.539,1.035,0.077c-0.15,0.84-1.409,5.313-1.518,7.021
			c-0.019,0.462,0.358,1.2,0.84,1.398c0.591,0.258,0.325,1.115-0.356,0.842C59.647,61.966,59.089,60.893,59.101,60.545z
			 M55.294,61.022c1.51,0.179,2.719-0.51,3.447-1.568c0.497-0.724,1.309-4.145,1.385-5.21c0.039-0.567-0.82-1.592-2.163-1.635
			c-1.541-0.128-3.646,1.125-4.486,3.733C52.731,58.544,53.245,60.741,55.294,61.022z"/>
		<path fill="#0066A1" stroke="#0066A1" stroke-width="0.3" stroke-linejoin="round" stroke-miterlimit="10" d="M66.542,53.555
			l1.859,0.278c0.631,0.138,0.473,0.923-0.22,0.819l-1.85-0.287c-0.925,3.944-1.834,7.211-0.366,8.238
			c0.651,0.458,1.85,0.072,2.532-0.561c0.494-0.457,1.151,0.145,0.565,0.691c-0.81,0.753-2.552,1.413-3.845,0.404
			c-1.657-1.292-0.717-4.814,0.192-8.907l-1.715-0.265c-0.684-0.13-0.51-0.945,0.081-0.866l1.854,0.288
			c0.008-0.007,0.251-1.039,0.649-2.584c0.195-0.76,1.093-0.454,0.916,0.23L66.542,53.555z"/>
		<path fill="#0066A1" stroke="#0066A1" stroke-width="0.3" stroke-linejoin="round" stroke-miterlimit="10" d="M73.325,55.228
			c-0.403,1.397-1.342,6.241-1.449,8.349c-0.057,1.061-0.981,0.751-0.955,0.211c0.131-2.761,1.089-7.329,1.461-8.805
			C72.599,54.267,73.541,54.509,73.325,55.228z M73.706,51.525c0.824,0.218,0.471,1.416-0.332,1.221
			C72.569,52.557,72.806,51.294,73.706,51.525z"/>
		<path fill="#0066A1" stroke="#0066A1" stroke-width="0.3" stroke-linejoin="round" stroke-miterlimit="10" d="M80.969,54.519
			c4.033,2.275,1.6,11.699-3.32,10.958c-2.93-0.412-3.85-2.943-3.439-5.726c0.428-2.92,1.967-5.546,4.875-5.16
			c0.25,0.033,0.547,0.121,1.031,0.346c-0.091-0.263,0.168-0.604,0.529-0.55C80.724,54.398,80.833,54.443,80.969,54.519z
			 M80.083,56.023c-0.443-0.371-0.843-0.496-1.25-0.556c-2.285-0.336-3.569,2.732-3.756,4.562c-0.175,1.725,0.086,4.222,2.672,4.624
			c1.916,0.282,3.495-1.625,4.084-3.819c0.501-1.948,0.364-4.095-0.984-5.241C80.922,55.902,80.528,56.345,80.083,56.023z"/>
		<path fill="#0066A1" stroke="#0066A1" stroke-width="0.3" stroke-linejoin="round" stroke-miterlimit="10" d="M85.276,57.231
			c0.122-0.763,1.092-0.562,1.038-0.05c-0.021,0.197-0.104,0.543-0.104,0.543s1.009-1.473,3.287-1.227
			c1.164,0.126,2.31,0.708,2.905,1.872c0.837,1.638-0.074,5.928-0.604,8.575c-0.146,0.731-1.044,0.507-0.923-0.133
			c0.292-1.539,1.293-6.064,0.765-7.683c-0.359-1.107-1.39-1.658-2.04-1.764c-2.377-0.385-3.687,1.89-3.907,3.577l-0.76,4.909
			c-0.093,0.613-1.023,0.532-0.958-0.221L85.276,57.231z"/>
	</g>
	<g>
		<path fill="#0066A1" stroke="#0066A1" stroke-width="0.5" stroke-linejoin="round" stroke-miterlimit="10" d="M33.582,29.838
			c0,0-3.032,4.752-3.829,4.709c-0.968-0.05-3.932-4.863-3.931-4.909l-0.634,10.318c-0.024,0.564-0.728,0.542-0.713-0.029
			c0.146-2.611,0.556-10.094,0.663-11.261c0.042-0.492,0.465-0.752,0.801-0.253c0.287,0.497,3.279,5.252,3.81,5.247
			c0.3-0.01,2.714-3.475,3.662-4.903c0.284-0.349,0.732-0.351,0.838,0.216c0.087,1.114,0.057,10.505,0.063,11.074
			c-0.053,0.546-0.744,0.587-0.752-0.14c-0.007-0.668,0.051-10.063,0.051-10.063L33.582,29.838z"/>
		<path fill="#0066A1" stroke="#0066A1" stroke-width="0.5" stroke-linejoin="round" stroke-miterlimit="10" d="M41.178,39.232
			c-0.301,0.348-1.08,1.291-2.734,1.317c-2.099,0.046-2.975-1.837-2.505-4.067c0.592-2.74,2.41-3.749,3.947-3.702
			c0.797,0.01,1.263,0.311,1.606,0.676c0.05-0.607,0.833-0.51,0.775-0.038c-0.034,0.639-0.556,4.076-0.48,5.353
			c0.029,0.345,0.378,0.857,0.752,0.959c0.463,0.137,0.344,0.799-0.186,0.659C41.715,40.236,41.202,39.491,41.178,39.232z
			 M38.395,39.936c1.138-0.005,1.973-0.628,2.415-1.48c0.303-0.584,0.59-3.198,0.549-3.996c-0.023-0.425-0.757-1.107-1.757-1.014
			c-1.156,0.047-2.604,1.17-2.987,3.184C36.264,38.332,36.848,39.916,38.395,39.936z"/>
		<path fill="#0066A1" stroke="#0066A1" stroke-width="0.5" stroke-linejoin="round" stroke-miterlimit="10" d="M45.259,31.011
			c0.633,0.087,0.481,1.007-0.133,0.937C44.511,31.881,44.571,30.922,45.259,31.011z M45.318,33.794
			c-0.171,1.076-0.422,4.758-0.307,6.332c0.055,0.794-0.66,0.649-0.691,0.246c-0.156-2.062,0.134-5.542,0.274-6.672
			C44.691,33.147,45.412,33.24,45.318,33.794z"/>
		<path fill="#0066A1" stroke="#0066A1" stroke-width="0.5" stroke-linejoin="round" stroke-miterlimit="10" d="M47.286,33.966
			c0.021-0.576,0.759-0.516,0.766-0.133c0.003,0.149-0.029,0.414-0.029,0.414s0.615-1.188,2.328-1.214
			c0.875-0.013,1.781,0.312,2.33,1.124c0.773,1.138,0.491,4.407,0.343,6.422c-0.041,0.555-0.729,0.472-0.698-0.014
			c0.075-1.17,0.402-4.621-0.14-5.776c-0.369-0.786-1.185-1.102-1.676-1.121c-1.8-0.067-2.563,1.744-2.571,3.017L47.827,40.4
			c-0.012,0.464-0.711,0.489-0.731-0.077L47.286,33.966z"/>
	</g>
	<g>
		<path fill="#0066A1" stroke="#0066A1" stroke-width="0.4" stroke-linejoin="round" stroke-miterlimit="10" d="M6.746,114.912
			c2.199,0.715,5.42,3.225,4.774,9.92c-0.526,3.962-2.155,7.208-5.89,7.35c-3.718,0.122-5.286-3.486-5.421-6.775
			c-0.135-3.232,1.239-7.487,4.257-8.229c2.162-0.543,3.149,0.921,3.379,1.659c0.166,0.561-0.643,0.88-0.943,0.274
			c-0.449-0.949-1.579-1.571-3.042-0.64c-1.444,0.909-2.792,3.509-2.709,6.826c0.062,3.334,1.83,6.14,4.608,5.995
			c3.206-0.259,4.485-3.553,4.829-6.542c0.398-3.333-0.241-7.689-4.364-9.025C5.637,115.558,5.744,114.545,6.746,114.912z"/>
		<path fill="#0066A1" stroke="#0066A1" stroke-width="0.4" stroke-linejoin="round" stroke-miterlimit="10" d="M13.265,122.163
			c-0.035-0.75,0.847-0.668,0.876-0.146c0.21,3.759,1.503,8.952,3.087,8.985c1.033-0.049,2.295-2.848,2.991-5.538
			c-1.198-0.52-1.747-1.408-1.834-2.345c-0.051-0.546,0.102-1.331,0.879-1.627c1.152-0.438,2.174,0.203,2.135,1.915
			c-0.011,0.451-0.031,0.946-0.148,1.523c0.482,0.213,1.214,0.422,1.879,0.57c0.258-2.004,1.339-3.955,3.71-4.085
			c4.078-0.226,4.152,3.136,3.848,4.026c-0.348,1.02-3.425,1.619-6.741,1.088c0.129,2.971,1.221,4.55,3.363,4.538
			c1.231-0.008,2.168-0.417,2.926-1.043c0.557-0.463,1.075,0.3,0.474,0.781c-0.867,0.692-1.984,1.08-3.411,1.089
			c-2.667,0.016-4.088-1.787-4.244-5.531c-0.705-0.149-1.475-0.377-2.016-0.594c-0.772,2.814-2.107,6.074-3.797,6.105
			c-2.588,0.074-3.639-6.154-3.911-8.875L13.265,122.163z M19.237,123.032c0.037,0.7,0.492,1.265,1.2,1.563
			c0.083-0.385,0.15-0.815,0.143-1.158c-0.019-0.778-0.202-1.252-0.639-1.262C19.317,122.161,19.224,122.751,19.237,123.032z
			 M24.015,125.67c3.553,0.639,5.721-0.255,5.83-0.484c0.166-0.568,0.271-3.045-2.926-2.876
			C24.951,122.414,24.19,124.123,24.015,125.67z"/>
		<path fill="#0066A1" stroke="#0066A1" stroke-width="0.4" stroke-linejoin="round" stroke-miterlimit="10" d="M33.884,122.386
			c0.147-0.159,0.689-0.78,2.023-0.755c1.248,0.021,2.003,0.849,2.346,1.497c0.361,0.643-0.396,1.037-0.737,0.558
			c-0.385-0.482-0.66-1.206-1.858-1.159c-0.698,0.026-1.797,0.705-1.872,1.687c-0.066,0.889-0.088,5.607-0.137,7.142
			c-0.024,0.621-0.9,0.686-0.891-0.011c0.022-2.322,0.108-8.242,0.14-9.124c0.029-0.827,0.982-0.661,0.985-0.149L33.884,122.386z"/>
		<path fill="#0066A1" stroke="#0066A1" stroke-width="0.4" stroke-linejoin="round" stroke-miterlimit="10" d="M51.508,121.605
			c0.204-0.463,0.906-0.317,0.901,0.188c-0.001,0.214-0.29,5.339-0.157,9.512c0.02,0.599-0.88,0.646-0.899,0.014
			c-0.077-2.723,0.035-5.904,0.104-7.854c-0.711,0.98-2.118,1.507-3.064,1.563c-1.255,4.54-2.641,6.757-4.291,6.767
			c-0.532,0.003-3.276-0.493-4.177-9.996c-0.061-0.638,0.863-0.709,0.896-0.07c0.229,4.412,1.804,9.174,3.313,9.183
			c0.537,0.003,1.869-0.641,3.364-6.022c-0.662-0.247-1.198-0.806-1.494-1.592c-0.588-1.553,0.22-2.576,1.375-2.543
			c1.43,0.042,1.763,1.341,1.254,3.353C49.413,123.94,50.769,123.3,51.508,121.605z M47.329,121.627
			c-1.112-0.014-0.591,2.036,0.398,2.399c0.45-1.758,0.199-2.391-0.365-2.399L47.329,121.627z M51.989,119.88
			c-0.718-0.063-0.764-1.24,0.131-1.158C52.94,118.803,52.736,119.946,51.989,119.88z"/>
		<path fill="#0066A1" stroke="#0066A1" stroke-width="0.4" stroke-linejoin="round" stroke-miterlimit="10" d="M58.541,131.768
			c-3.137,0.018-4.491-2.119-4.487-4.62c-0.016-2.721,1.464-5.22,4.449-5.463c3.198-0.26,4.185,2.1,3.765,3.47
			c-0.265,0.706-1.331,1.02-2.624,1.328c-2.162,0.512-4.727,0.766-4.735,0.766c-0.021,2.631,1.815,3.73,3.641,3.7
			c1.899-0.033,2.647-1.09,3.015-1.605c0.383-0.537,1.03-0.078,0.746,0.392C61.909,130.397,60.938,131.754,58.541,131.768z
			 M54.979,126.376c0.597-0.048,6.301-0.716,6.479-1.658c0.138-1.308-1.028-2.241-2.692-2.193
			C56.886,122.577,55.252,123.952,54.979,126.376z"/>
		<path fill="#0066A1" stroke="#0066A1" stroke-width="0.4" stroke-linejoin="round" stroke-miterlimit="10" d="M69.954,124.703
			c-0.001-0.008-1.572,7.066-3.447,6.997c-2.132-0.067-2.72-8.83-2.681-9.625c-0.014-0.713,0.919-0.641,0.911,0.006
			c0.004,0.406,0.128,2.605,0.449,4.486c0.33,1.927,0.863,4.067,1.336,4.179c0.417,0.093,1.333-2.014,1.935-3.917
			c0.562-1.785,0.905-3.689,1.017-4.001c0.169-0.619,0.831-0.604,1.012-0.033c0.118,0.316,0.347,2.016,0.782,3.686
			c0.519,1.989,1.262,4.302,1.785,4.195c0.548-0.123,1.274-2.165,1.77-4.021c0.575-2.15,0.942-4.451,1.004-5.147
			c0.063-0.764,1.021-0.53,0.95,0.014c-0.214,1.706-1.583,10.093-3.806,10.146C71.208,131.719,69.954,124.703,69.954,124.703z"/>
	</g>
	<g>
		<path fill="#0066A1" stroke="#0066A1" stroke-width="0.5" stroke-linejoin="round" stroke-miterlimit="10" d="M31.201,250.757
			c-2.415-0.14-3.242-1.217-3.454-1.473c-0.352-0.422,0.137-0.902,0.536-0.457c0.209,0.233,1.09,1.21,3.067,1.274
			c1.805,0.06,3.144-0.723,3.214-2.379c0.063-1.482-1.457-2.123-3.022-2.752c-1.606-0.646-3.223-1.265-3.257-2.966
			c-0.024-1.265,1.006-2.931,3.464-3.03c1.968-0.078,2.938,0.739,3.304,1.036c0.361,0.292-0.04,0.881-0.478,0.525
			c-0.381-0.308-1.26-0.932-2.812-0.867c-1.955,0.079-2.802,1.391-2.781,2.274c0.03,1.255,1.338,1.76,2.813,2.382
			c1.615,0.684,3.516,1.333,3.441,3.412C35.163,249.747,33.623,250.895,31.201,250.757z"/>
		<path fill="#0066A1" stroke="#0066A1" stroke-width="0.5" stroke-linejoin="round" stroke-miterlimit="10" d="M39.467,251.204
			c-2.39-0.153-3.306-1.852-3.17-3.754c0.132-2.072,1.392-3.896,3.676-3.921c2.447-0.028,3.074,1.821,2.68,2.84
			c-0.239,0.523-1.067,0.706-2.066,0.871c-1.672,0.276-3.637,0.333-3.644,0.332c-0.155,2.001,1.185,2.936,2.574,3.009
			c1.448,0.076,2.073-0.689,2.38-1.061c0.321-0.389,0.789-0.006,0.546,0.338C42.102,250.339,41.29,251.32,39.467,251.204z
			 M37.043,246.911c0.455-0.004,4.832-0.209,5.017-0.917c0.175-0.989-0.663-1.76-1.931-1.813
			C38.694,244.122,37.379,245.083,37.043,246.911z"/>
		<path fill="#0066A1" stroke="#0066A1" stroke-width="0.5" stroke-linejoin="round" stroke-miterlimit="10" d="M54.885,251.18
			c-0.368,0.718-1.056,1.03-1.747,0.971c-2.53-0.207-1.866-4.141-1.501-5.991c-0.583-0.066-0.91-0.138-1.152-0.217
			c-0.554-0.152-0.461-0.879,0.196-0.679c0.005,0.001,0.425,0.154,1.107,0.199c0.382-1.326,0.66-2.286,0.274-2.918
			c-0.559-0.91-2.762-0.828-3.293,0.231c-0.364,0.698-0.165,1.719,0.162,2.1c0.331,0.386-0.208,0.804-0.553,0.469
			c-0.479-0.461-1.424-0.76-2.235-0.462c-0.901,0.328-1.499,1.259-1.642,2.817c-0.312,4.216,3.418,3.208,3.742,3.018
			c0.571-0.268,0.828,0.359,0.365,0.609c-1.035,0.562-5.149,1.001-4.799-3.669c0.22-2.393,1.262-3.148,2.087-3.449
			c0.68-0.249,1.405-0.206,2.02,0.036c-0.122-0.579-0.08-1.237,0.219-1.803c0.797-1.509,3.569-1.617,4.512-0.311
			c0.745,1.031-0.067,2.969-0.12,3.342c0.358,0.001,0.882-0.049,1.418-0.202c0.441-0.125,0.684,0.481,0.18,0.645
			c-0.561,0.193-1.246,0.261-1.784,0.258c-0.536,2.617-0.64,5.197,0.84,5.331c0.725,0.066,0.987-0.456,1.092-0.657
			C54.532,250.355,55.153,250.653,54.885,251.18z"/>
		<path fill="#0066A1" stroke="#0066A1" stroke-width="0.5" stroke-linejoin="round" stroke-miterlimit="10" d="M57.668,242.714
			c0.62,0.106,0.44,1.009-0.165,0.92C56.9,243.548,56.992,242.604,57.668,242.714z M57.633,245.461
			c-0.204,1.056-0.575,4.681-0.513,6.238c0.029,0.785-0.67,0.617-0.689,0.219c-0.085-2.04,0.316-5.463,0.494-6.573
			C57.035,244.804,57.744,244.919,57.633,245.461z"/>
		<path fill="#0066A1" stroke="#0066A1" stroke-width="0.5" stroke-linejoin="round" stroke-miterlimit="10" d="M63.207,244.435
			c3.118,1.405,1.954,8.498-1.716,8.28c-2.182-0.108-3.026-1.909-2.908-3.984c0.122-2.176,1.08-4.21,3.242-4.119
			c0.189,0.009,0.413,0.054,0.782,0.187c-0.083-0.187,0.084-0.455,0.353-0.439C63.019,244.362,63.104,244.387,63.207,244.435z
			 M62.655,245.6c-0.351-0.243-0.653-0.309-0.955-0.326c-1.703-0.096-2.445,2.245-2.462,3.604c-0.014,1.279,0.344,3.101,2.272,3.225
			c1.429,0.081,2.465-1.426,2.752-3.079c0.238-1.467-0.003-3.036-1.07-3.79C63.265,245.455,63.004,245.807,62.655,245.6z"/>
		<path fill="#0066A1" stroke="#0066A1" stroke-width="0.5" stroke-linejoin="round" stroke-miterlimit="10" d="M66.554,246.143
			c0.04-0.569,0.765-0.483,0.76-0.104c-0.002,0.146-0.043,0.405-0.043,0.405s0.646-1.149,2.338-1.119
			c0.864,0.016,1.747,0.368,2.259,1.185c0.725,1.149,0.34,4.365,0.126,6.348c-0.06,0.547-0.735,0.442-0.688-0.036
			c0.112-1.152,0.549-4.546,0.054-5.703c-0.339-0.79-1.133-1.128-1.616-1.162c-1.774-0.126-2.587,1.634-2.637,2.891l-0.234,3.663
			c-0.028,0.456-0.716,0.458-0.718-0.1L66.554,246.143z"/>
		<path fill="#0066A1" stroke="#0066A1" stroke-width="0.5" stroke-linejoin="round" stroke-miterlimit="10" d="M73.9,252.123
			c0.403,0.397,0.988,0.769,1.949,0.814c1.079,0.052,2.01-0.449,2.067-1.38c0.081-1.31-1.235-1.548-2.156-1.857
			c-1.149-0.385-2.104-1.081-1.996-2.315c0.091-1.004,0.916-2.011,2.554-1.925c1.217,0.062,1.899,0.458,2.356,0.962
			c0.32,0.354-0.208,0.779-0.524,0.448c-0.325-0.343-0.792-0.719-1.888-0.761c-1.093-0.043-1.772,0.579-1.837,1.348
			c-0.07,0.812,0.683,1.311,1.404,1.572c1.137,0.413,2.86,0.707,2.736,2.575c-0.096,1.457-1.448,2.032-2.758,1.964
			c-1.193-0.061-1.994-0.561-2.368-0.962C73.105,252.249,73.584,251.807,73.9,252.123z"/>
	</g>
	<g>
		<path fill="#0066A1" stroke="#0066A1" stroke-width="0.3" stroke-linejoin="round" stroke-miterlimit="10" d="M42.468,225.804
			c0.786-2.734,1.322-5.836,1.631-8.35c0.112-0.921,0.792-1.068,1.215-0.447c0.503,0.738,2.09,5.087,3.43,8.569
			c0.327-0.019,0.676-0.061,1.003-0.079c0.659-0.066,0.802,0.868,0.166,0.941c-0.289,0.062-0.703,0.091-0.849,0.109
			c1.09,2.715,2.168,5.604,2.369,6.013c0.338,0.79-0.693,1.026-0.927,0.462c-0.156-0.34-1.8-4.68-2.491-6.399
			c-1.17,0.072-2.761,0.194-4.774,0.171c-0.301,1.019-1.417,4.655-2.342,6.843c-0.37,0.832-1.224,0.314-0.984-0.249
			c0.292-0.667,1.362-3.403,2.309-6.615c-0.299-0.002-0.665-0.023-0.966-0.049c-0.653-0.084-0.556-0.97,0.133-0.944L42.468,225.804z
			 M43.521,225.853c1.301,0.003,2.729-0.062,4.166-0.177c-0.791-2.259-1.843-5.055-2.746-7.22
			C44.741,220.197,44.422,222.128,43.521,225.853z"/>
		<path fill="#0066A1" stroke="#0066A1" stroke-width="0.3" stroke-linejoin="round" stroke-miterlimit="10" d="M55.331,240.845
			c0.03,0.764-0.937,0.778-0.975,0.146c-0.072-1.22-0.646-15.515-0.757-18.412c0,0-0.068-0.158-0.752,0.01
			c-0.728,0.179-0.92-0.766-0.126-0.928c1.918-0.388,1.825,0.542,1.825,0.542c0.044-0.004,6.946-2.488,7.189,4.799
			c0.207,6.164-5.258,5.329-6.783,5.07L55.331,240.845z M54.929,231.06c0,0,5.935,1.798,5.842-3.686
			c-0.118-6.811-6.128-4.194-6.128-4.194C54.691,225.323,54.921,231.044,54.929,231.06z"/>
		<path fill="#0066A1" stroke="#0066A1" stroke-width="0.3" stroke-linejoin="round" stroke-miterlimit="10" d="M65.747,240.222
			c0.03,0.764-0.937,0.777-0.975,0.145c-0.072-1.22-0.646-15.514-0.757-18.412c0,0-0.068-0.157-0.753,0.011
			c-0.727,0.179-0.92-0.767-0.125-0.928c1.917-0.389,1.822,0.542,1.822,0.542c0.046-0.004,6.948-2.488,7.19,4.799
			c0.207,6.162-5.257,5.33-6.782,5.07L65.747,240.222z M65.345,230.437c0,0,5.936,1.797,5.842-3.686
			c-0.117-6.812-6.13-4.195-6.13-4.195C65.107,224.699,65.337,230.421,65.345,230.437z"/>
	</g>
	<g>
		<path fill="#0066A1" stroke="#0066A1" stroke-width="0.5" stroke-linejoin="round" stroke-miterlimit="10" d="M25.159,147.845
			c-2.061-0.482-2.494-7.747-2.125-11.363c0.049-0.489,0.756-0.465,0.702,0.07c-0.471,4.62,0.405,10.346,1.58,10.622
			c0.438,0.035,1.674-1.885,2.628-3.558c-0.342-1.144-0.572-1.885-0.557-2.31c0.064-1.755,2.614-1.512,2.301,0.248
			c-0.086,0.482-0.462,1.126-1.004,2.122c0.556,1.889,1.465,3.998,1.949,4.049c0.563-0.101,3.136-4.106,4.047-10.089
			c0.081-0.53,0.771-0.362,0.697,0.108c-0.916,5.844-3.562,10.791-4.811,10.668c-0.86-0.093-1.718-1.983-2.353-3.848
			c-0.926,1.557-2.136,3.438-2.976,3.292L25.159,147.845z M28.072,141.366c-0.015,0.358,0.136,0.672,0.334,1.39
			c0.326-0.646,0.532-0.916,0.599-1.292c0.074-0.42-0.08-0.646-0.372-0.677C28.342,140.755,28.089,140.952,28.072,141.366z"/>
		<path fill="#0066A1" stroke="#0066A1" stroke-width="0.5" stroke-linejoin="round" stroke-miterlimit="10" d="M37.318,139.723
			c0.619,0.132,0.399,1.032-0.203,0.916C36.512,140.526,36.644,139.582,37.318,139.723z M37.165,142.48
			c-0.25,1.051-0.78,4.674-0.786,6.24c-0.004,0.79-0.7,0.592-0.702,0.19c0.004-2.051,0.554-5.472,0.78-6.577
			C36.593,141.792,37.299,141.939,37.165,142.48z"/>
		<path fill="#0066A1" stroke="#0066A1" stroke-width="0.5" stroke-linejoin="round" stroke-miterlimit="10" d="M40.981,142.429
			l1.389,0.142c0.473,0.082,0.383,0.668-0.135,0.615l-1.382-0.148c-0.548,2.957-1.11,5.409,0.013,6.121
			c0.501,0.316,1.375-0.011,1.859-0.503c0.352-0.355,0.858,0.067,0.442,0.493c-0.572,0.587-1.844,1.136-2.837,0.434
			c-1.273-0.901-0.697-3.545-0.166-6.611l-1.281-0.137c-0.511-0.073-0.41-0.682,0.03-0.644l1.384,0.147
			c0.006-0.004,0.151-0.778,0.393-1.939c0.117-0.568,0.794-0.373,0.687,0.14L40.981,142.429z"/>
		<path fill="#0066A1" stroke="#0066A1" stroke-width="0.5" stroke-linejoin="round" stroke-miterlimit="10" d="M50.178,150.498
			c-0.066,0.517-0.75,0.458-0.687-0.023c0.663-5.061,0.982-6.821-1.29-7.09c-1.558-0.184-2.673,1.499-2.771,2.276
			c-0.116,0.919-0.309,2.563-0.503,4.21c-0.063,0.533-0.749,0.429-0.687-0.054c0.205-1.622,1.09-9.628,1.259-11.38l-0.271-0.029
			c-0.688-0.109-0.523-0.686-0.009-0.671c0.291,0.009,0.51,0.045,0.657,0.076c0.41,0.085,0.38,0.45,0.355,0.657
			c-0.22,1.791-0.595,5.404-0.595,5.404s0.829-1.344,2.581-1.156C51.389,143.066,50.807,145.596,50.178,150.498z"/>
	</g>
	<g>
		<path fill="#0066A1" stroke="#0066A1" stroke-width="0.3" stroke-linejoin="round" stroke-miterlimit="10" d="M4.914,155.12
			c1.376-2.418,2.6-5.24,3.473-7.558c0.319-0.847,0.999-0.831,1.256-0.145c0.31,0.817,0.814,5.316,1.286,8.932
			c0.315,0.058,0.656,0.099,0.972,0.156c0.641,0.09,0.561,1.01-0.06,0.934c-0.288-0.008-0.688-0.076-0.832-0.093
			c0.41,2.831,0.769,5.823,0.864,6.259c0.14,0.827-0.893,0.815-0.986,0.224c-0.069-0.358-0.632-4.86-0.893-6.651
			c-1.129-0.203-2.667-0.453-4.576-0.939c-0.521,0.899-2.419,4.097-3.803,5.961c-0.542,0.705-1.234,0.016-0.876-0.464
			c0.431-0.565,2.079-2.919,3.717-5.75c-0.283-0.072-0.626-0.177-0.905-0.27c-0.603-0.229-0.305-1.049,0.344-0.867L4.914,155.12z
			 M5.901,155.408c1.236,0.303,2.606,0.571,3.998,0.792c-0.229-2.329-0.586-5.225-0.945-7.493
			C8.366,150.315,7.616,152.078,5.901,155.408z"/>
		<path fill="#0066A1" stroke="#0066A1" stroke-width="0.3" stroke-linejoin="round" stroke-miterlimit="10" d="M22.949,156
			c-0.743,1.269-4.171,9.464-6.312,9.208c-2.611-0.297-2.258-10.037-2.293-10.802c-0.031-0.711,0.99-0.951,0.975,0.15
			c-0.098,0.969,0.074,9.445,1.396,9.638c1.273,0.186,5.072-8.058,5.382-8.762C22.509,154.676,23.465,155.042,22.949,156z"/>
		<path fill="#0066A1" stroke="#0066A1" stroke-width="0.3" stroke-linejoin="round" stroke-miterlimit="10" d="M29.54,165.546
			c-0.483,0.412-1.738,1.542-4.003,1.243c-2.877-0.366-3.69-3.116-2.593-6.068c1.366-3.621,4.054-4.628,6.144-4.251
			c1.087,0.173,1.662,0.679,2.058,1.25c0.191-0.82,1.241-0.526,1.066,0.105c-0.176,0.865-1.59,5.453-1.746,7.213
			c-0.031,0.478,0.341,1.249,0.832,1.465c0.604,0.282,0.308,1.16-0.388,0.86C30.068,167.026,29.52,165.903,29.54,165.546z
			 M25.596,165.941c1.555,0.222,2.822-0.457,3.599-1.532c0.533-0.735,1.458-4.247,1.563-5.347c0.055-0.584-0.807-1.667-2.192-1.743
			c-1.588-0.171-3.796,1.069-4.73,3.742C23.011,163.316,23.485,165.598,25.596,165.941z"/>
		<path fill="#0066A1" stroke="#0066A1" stroke-width="0.3" stroke-linejoin="round" stroke-miterlimit="10" d="M37.407,158.514
			l1.913,0.333c0.648,0.16,0.465,0.966-0.248,0.841l-1.903-0.342c-1.055,4.05-2.078,7.401-0.588,8.501
			c0.661,0.487,1.909,0.119,2.631-0.515c0.521-0.46,1.184,0.178,0.566,0.727c-0.854,0.758-2.673,1.394-3.982,0.319
			c-1.68-1.377-0.618-4.989,0.425-9.194l-1.765-0.318c-0.704-0.151-0.502-0.988,0.105-0.892l1.908,0.344
			c0.007-0.006,0.286-1.065,0.736-2.653c0.221-0.778,1.14-0.439,0.94,0.262L37.407,158.514z"/>
		<path fill="#0066A1" stroke="#0066A1" stroke-width="0.3" stroke-linejoin="round" stroke-miterlimit="10" d="M48.642,168.986
			c-0.483,0.414-1.738,1.542-4.003,1.244c-2.876-0.366-3.69-3.116-2.593-6.067c1.367-3.622,4.054-4.629,6.145-4.252
			c1.086,0.173,1.661,0.679,2.057,1.25c0.191-0.82,1.241-0.526,1.066,0.105c-0.177,0.865-1.59,5.453-1.747,7.214
			c-0.03,0.477,0.34,1.25,0.832,1.465c0.604,0.281,0.307,1.159-0.388,0.86C49.17,170.465,48.622,169.344,48.642,168.986z
			 M44.698,169.381c1.555,0.223,2.821-0.456,3.599-1.532c0.533-0.736,1.458-4.247,1.563-5.347c0.055-0.585-0.808-1.667-2.192-1.744
			c-1.588-0.172-3.795,1.069-4.729,3.742C42.113,166.755,42.587,169.038,44.698,169.381z"/>
		<path fill="#0066A1" stroke="#0066A1" stroke-width="0.3" stroke-linejoin="round" stroke-miterlimit="10" d="M55.188,161.82
			c0.186-0.138,0.876-0.684,2.271-0.397c1.305,0.267,1.936,1.282,2.168,2.03c0.253,0.744-0.619,1.01-0.883,0.44
			c-0.309-0.581-0.455-1.394-1.722-1.58c-0.736-0.108-2.023,0.39-2.292,1.405c-0.244,0.92-1.19,5.866-1.539,7.465
			c-0.147,0.646-1.079,0.545-0.934-0.185c0.478-2.432,1.724-8.625,1.93-9.545c0.192-0.861,1.159-0.501,1.063,0.037L55.188,161.82z"
			/>
		<path fill="#0066A1" stroke="#0066A1" stroke-width="0.3" stroke-linejoin="round" stroke-miterlimit="10" d="M60.408,171.277
			c0.496,0.619,1.247,1.229,2.576,1.444c1.49,0.244,2.866-0.303,3.094-1.586c0.321-1.809-1.468-2.35-2.699-2.927
			c-1.536-0.72-2.753-1.839-2.404-3.537c0.284-1.38,1.596-2.648,3.855-2.267c1.682,0.282,2.568,0.939,3.122,1.713
			c0.388,0.541-0.413,1.05-0.797,0.539c-0.398-0.528-0.987-1.125-2.505-1.359c-1.512-0.234-2.554,0.521-2.77,1.581
			c-0.228,1.115,0.74,1.93,1.702,2.41c1.512,0.755,3.86,1.436,3.39,4.014c-0.367,2.009-2.338,2.592-4.146,2.289
			c-1.647-0.275-2.679-1.097-3.136-1.716C59.278,171.328,60.016,170.79,60.408,171.277z"/>
	</g>
	<g>
		<path fill="#0066A1" d="M132.098,63.084c-0.03,0.392,0.247,0.736,0.628,0.797c0.021,0.003,0.041,0.006,0.062,0.007
			c107.4,8.25,122.75,9.711,131.92,10.583c1.597,0.151,2.998,0.286,4.667,0.433c0.412,0.037,0.776-0.268,0.812-0.681
			c0.037-0.412-0.254-0.772-0.681-0.813c-1.665-0.148-3.062-0.28-4.657-0.432c-9.177-0.874-24.535-2.335-131.948-10.585
			C132.491,62.361,132.13,62.67,132.098,63.084z"/>
		<path fill="#0066A1" d="M143.259,46.286c-0.254-0.327-0.725-0.387-1.052-0.133c-6.726,5.214-6.802,6.054-6.83,6.371
			c-0.036,0.406-0.11,1.25,6.883,6.437c0.101,0.075,0.213,0.12,0.328,0.139c0.269,0.043,0.549-0.061,0.722-0.293
			c0.247-0.334,0.178-0.803-0.155-1.049c-2.576-1.912-5.501-4.291-6.187-5.144c0.697-0.853,3.601-3.292,6.158-5.275
			C143.454,47.084,143.513,46.613,143.259,46.286z"/>
		<path fill="#0066A1" d="M252.851,276.782c0.037-0.413-0.247-0.766-0.682-0.814c-4.267-0.378-135.457-12.15-136.782-12.271
			c-0.413-0.036-0.777,0.269-0.814,0.681c-0.035,0.396,0.242,0.745,0.628,0.807c0.017,0.004,0.035,0.005,0.052,0.008
			c1.324,0.119,132.516,11.893,136.785,12.271C252.451,277.498,252.815,277.194,252.851,276.782z"/>
		<path fill="#0066A1" d="M267.269,56c-2.203-0.45-15.04-1.35-15.584-1.388c-0.412-0.028-0.771,0.282-0.8,0.696
			c-0.027,0.39,0.25,0.732,0.629,0.793c0.021,0.003,0.044,0.006,0.066,0.007c0.133,0.008,13.221,0.925,15.393,1.361
			c0.354,0.08,0.801-0.18,0.883-0.586C267.938,56.477,267.675,56.081,267.269,56z"/>
		<path fill="#0066A1" d="M267.039,61.748c-9.31-0.335-15.246-1.741-15.304-1.754c-0.414-0.083-0.808,0.152-0.905,0.554
			c-0.098,0.403,0.151,0.809,0.554,0.906c0.109,0.026,1.33,0.315,3.48,0.659c2.695,0.43,6.854,0.945,12.122,1.134
			c0.413,0.015,0.761-0.309,0.775-0.723C267.776,62.11,267.458,61.766,267.039,61.748z"/>
		<path fill="#0066A1" d="M266.193,67.192l-14.891-1.321l-0.131,1.494l14.891,1.321c0.412,0.038,0.775-0.268,0.812-0.681
			C266.912,67.593,266.621,67.239,266.193,67.192z"/>
		<path fill="#0066A1" d="M119.387,289.357c-0.365-0.072-0.803,0.176-0.887,0.581c-0.084,0.406,0.176,0.802,0.581,0.887
			c1.174,0.245,2.721,0.546,4.413,0.816c5.479,0.873,12.476,1.435,13.234-1.224c1.13-3.952-2.992-7.865-4.79-9.346
			c0.832-0.788,1.947-2.344,1.902-4.991c-0.043-2.649-2.756-4.72-5.221-4.983c-2.719-0.294-4.764,1.318-5.47,4.313
			c-0.468,1.979,0.056,3.759,0.529,4.837c-5.233,0.804-6.986,6.293-7.169,9.274c-0.025,0.411,0.279,0.766,0.701,0.794
			c0.413,0.027,0.769-0.287,0.795-0.701c0.021-0.32,0.577-7.859,6.878-7.966c0.275-0.005,0.524-0.16,0.652-0.404
			c0.126-0.244,0.109-0.538-0.044-0.767c-0.016-0.021-1.473-2.226-0.883-4.724c0.718-3.039,2.72-3.288,3.848-3.166
			c2.058,0.224,3.855,1.865,3.883,3.517c0.052,3.156-1.898,4.257-1.976,4.299c-0.232,0.119-0.383,0.352-0.401,0.612
			c-0.019,0.26,0.1,0.511,0.312,0.663c1.707,1.218,5.935,5.088,5.009,8.326C134.903,291.343,127.475,291.041,119.387,289.357z"/>
		<path fill="#0066A1" d="M159.396,288.54c-0.001,0-0.002,0-0.002,0c-0.41-0.065-0.793,0.216-0.856,0.624
			c-0.131,0.831-2.002,2.422-3.227,3.233c-0.227,0.15-0.354,0.413-0.334,0.684c0.022,0.272,0.188,0.51,0.437,0.624
			c0.02,0.009,0.67,0.296,1.666,0.455c2.069,0.331,5.629,0.103,8.115-4.348c1.32-0.009,5-0.243,7.27-2.449
			c1.264-1.228,1.883-2.85,1.837-4.821c-0.101-4.445-4.137-8.156-9.383-8.612c-6.158-0.548-10.789,2.271-11.261,6.854
			c-0.311,3.045,1.222,5.555,4.433,7.261c0.37,0.193,0.819,0.055,1.016-0.311c0.193-0.365,0.055-0.82-0.311-1.015
			c-2.666-1.416-3.893-3.361-3.645-5.782c0.388-3.774,4.261-5.99,9.636-5.513c4.41,0.396,7.934,3.533,8.016,7.152
			c0.035,1.558-0.416,2.77-1.379,3.708c-2.271,2.211-6.593,2.025-6.636,2.022c-0.295-0.015-0.57,0.145-0.705,0.406
			c-2.048,3.985-4.967,4.257-6.67,4.002c1.078-0.862,2.424-2.152,2.606-3.317C160.083,288.988,159.804,288.605,159.396,288.54z"/>
		<path fill="#0066A1" d="M206.209,292.271c0.099,0.068,0.207,0.111,0.316,0.129c0.272,0.044,0.56-0.065,0.73-0.305
			c1.104-1.548,1.56-3.937,1.522-5.618c-0.084-3.646-2.846-7.76-7.818-8.202c-2.773-0.246-5.426,0.475-7.42,1.979
			c0.166-0.899,0.405-2.043,0.64-3.07c0.092-0.403-0.161-0.806-0.563-0.897c-0.405-0.083-0.806,0.16-0.898,0.563
			c-1.101,4.811-0.918,5.187-0.797,5.436c0.231,0.474,0.771,0.747,3.691,1.532c0.25,0.067,0.456,0.123,0.588,0.162
			c0.031,0.009,0.062,0.015,0.094,0.021c0.368,0.059,0.729-0.164,0.838-0.53c0.116-0.396-0.111-0.813-0.509-0.931
			c-0.139-0.041-0.357-0.1-0.622-0.17c-0.432-0.116-1.307-0.353-1.989-0.572c0.916-0.801,3.183-2.35,6.814-2.028
			c4.103,0.366,6.383,3.746,6.453,6.743c0.038,1.695-0.475,3.633-1.245,4.712C205.793,291.561,205.873,292.03,206.209,292.271z"/>
		<path fill="#0066A1" d="M203.632,298.968c0.027,0.007,0.056,0.014,0.082,0.018c0.373,0.06,0.738-0.168,0.84-0.541
			c1.278-4.634,1.092-5.02,0.968-5.272c-0.26-0.536-0.893-0.712-3.269-1.123c-0.503-0.088-1.023-0.177-1.22-0.235
			c-0.403-0.112-0.814,0.111-0.932,0.509c-0.115,0.398,0.112,0.814,0.509,0.931c0.28,0.081,0.769,0.166,1.386,0.273
			c0.354,0.062,0.848,0.148,1.302,0.239c-0.991,0.825-3.214,2.227-6.684,1.92c-3.871-0.324-6.508-4.046-6.582-7.291
			c-0.026-1.227,0.331-2.489,1.035-3.65c0.215-0.354,0.102-0.815-0.252-1.03c-0.353-0.215-0.815-0.103-1.029,0.251
			c-0.854,1.407-1.286,2.951-1.252,4.464c0.083,3.721,2.908,7.967,7.375,8.68c0.188,0.03,0.379,0.055,0.572,0.071
			c2.733,0.241,5.35-0.452,7.335-1.912c-0.193,0.837-0.454,1.857-0.708,2.778C202.999,298.446,203.234,298.858,203.632,298.968z"/>
		<path fill="#0066A1" d="M142.863,274.478c0.409,0.064,0.794-0.215,0.859-0.623c0.065-0.409-0.214-0.793-0.622-0.858
			c-0.051-0.009-0.102-0.017-0.152-0.025c-1.085-0.173-1.995-0.313-2.787-0.435c0.218-1.502,0.407-2.756,0.411-2.783
			c0.062-0.408-0.211-0.763-0.628-0.854c-0.41-0.062-0.792,0.22-0.854,0.629c-0.017,0.111-0.202,1.33-0.413,2.788
			c-2.945-0.428-3.18-0.375-3.305-0.346c-0.403,0.094-0.653,0.499-0.557,0.901c0.071,0.306,0.32,0.522,0.611,0.569
			c0.067,0.01,0.137,0.013,0.208,0.004c0.281,0.002,1.423,0.154,2.831,0.359c-0.194,1.381-0.374,2.726-0.432,3.384
			c-0.035,0.394,0.242,0.745,0.628,0.807c0.017,0.003,0.034,0.004,0.053,0.007c0.413,0.036,0.777-0.268,0.813-0.682
			c0.055-0.626,0.23-1.938,0.421-3.296c0.971,0.147,1.967,0.302,2.836,0.44C142.81,274.468,142.836,274.473,142.863,274.478z"/>
		<path fill="#0066A1" d="M225.18,301.849c0.451,0.471,1.093,0.775,1.746,0.879c0.61,0.099,1.23,0.021,1.715-0.256
			c0.842-0.477,4.614-4.911,6.194-6.794c0.62,0.273,1.281,0.481,1.988,0.594c0.193,0.031,0.392,0.056,0.592,0.073
			c4.812,0.427,8.615-2.767,9.043-7.593c0.43-4.84-2.748-8.847-7.548-9.265c-5.24-0.466-9.177,2.308-9.57,6.742
			c-0.192,2.179,0.499,4.574,1.89,6.491c-1.097,0.938-5.169,4.467-6.214,6.12C224.342,299.91,224.402,301.034,225.18,301.849z
			 M230.835,286.362c0.369-4.17,4.257-5.707,7.944-5.381c0.184,0.018,0.362,0.04,0.539,0.068c3.669,0.585,5.99,3.698,5.646,7.571
			c-0.357,4.024-3.407,6.586-7.417,6.23C233.213,294.484,230.515,289.966,230.835,286.362z M226.285,299.643
			c0.831-1.315,4.323-4.419,5.912-5.774c0.396,0.396,0.828,0.757,1.295,1.075c-2.459,2.921-5.104,5.913-5.592,6.227
			c-0.377,0.213-1.206,0.091-1.635-0.357C226.08,300.619,225.878,300.285,226.285,299.643z"/>
		<path fill="#0066A1" d="M141.526,120.657c0.001,0,0.001,0,0.003,0c9.715,1.551,26.189,1.913,30.128,1.757
			c0.855-0.034,1.59-0.656,2.246-1.902c3.462-6.572,5.228-34.912,3.624-37.464c-0.217-0.345-0.621-0.987-5.775-1.81
			c-8.482-1.354-33.995-3.357-35.879,0.293c-1.986,3.843-2.76,32.107-2.078,35.903C133.976,118.446,135.037,119.622,141.526,120.657
			z M137.204,82.222c1.235-2,22.338-1.413,34.312,0.498c4.012,0.641,4.699,1.11,4.733,1.116h0.001
			c1.104,2.183-0.265,30.19-3.81,36.222c-0.365,0.623-0.675,0.852-0.842,0.858c-3.9,0.155-20.214-0.204-29.833-1.739
			c-0.001,0-0.002,0-0.003,0c-6.147-0.981-6.48-1.966-6.492-2.006C134.572,113.284,135.531,85.46,137.204,82.222z"/>
		<path fill="#0066A1" d="M182.568,92.062c-0.027,0.391,0.249,0.733,0.63,0.793c0.021,0.003,0.044,0.006,0.065,0.007l41.305,2.912
			c0.414,0.029,0.771-0.283,0.802-0.695c0.029-0.413-0.307-0.774-0.695-0.801l-1.672-0.118c-0.28-0.827-0.879-3.414-1.384-5.834
			l3.332,0.254c0.414,0.033,0.773-0.277,0.805-0.69c0.031-0.412-0.283-0.78-0.69-0.804l-40.535-3.095
			c-0.414-0.033-0.773,0.277-0.805,0.69c-0.03,0.392,0.247,0.736,0.629,0.797c0.02,0.003,0.04,0.005,0.061,0.007l0.449,0.034
			c-0.157,0.14-0.26,0.339-0.256,0.565c0.018,0.965,0.12,3.785,0.713,5.419l-1.951-0.137
			C182.957,91.337,182.597,91.649,182.568,92.062z M214.386,90.223c0.094,1.229,0.193,2.487,0.528,3.368l-5.146-0.362
			c0.363-0.354,0.809-0.875,1.444-1.637c0.699-0.836,2.228-2.665,2.993-3.097C214.286,88.92,214.342,89.652,214.386,90.223z
			 M210.063,90.63c-0.332,0.397-0.736,0.88-1.062,1.239c-0.032-0.114-0.063-0.23-0.095-0.339c-0.586-2.141-1.085-3.675-2.151-3.915
			c-0.274-0.054-0.826-0.077-1.363,0.549c-2.202,2.57-3.074,2.749-3.389,2.667c-0.238-0.045-0.408-0.394-0.509-0.68
			c-0.441-1.252-1.129-2.641-1.937-3.51l13.292,1.014C212.043,88.309,211.142,89.338,210.063,90.63z M198.051,87.31
			c0.374,0.205,1.296,1.262,2.028,3.341c0.419,1.192,1.126,1.559,1.646,1.656c0.017,0.002,0.033,0.005,0.05,0.008
			c1.567,0.25,3.335-1.523,4.711-3.124c0.362,0.509,0.782,2.04,0.974,2.736c0.145,0.53,0.249,0.896,0.35,1.163l-13.621-0.961
			c1.52-1.041,3.354-3.507,3.822-4.727C198.026,87.364,198.041,87.333,198.051,87.31z M217.744,93.79
			c0.983-0.932,2.01-2.428,2.737-3.597c0.416,1.923,0.71,3.107,0.928,3.855L217.744,93.79z M216.314,93.076
			c-0.257-0.652-0.357-1.971-0.432-2.966c-0.072-0.944-0.131-1.702-0.287-2.243l4.337,0.332
			C219.047,89.789,217.174,92.511,216.314,93.076z M185.926,85.602l10.909,0.833c-0.081,0.122-0.158,0.259-0.225,0.43
			c-0.511,1.332-2.586,3.708-3.456,4.176c-0.18-0.433-0.402-1.189-0.588-1.82c-0.636-2.169-0.951-3.058-1.733-3.123
			c-0.188-0.017-0.66,0.007-0.959,0.599c-0.898,1.771-2.369,3.999-3.07,4.507c-0.392-0.825-0.662-3.193-0.696-5.144
			C186.105,85.881,186.032,85.728,185.926,85.602z M190.718,88.304c0.146,0.44,0.298,0.956,0.41,1.338
			c0.289,0.982,0.541,1.827,0.818,2.33l-3.551-0.25C189.297,90.74,190.17,89.291,190.718,88.304z"/>
		<path fill="#0066A1" d="M184.019,100.559c0.016,0.002,0.03,0.004,0.046,0.006c2.807,0.276,68.807,6.764,74.543,6.269
			c0.412-0.035,0.719-0.398,0.683-0.812c-0.037-0.413-0.399-0.721-0.812-0.683c-5.598,0.484-73.58-6.2-74.266-6.268
			c-0.413-0.04-0.779,0.261-0.82,0.673C183.354,100.142,183.63,100.496,184.019,100.559z"/>
		<path fill="#0066A1" d="M257.917,116.459c-0.002,0-0.004,0-0.007-0.001c-0.985-0.158-72.997-6.869-74.916-6.413
			c-0.403,0.096-0.695,0.507-0.6,0.91c0.074,0.308,0.301,0.53,0.584,0.575c0.088,0.014,0.181,0.011,0.277-0.011
			c2.301-0.136,71.826,5.833,74.345,6.406c0.4,0.083,0.805-0.17,0.893-0.574C258.58,116.946,258.322,116.547,257.917,116.459z"/>
		<path fill="#0066A1" d="M181.232,120.316c-0.031,0.393,0.247,0.738,0.63,0.799c0.02,0.003,0.039,0.005,0.06,0.008
			c0.694,0.054,69.526,5.498,76.087,6.081c0.412,0.037,0.776-0.268,0.812-0.681c0.037-0.412-0.255-0.769-0.682-0.813
			c-6.566-0.583-75.405-6.027-76.1-6.083C181.626,119.595,181.265,119.903,181.232,120.316z"/>
		<path fill="#0066A1" d="M125.735,202.575c-1.934,3.744-3.994,32.987-3.344,36.596c0.237,1.32,2.235,2.188,6.683,2.897
			c0,0,0,0,0.001,0.001c6.576,1.05,16.917,1.47,24.466,1.778c3.613,0.146,6.466,0.263,7.798,0.405
			c0.613,0.065,1.163-0.28,1.631-1.028c2.981-4.777,5.458-36.353,3.802-38.985c-0.224-0.357-0.642-1.021-6.125-1.897
			C153.162,201.147,127.642,198.882,125.735,202.575z M165.495,205.023c1.095,2.24-1.213,36.316-3.996,37.737
			c-1.381-0.146-4.257-0.265-7.896-0.412c-7.514-0.306-17.803-0.725-24.292-1.762c-5.085-0.811-5.433-1.651-5.444-1.681
			c-0.692-3.846,1.538-32.424,3.2-35.642c1.104-1.827,20.426-1.504,33.344,0.559C164.745,204.515,165.459,205.017,165.495,205.023
			C165.494,205.023,165.494,205.023,165.495,205.023z"/>
		<path fill="#0066A1" d="M247.878,225.929c-29.862-1.37-31.864-1.562-65.31-4.789l-9.111-0.877
			c-0.412-0.04-0.778,0.263-0.818,0.675c-0.037,0.396,0.239,0.75,0.628,0.812c0.016,0.003,0.031,0.006,0.047,0.007l9.111,0.876
			c33.479,3.23,35.484,3.424,65.383,4.795c0.415,0.021,0.766-0.301,0.784-0.715C248.612,226.3,248.286,225.957,247.878,225.929z"/>
		<path fill="#0066A1" d="M246.129,236.75c-26.002-1.753-42.964-2.948-54.187-3.738c-16.347-1.15-19.079-1.338-19.756-1.177
			c-0.394,0.094-0.624,0.479-0.544,0.876c0.064,0.312,0.325,0.538,0.629,0.587c0.08,0.013,0.165,0.013,0.25-0.002
			c0.618-0.104,5.709,0.253,19.315,1.212c11.224,0.791,28.186,1.984,54.191,3.739c0.413,0.027,0.771-0.285,0.8-0.698
			C246.854,237.135,246.553,236.775,246.129,236.75z"/>
		<path fill="#0066A1" d="M248.113,246.969c-16.147,0.135-76.203-6.087-76.808-6.149c-0.412-0.043-0.781,0.257-0.823,0.668
			c-0.041,0.398,0.236,0.756,0.627,0.818c0.014,0.002,0.027,0.005,0.041,0.005c0.606,0.064,60.744,6.294,76.975,6.156
			c0.415-0.002,0.748-0.341,0.744-0.755C248.866,247.297,248.529,246.958,248.113,246.969z"/>
		<path fill="#0066A1" d="M172.579,212.563c-0.396-0.007-0.733,0.289-0.763,0.687c-0.03,0.393,0.248,0.735,0.629,0.797
			c0.021,0.004,0.043,0.005,0.063,0.007l52.511,3.906c0.412,0.031,0.772-0.279,0.803-0.691c0.031-0.414-0.303-0.779-0.691-0.804
			l-3.528-0.263l3.421-3.476c0.291-0.296,0.287-0.771-0.008-1.061c-0.298-0.293-0.771-0.287-1.061,0.008l-3.047,3.098
			c-0.257-1.021-0.548-2.73-0.776-4.421l5.271,0.417c0.413,0.032,0.773-0.276,0.808-0.689c0.032-0.412-0.286-0.762-0.689-0.808
			l-5.662-0.446c-0.12-0.191-0.319-0.33-0.568-0.348c-0.239-0.02-0.459,0.085-0.61,0.255l-2.986-0.237
			c-0.137-0.19-0.291-0.338-0.482-0.429c-0.359-0.172-0.771-0.128-1.132,0.118c-0.066,0.045-0.135,0.109-0.2,0.168l-22.554-1.783
			c-0.005-0.002-0.01-0.008-0.016-0.011c-0.237-0.125-0.502-0.148-0.744-0.067c-0.011,0.003-0.023,0.012-0.034,0.016l-16.752-1.324
			c-0.414-0.031-0.774,0.276-0.808,0.689c-0.03,0.393,0.247,0.739,0.629,0.8c0.021,0.003,0.04,0.006,0.061,0.008l2.32,0.184
			c-0.421,1.048-1.953,3.554-3.376,5.638C172.591,212.519,172.589,212.542,172.579,212.563z M214.505,209.905l0.178,0.015
			c0.202,0.851,0.341,2.376,0.422,3.302c0.1,1.123,0.179,1.934,0.296,2.52l-3.682-0.274c0.273-0.505,0.592-1.182,1.008-2.09
			C213.239,212.262,213.954,210.712,214.505,209.905z M198.133,214.456l-3.577-0.266c0.031-0.157,0.061-0.339,0.093-0.545
			c0.353-2.26,0.952-4.577,2.719-4.609c0.519-0.007,0.727,0.164,0.839,0.296c0.675,0.79,0.28,3.024,0.068,4.226
			C198.21,213.924,198.16,214.214,198.133,214.456z M209.112,213.538c0.073,0.732,0.136,1.296,0.216,1.75l-2.882-0.213
			c0.305-0.5,0.575-1.247,0.932-2.245c0.282-0.791,0.776-2.174,1.138-2.675C208.833,210.764,209.017,212.602,209.112,213.538z
			 M205.965,212.325c-0.151,0.425-0.347,0.974-0.526,1.406c-0.524-1.294-1.066-3.498-1.32-4.646l3.165,0.249
			C206.788,210.041,206.391,211.129,205.965,212.325z M204.335,214.917l-4.002-0.297c0.57-0.703,1.399-1.857,2.656-3.785
			C203.323,212.163,203.819,213.906,204.335,214.917z M199.948,212.632c0.188-1.332,0.263-2.854-0.347-3.904l2.819,0.223
			C201.587,210.247,200.679,211.603,199.948,212.632z M193.53,211.545c-0.461-1.53-0.815-2.611-1.135-3.387l2.792,0.22
			C194.308,209.176,193.818,210.414,193.53,211.545z M192.729,214.054l-5.676-0.423c0.401-0.513,0.926-1.303,1.706-2.486
			c0.64-0.972,1.546-2.346,2.02-2.948c0.457,0.903,1.112,3.1,1.454,4.247C192.456,213.193,192.61,213.7,192.729,214.054z
			 M187.506,210.32c-0.271,0.412-0.582,0.884-0.876,1.318c0.005-1.378-0.077-2.946-0.605-3.983l3.125,0.246
			C188.735,208.472,188.209,209.252,187.506,210.32z M184.329,208.007c0.006,0.002,0.013,0.002,0.02,0.003
			c0.339,0.055,0.868,0.771,0.758,4.804c-0.006,0.272-0.011,0.497-0.011,0.672l-4.498-0.334c0.273-0.381,0.588-0.905,1.012-1.627
			C182.181,210.547,183.705,207.954,184.329,208.007z M174.292,212.683c1.126-1.677,1.887-2.921,2.391-3.847
			c0.457,1.449,1.076,3.129,1.628,4.146L174.292,212.683z M217.726,215.914c0.327-0.631,0.732-1.621,1.241-3.184
			c0.219,1.299,0.49,2.578,0.796,3.335L217.726,215.914z M216.733,214.486c-0.051-0.458-0.095-0.961-0.135-1.396
			c-0.114-1.293-0.221-2.282-0.364-3.047l1.938,0.153C217.696,211.797,217.162,213.416,216.733,214.486z M211.364,212.75
			c-0.208,0.452-0.45,0.981-0.676,1.443c-0.03-0.264-0.058-0.54-0.084-0.806c-0.149-1.482-0.296-2.925-0.729-3.848l2.95,0.231
			C212.387,210.546,211.917,211.55,211.364,212.75z M182.642,207.387c-0.819,0.823-1.581,2.108-2.327,3.379
			c-0.25,0.428-0.559,0.952-0.808,1.329c-0.56-1.186-1.45-3.799-1.822-5.1L182.642,207.387z"/>
		<path fill="#0066A1" d="M135.22,180.805c1.772,0.282,3.858,0.562,6.251,0.833c0.411,0.048,0.783-0.248,0.83-0.659
			s-0.281-0.803-0.659-0.83c-8.369-0.956-12.114-1.952-12.542-2.329c-1.406-2.722,0.642-34.325,4.572-36.793
			c3.711-2.329,27.291,0.122,34.942,3.062c1.987,0.765,2.146,1.254,2.146,1.255c0.617,3.9-0.916,31.701-2.637,34.875
			c-0.795,0.866-8.334,1.264-23.011,0.088c-0.414-0.033-0.775,0.274-0.809,0.688s0.282,0.767,0.688,0.809
			c15.245,1.22,23.465,0.938,24.432-0.841c2.064-3.8,3.422-32.043,2.818-35.853c-0.122-0.77-0.842-1.43-2.266-2.077
			c-7.334-3.334-32.652-6.069-37.103-3.276c-4.811,3.021-6.8,35.94-5.064,38.83C128.268,179.349,130.754,180.092,135.22,180.805z"/>
		<path fill="#0066A1" d="M178.604,161.587c0.023,0.003,0.048,0.006,0.072,0.009c0.599,0.037,60.087,3.814,74.21,5.647
			c0.409,0.052,0.786-0.238,0.839-0.649c0.053-0.41-0.209-0.799-0.647-0.84c-14.169-1.838-73.707-5.617-74.307-5.656
			c-0.413-0.025-0.77,0.289-0.796,0.702C177.951,161.188,178.228,161.526,178.604,161.587z"/>
		<path fill="#0066A1" d="M253.034,176.925c-35.069-1.809-58.764-4.262-68.883-5.309c-5.316-0.551-6.196-0.632-6.571-0.543
			c-0.404,0.094-0.681,0.504-0.586,0.906c0.072,0.308,0.309,0.528,0.595,0.574c0.089,0.015,0.185,0.012,0.279-0.012
			c0.37-0.03,2.786,0.22,6.129,0.565c10.129,1.049,33.852,3.505,68.961,5.316c0.413,0.021,0.766-0.298,0.787-0.711
			C253.765,177.299,253.454,176.95,253.034,176.925z"/>
		<path fill="#0066A1" d="M252.658,186.138c-11.172,0.818-75.312-6.011-75.959-6.079c-0.411-0.044-0.781,0.253-0.825,0.665
			c-0.043,0.399,0.234,0.758,0.626,0.82c0.014,0.003,0.026,0.005,0.04,0.006c2.646,0.283,64.922,6.911,76.228,6.085
			c0.413-0.031,0.724-0.39,0.693-0.803C253.43,186.418,253.066,186.115,252.658,186.138z"/>
		<path fill="#0066A1" d="M182.845,153.805c0.132,0.021,0.271,0.011,0.409-0.032c0.04-0.013,0.087-0.036,0.136-0.061l31.922,2.439
			c0.111,0.083,0.233,0.141,0.35,0.16c0.001,0,0.001,0,0.001,0c0.209,0.033,0.377,0.004,0.535-0.093l22.777,1.741
			c0.412,0.032,0.771-0.277,0.804-0.691c0.031-0.412-0.277-0.778-0.69-0.804l-1.083-0.083c0.598-0.626,1.14-1.667,1.542-2.591
			c0.166-0.38-0.009-0.822-0.389-0.988c-0.382-0.162-0.821,0.007-0.986,0.388c-0.274,0.63-0.704,1.424-1.035,1.901
			c-0.09-0.249-0.19-0.541-0.278-0.801c-0.546-1.599-1.071-3.012-1.754-3.866l4.254,0.342c0.412,0.033,0.773-0.275,0.807-0.688
			c0.034-0.413-0.282-0.765-0.688-0.808l-60.307-4.849c-0.413-0.034-0.775,0.274-0.808,0.688c-0.032,0.393,0.245,0.74,0.628,0.801
			c0.02,0.003,0.04,0.005,0.06,0.007l1.862,0.15c-0.833,1.366-2.027,4.139-2.582,5.464c-0.038,0.093-0.058,0.19-0.058,0.286
			l-0.263-0.02c-0.413-0.033-0.772,0.277-0.805,0.69c-0.029,0.392,0.247,0.736,0.628,0.797c0.021,0.003,0.042,0.005,0.062,0.007
			l4.597,0.352C182.6,153.722,182.716,153.784,182.845,153.805z M222.382,154.353c-0.061-0.307-0.124-0.663-0.181-0.982
			c-0.316-1.78-0.604-3.187-1.06-4.07l4.701,0.379C225.403,150.72,223.441,153.34,222.382,154.353z M226.668,151.224
			c0.251,0.644,0.537,1.387,0.779,2.022c0.349,0.91,0.683,1.779,0.928,2.399l-4.847-0.371
			C224.556,154.263,225.862,152.592,226.668,151.224z M221.009,155.082l-3.85-0.294c0.149-0.298,0.311-0.632,0.506-1.042
			c0.518-1.081,1.541-3.217,2.117-3.841c0.397,0.662,0.772,2.773,0.943,3.729C220.837,154.264,220.923,154.726,221.009,155.082z
			 M216.312,153.099c-0.095,0.198-0.196,0.41-0.297,0.617c-0.481-1.598-1.289-3.924-2.095-4.997l4.61,0.372
			C217.912,149.855,217.237,151.167,216.312,153.099z M214.745,154.604l-5.36-0.41c0.653-0.465,1.664-1.606,3.628-4.168
			C213.547,151.054,214.349,153.25,214.745,154.604z M211.915,148.99c-1.568,2.05-2.459,3.091-2.96,3.597
			c-0.548-1.387-1.819-3.758-2.887-4.499l6.16,0.496C212.147,148.689,212.047,148.818,211.915,148.99z M207.908,154.082
			l-10.311-0.789c0.258-0.523,0.583-1.274,1.049-2.355c0.248-0.575,0.56-1.298,0.839-1.909c0.041,0.214,0.079,0.429,0.114,0.625
			c0.216,1.198,0.439,2.438,0.801,3.102c0.268,0.489,0.787,0.722,1.379,0.625c1.236-0.206,3.198-2.069,3.944-3.583
			c0.768,1.021,1.938,3.248,2.018,3.857C207.762,153.816,207.826,153.958,207.908,154.082z M204.522,148.75
			c-0.161,0.931-2.105,2.895-2.879,3.129c-0.215-0.535-0.409-1.61-0.567-2.492c-0.138-0.764-0.242-1.315-0.355-1.728l4.276,0.343
			C204.779,148.136,204.589,148.364,204.522,148.75z M197.269,150.343c-0.222,0.515-0.482,1.12-0.717,1.637
			c-0.333-0.739-0.742-1.614-1.064-2.29c-0.585-1.223-0.979-2.024-1.274-2.555l4.351,0.35
			C198.278,148.032,197.889,148.904,197.269,150.343z M195.423,153.126l-3.881-0.296c0.725-1.107,1.385-2.793,1.817-4.079
			C194.028,150.085,194.954,152.061,195.423,153.126z M190.131,152.294c-0.452-0.947-0.935-3.453-1.108-4.355
			c-0.107-0.559-0.187-0.96-0.283-1.243l3.618,0.291C192.115,147.973,190.89,151.305,190.131,152.294z M188.643,152.609
			l-3.699-0.283c0.918-0.981,1.982-2.29,2.748-3.384C188.016,150.565,188.308,151.777,188.643,152.609z M235.982,156.226
			l-5.213-0.398c0.203-0.364,0.425-0.813,0.696-1.37c0.541-1.107,1.546-3.169,2.152-3.387c0.593,0.102,1.517,2.812,1.82,3.703
			C235.675,155.466,235.831,155.917,235.982,156.226z M230.117,153.801c-0.146,0.3-0.316,0.651-0.477,0.961
			c-0.229-0.584-0.513-1.325-0.791-2.052c-0.509-1.329-0.86-2.248-1.125-2.881l4.576,0.368
			C231.566,150.913,230.903,152.19,230.117,153.801z M187.326,146.582c-0.035,0.078-0.067,0.159-0.076,0.262
			c-0.195,0.654-2.477,3.537-3.77,4.871c-0.039-0.488-0.075-1.065-0.104-1.553c-0.13-2.058-0.23-3.231-0.389-3.928L187.326,146.582z
			 M181.693,147.745c0.078,0.808,0.141,1.792,0.186,2.511c0.051,0.813,0.091,1.398,0.131,1.846l-2.219-0.169
			C180.416,150.449,181.145,148.833,181.693,147.745z"/>
		<path fill="#0066A1" d="M105.405,47.828c-1.217,0.732-3.897,1.982-6.268,2.965c-0.383,0.158-0.564,0.598-0.405,0.98
			c0.103,0.25,0.326,0.414,0.575,0.454c0.132,0.021,0.271,0.007,0.404-0.048c7.553-3.133,7.668-3.98,7.724-4.386
			c0.042-0.314,0.156-1.15-5.24-7.731c-0.262-0.319-0.735-0.368-1.055-0.105c-0.321,0.264-0.368,0.736-0.105,1.056
			c1.318,1.608,2.727,3.426,3.701,4.786c-5.228-2.591-18.584-8.12-33.85-6.008c-0.41,0.057-0.697,0.435-0.64,0.846
			c0.057,0.411,0.438,0.693,0.846,0.641C87.584,38.992,101.788,45.876,105.405,47.828z"/>
		<path fill="#0066A1" d="M83.434,270.225c-0.251-0.332-0.72-0.396-1.051-0.146c-0.331,0.25-0.396,0.721-0.146,1.052
			c1.385,1.831,2.879,3.96,3.649,5.234c-4.44-0.93-18.665-4.671-27.8-15.587c-0.267-0.315-0.738-0.36-1.057-0.094
			c-0.317,0.267-0.359,0.739-0.094,1.057c9.363,11.188,23.863,15.066,28.568,16.07c-1.236,0.79-3.415,1.966-5.371,2.925
			c-0.373,0.183-0.526,0.631-0.344,1.003c0.112,0.229,0.323,0.374,0.556,0.411c0.148,0.024,0.303,0.004,0.447-0.066
			c6.934-3.397,7.05-4.254,7.101-4.62C87.936,277.154,88.048,276.331,83.434,270.225z"/>
		<path fill="#0066A1" d="M84.423,157.446c-0.365,0.197-0.501,0.652-0.305,1.016c0.116,0.215,0.319,0.35,0.543,0.386
			c0.156,0.024,0.322,0.001,0.473-0.08c6.729-3.62,6.844-4.464,6.893-4.823c0.043-0.315,0.157-1.15-4.875-7.297
			c-0.261-0.319-0.733-0.367-1.056-0.105c-0.32,0.262-0.367,0.734-0.105,1.055c1.44,1.759,3.006,3.806,3.876,5.102
			c-2.924-0.734-9.783-2.343-20.256-4.128c-0.384-0.075-0.796,0.207-0.865,0.614c-0.069,0.408,0.205,0.796,0.613,0.865
			c10.83,1.846,17.762,3.499,20.447,4.18C88.64,155.06,86.42,156.372,84.423,157.446z"/>
		<path fill="#0066A1" d="M270.972,279.23c0.941-10.977,0.293-11.303-0.277-11.592c-1.402-0.715-3.299-0.067-3.632,0.055
			c0.65-9.386,1.039-14.809,1.408-17.979c0.507-4.366,4.356-47.424,7.157-80.7c2.582,0.279,4.077-0.022,4.417-0.911
			c0.137-0.354,4.828-49.614,4.13-50.741c-0.165-0.263-0.506-0.798-4.421-1.191c0.642-6.344,1.488-14.248,2.388-22.461l0.139,0.015
			c1.833,0.206,3.66,0.307,4.116-0.88c0.068-0.174,2.931-25.604,2.251-27.068c-0.086-0.185-0.262-0.348-0.454-0.414
			c-0.319-0.11-1.564-0.217-2.862-0.303c0.334-2.97,0.646-5.735,0.926-8.208c0.896-7.951,1.544-13.696,1.626-14.62
			c0.262-2.933,1.722-28.795-26.971-33.8c-2.289-0.399-4.62-0.788-6.988-1.166c-34.004-5.429-72.205-8.12-99.695-7.023
			c-10.335,0.41-30.348,6.479-32.125,26.507c-0.235,2.552-23.495,255.354-24.485,266.515c-0.778,8.775-2.601,29.327,27.229,37.623
			c5.066,1.409,11.394,2.724,18.809,3.908c0.002,0,0,0,0.002,0c27.938,4.46,64.84,6.059,74.817,5.407l2.173-0.14
			c23.116-1.479,41.373-2.646,43.823-35.854c0.362-4.899,0.689-9.412,0.985-13.564c0.383,0.076,0.744,0.146,1.06,0.196
			c2.942,0.469,3.138-0.186,3.261-0.601C269.907,289.794,270.547,284.187,270.972,279.23z M282.805,118.195
			c-0.102,4.294-3.635,46.297-4.14,49.269c-0.405,0.158-1.683,0.182-2.911,0.054c1.654-19.703,2.909-35.654,2.828-37.499
			c-0.047-1.072,0.358-5.731,1.021-12.356C280.877,117.797,282.239,118.009,282.805,118.195z M287.27,66.717
			c0.011,3.496-1.941,23.91-2.258,25.525c-0.222,0.11-0.857,0.183-2.564-0.009l-0.143-0.015c0.966-8.797,1.979-17.857,2.857-25.667
			C286.031,66.608,286.803,66.667,287.27,66.717z M220.553,338.564l-2.175,0.141c-9.921,0.648-46.647-0.948-74.485-5.392
			c-7.359-1.175-13.632-2.479-18.643-3.872c-28.628-7.961-26.946-26.93-26.137-36.046c0.99-11.158,24.25-263.957,24.484-266.512
			c1.685-18.992,20.813-24.751,30.69-25.143c27.4-1.093,65.488,1.592,99.4,7.006c2.36,0.377,4.685,0.765,6.967,1.163
			c27.372,4.774,25.983,29.397,25.735,32.19c-0.081,0.906-0.729,6.643-1.624,14.584c-0.289,2.554-0.604,5.341-0.935,8.284
			c-0.253-0.014-0.494-0.026-0.713-0.037c-0.412-0.021-0.766,0.298-0.787,0.712c-0.021,0.414,0.305,0.767,0.712,0.787
			c0.205,0.01,0.412,0.021,0.62,0.033c-2.814,25.014-6.728,60.257-6.579,63.623c0.218,4.953-9.287,112.425-10.103,119.455
			c-0.413,3.542-0.845,9.801-1.631,21.161c-0.559,8.078-1.323,19.141-2.374,33.396C260.623,336.003,243.816,337.078,220.553,338.564
			z M265.566,289.134c0.517-7.269,0.938-13.366,1.282-18.329c0.04-0.589,0.079-1.155,0.119-1.718c0.177,0.084,0.385,0.1,0.583,0.024
			c0.376-0.142,1.536-0.457,2.29-0.209c0.572,2.171-1.014,17.836-1.446,20.599C267.866,289.517,266.71,289.371,265.566,289.134z"/>
		<path fill="#0066A1" d="M195.122,311.656c-0.157-0.025-0.307-0.042-0.447-0.053c-1.577-0.101-25.104-1.752-30.314-2.415
			c-1.536-0.194-4.192,0.066-4.725,4.004c-0.023,0.176-0.062,0.388-0.106,0.64c-0.135,0.755-0.338,1.896-0.437,3.499
			c-0.184,3.02,2.385,4.517,4.85,4.911l0.201,0.028c0.654,0.066,3.672,0.353,7.521,0.718c7.836,0.745,19.678,1.87,20.93,2.031
			c2.062,0.264,5.396-0.333,6.129-3.062c0.287-1.072,0.479-4.188,0.548-5.479C199.421,313.628,197.294,312.001,195.122,311.656z
			 M197.273,321.57c-0.537,2.001-3.495,2.088-4.489,1.96c-1.275-0.162-12.663-1.244-20.979-2.034
			c-3.842-0.365-6.855-0.652-7.504-0.718l-0.123-0.018c-0.88-0.141-3.744-0.798-3.59-3.339c0.095-1.517,0.281-2.562,0.417-3.326
			c0.05-0.277,0.09-0.509,0.117-0.703c0.281-2.08,1.25-2.943,3.049-2.716c5.243,0.667,28.826,2.322,30.407,2.425
			c0.096,0.006,0.198,0.019,0.307,0.036c0.506,0.08,3.027,0.617,2.887,3.262C197.637,318.91,197.441,320.94,197.273,321.57z"/>
		<path fill="#0066A1" d="M115.728,206.773c0.019,0.002,0.036,0.005,0.054,0.006c0.413,0.037,0.776-0.27,0.812-0.682
			c1.306-14.969,2.656-29.011,3.38-36.554c0.262-2.716,0.443-4.609,0.517-5.433c0.078-0.881,0.301-3.497,0.634-7.401
			c6.287-73.78,9.94-113.003,10.861-116.647c2.71-0.676,23.835,1.522,37.922,2.986c6.353,0.661,11.836,1.231,15.551,1.553
			c9.724,0.842,21.952,1.802,33.778,2.73c24.271,1.906,51.681,4.059,55.087,5.061c0.026,1.566-0.366,9.03-2.743,38.424
			c-0.032,0.414,0.262,0.763,0.688,0.808c0.413,0.033,0.775-0.275,0.809-0.688c3.129-38.694,2.837-39.095,2.555-39.482
			c-0.767-1.048-10.761-2.046-56.276-5.617c-11.823-0.928-24.051-1.887-33.767-2.729c-3.702-0.321-9.181-0.89-15.524-1.55
			c-30.577-3.181-38.28-3.675-39.251-2.521c-0.454,0.539-1.297,1.542-11.183,117.545c-0.333,3.901-0.555,6.517-0.633,7.396
			c-0.073,0.821-0.255,2.712-0.516,5.422c-0.725,7.546-2.075,21.593-3.381,36.567C115.066,206.361,115.343,206.711,115.728,206.773z
			"/>
		<path fill="#0066A1" d="M257.284,272.846c0.812-7.841,9.106-100.526,15.186-174.726c0.034-0.413-0.279-0.763-0.687-0.809
			c-0.414-0.033-0.775,0.274-0.81,0.688c-6.078,74.191-14.369,166.855-15.183,174.692c-0.229,2.207-0.55,5.593-0.91,9.397
			c-0.848,8.94-2.105,22.21-2.621,24.548c-7.892,0.041-133.365-10.889-143.374-12.486c-0.016-0.002-0.031-0.005-0.046-0.007
			c0.008-1.663,0.636-7.542,1.196-12.789c0.677-6.337,1.444-13.52,1.652-17.659c0.238-4.743,3.275-39.302,4.625-54.339
			c0.037-0.412-0.274-0.773-0.68-0.813c-0.413-0.037-0.776,0.268-0.814,0.68c-1.35,15.046-4.389,49.633-4.629,54.396
			c-0.205,4.099-0.97,11.259-1.646,17.576c-1.403,13.14-1.364,13.641-0.918,14.098c0.036,0.035,0.088,0.089,0.87,0.213
			c2.813,0.449,15.068,1.829,69.983,6.727c16.521,1.474,70.702,6.252,74.249,5.882c0.139-0.014,0.508-0.053,0.721-0.386
			c0.469-0.736,1.098-6.217,2.927-25.498C256.734,278.43,257.054,275.05,257.284,272.846z"/>
		<path fill="#0066A1" d="M185.918,21.305c0.486,0.077,0.945,0.103,1.31,0.124c0.185,0.011,0.359,0.02,0.516,0.035
			c0.322,0.028,34.689,2.952,35.273,2.973c0.19,0.008,0.388,0.021,0.591,0.033c1.732,0.111,4.633,0.296,5.001-3.61
			c0.304-3.229-3.602-3.632-5.705-3.848c-0.262-0.027-0.505-0.052-0.715-0.08c-1.197-0.155-30.135-2.554-31.367-2.657
			c-0.412-0.034-0.774,0.273-0.809,0.686c-0.034,0.414,0.279,0.767,0.686,0.81c10.417,0.863,30.366,2.529,31.296,2.65
			c0.224,0.029,0.479,0.055,0.757,0.083c2.865,0.295,4.501,0.752,4.364,2.216c-0.221,2.343-1.381,2.384-3.412,2.254
			c-0.216-0.014-0.428-0.027-0.626-0.035c-0.65-0.034-32.979-2.771-35.199-2.968c-0.173-0.016-0.363-0.026-0.565-0.038
			c-1.899-0.106-3.244-0.341-3.223-2.367c0.006-0.667,0.198-1.136,0.588-1.432c0.894-0.682,2.674-0.413,3.284-0.251
			c0.397,0.115,0.812-0.133,0.917-0.532c0.107-0.4-0.13-0.81-0.529-0.917c-0.296-0.078-2.94-0.738-4.578,0.504
			c-0.531,0.404-1.168,1.185-1.183,2.612C182.561,20.295,184.378,21.059,185.918,21.305z"/>
		<path fill="#0066A1" d="M234.838,26.131c0.006,0.001,0.102,0.017,0.107,0.018h0.001c2.479,0.396,4.372-1.382,4.961-3.344
			c0.333-1.106,0.224-2.18-0.307-3.024c-0.445-0.71-1.481-1.651-3.629-1.719l-0.128-0.005c-1.093-0.039-3.367-0.121-4.297,2.977
			c-0.396,1.316-0.323,2.43,0.212,3.306C232.321,25.257,233.357,25.859,234.838,26.131z M232.984,21.465
			c0.597-1.988,1.721-1.948,2.808-1.909l0.134,0.004c0.242,0.009,0.469,0.029,0.68,0.062c0.83,0.133,1.411,0.454,1.725,0.955
			c0.298,0.473,0.348,1.11,0.143,1.796c-0.279,0.93-1.326,2.608-3.29,2.294l-0.118,0.741l0.046-0.754
			c-1.046-0.191-1.741-0.56-2.07-1.097C232.736,23.06,232.717,22.356,232.984,21.465z"/>
		<path fill="#0066A1" d="M173.57,19.789c0.604,0.377,1.217,0.618,1.821,0.714c1.389,0.222,2.616-0.34,3.455-1.583
			c0.682-1.008,0.946-2.086,0.743-3.038c-0.16-0.753-0.612-1.394-1.273-1.806c-0.579-0.361-1.172-0.591-1.763-0.685
			c-1.442-0.23-2.73,0.398-3.673,1.849C172.304,16.408,171.803,18.682,173.57,19.789z M174.18,15.98
			c0.579-0.883,1.277-1.245,2.137-1.108c0.387,0.062,0.803,0.226,1.206,0.477c0.321,0.2,0.523,0.484,0.6,0.846
			c0.116,0.548-0.067,1.218-0.519,1.885c-0.517,0.763-1.163,1.072-1.977,0.941c-0.399-0.064-0.836-0.238-1.261-0.504
			C173.314,17.859,174.188,15.981,174.18,15.98L174.18,15.98z"/>
		<path fill="#0066A1" d="M164.763,18.998c0.379,0.275,0.876,0.468,1.438,0.558c1.173,0.188,2.851-0.074,3.725-1.425
			c0.796-1.233,0.784-2.288,0.635-2.956c-0.186-0.825-0.688-1.528-1.414-1.981c-0.394-0.245-0.883-0.42-1.414-0.504
			c-1.492-0.239-3.419,0.212-4.123,1.764C162.781,16.283,163.563,18.125,164.763,18.998z M164.976,15.072
			c0.345-0.761,1.553-1.057,2.52-0.902c0.335,0.053,0.633,0.156,0.858,0.296c0.383,0.239,0.646,0.606,0.743,1.036
			c0.125,0.557-0.023,1.184-0.431,1.813c-0.636,0.983-2.388,0.931-3.021,0.468C164.958,17.284,164.456,16.222,164.976,15.072z"/>
		<path fill="#0066A1" d="M272.15,92.501c-0.414-0.022-0.769,0.294-0.79,0.708l-0.138,2.481c-0.021,0.387,0.255,0.722,0.63,0.782
			c0.025,0.004,0.052,0.008,0.077,0.009c0.414,0.023,0.769-0.294,0.79-0.708l0.138-2.481
			C272.879,92.879,272.572,92.523,272.15,92.501z"/>
	</g>
</g>
</svg>
