<?xml version="1.0" encoding="utf-8"?>
<!-- Generator: Adobe Illustrator 15.0.2, SVG Export Plug-In . SVG Version: 6.00 Build 0)  -->
<!DOCTYPE svg PUBLIC "-//W3C//DTD SVG 1.1//EN" "http://www.w3.org/Graphics/SVG/1.1/DTD/svg11.dtd">
<svg version="1.1" id="Layer_1" xmlns="http://www.w3.org/2000/svg" xmlns:xlink="http://www.w3.org/1999/xlink" x="0px" y="0px"
	 width="24.797px" height="30px" viewBox="0 0 24.797 30" enable-background="new 0 0 24.797 30" xml:space="preserve">
<g>
	<g>
		<path fill-rule="evenodd" clip-rule="evenodd" fill="#46332D" d="M9.803,0H8.104L6.959,4.404L5.767,0H4
			c0.354,1.039,0.723,2.084,1.077,3.125c0.538,1.564,0.874,2.742,1.026,3.549v4.541h1.68V6.674L9.803,0z M14.292,8.51V5.582
			c0-0.893-0.154-1.547-0.471-1.969c-0.42-0.57-1.008-0.857-1.767-0.857c-0.754,0-1.344,0.287-1.763,0.857
			C9.969,4.035,9.816,4.689,9.816,5.582V8.51c0,0.889,0.152,1.547,0.475,1.965c0.419,0.57,1.009,0.857,1.763,0.857
			c0.759,0,1.347-0.287,1.767-0.857C14.137,10.057,14.292,9.398,14.292,8.51z M12.776,8.795c0,0.773-0.234,1.16-0.723,1.16
			s-0.723-0.387-0.723-1.16V5.279c0-0.773,0.234-1.158,0.723-1.158s0.723,0.385,0.723,1.158V8.795z M19.891,11.215V2.857h-1.514
			v6.389c-0.336,0.475-0.654,0.709-0.957,0.709c-0.203,0-0.322-0.121-0.355-0.355c-0.018-0.049-0.018-0.232-0.018-0.59V2.857h-1.51
			v6.609c0,0.59,0.051,0.99,0.133,1.242c0.152,0.424,0.488,0.623,0.977,0.623c0.553,0,1.127-0.336,1.73-1.029v0.912H19.891z"/>
	</g>
	
		<linearGradient id="SVGID_1_" gradientUnits="userSpaceOnUse" x1="-24.7334" y1="-31.3237" x2="-24.7334" y2="-48.6079" gradientTransform="matrix(-1 0 0 1 -12.335 61.3242)">
		<stop  offset="0" style="stop-color:#46332D"/>
		<stop  offset="0.5668" style="stop-color:#5D4C46"/>
		<stop  offset="1" style="stop-color:#6D5E59"/>
	</linearGradient>
	<path fill-rule="evenodd" clip-rule="evenodd" fill="url(#SVGID_1_)" d="M24.797,21.359c0,1.934-0.002,3.982-0.434,5.861
		c-0.303,1.318-1.383,2.291-2.68,2.436C18.608,30,15.495,30.002,12.397,30c-3.099,0.002-6.211,0-9.286-0.344
		c-1.298-0.145-2.376-1.117-2.679-2.436C0,25.342,0,23.293,0,21.359l0,0c0-1.936,0.005-3.984,0.437-5.863
		c0.303-1.318,1.381-2.291,2.68-2.436c3.075-0.344,6.187-0.346,9.286-0.344c3.098-0.002,6.211,0,9.286,0.344
		c1.299,0.145,2.377,1.117,2.68,2.436C24.799,17.375,24.797,19.424,24.797,21.359L24.797,21.359z"/>
	<linearGradient id="SVGID_2_" gradientUnits="userSpaceOnUse" x1="12.3994" y1="26.8379" x2="12.3994" y2="15.6235">
		<stop  offset="0" style="stop-color:#D5D6D3"/>
		<stop  offset="0.1108" style="stop-color:#DEDEDC"/>
		<stop  offset="0.3676" style="stop-color:#EFEEED"/>
		<stop  offset="0.6493" style="stop-color:#FAF9F9"/>
		<stop  offset="1" style="stop-color:#FFFFFF"/>
	</linearGradient>
	<path fill-rule="evenodd" clip-rule="evenodd" fill="url(#SVGID_2_)" d="M7.073,17.186v-1.562H1.848v1.562h1.763v9.539h1.667
		v-9.539H7.073z M10.102,26.725v-0.902c-0.596,0.682-1.162,1.016-1.712,1.016c-0.483,0-0.816-0.197-0.966-0.615
		c-0.082-0.252-0.132-0.645-0.132-1.23v-6.539h1.498v6.09c0,0.35,0,0.533,0.014,0.582c0.036,0.232,0.15,0.35,0.351,0.35
		c0.301,0,0.615-0.23,0.948-0.701v-6.32h1.5v8.271H10.102z M15.795,24.359c0,0.748-0.219,1.115-0.652,1.115
		c-0.246,0-0.496-0.117-0.746-0.367v-5.043c0.25-0.246,0.5-0.363,0.746-0.363c0.434,0,0.652,0.383,0.652,1.129V24.359z
		 M17.293,24.242v-3.295c0-0.781-0.051-1.328-0.15-1.662c-0.201-0.619-0.602-0.934-1.199-0.934c-0.551,0-1.062,0.303-1.547,0.898
		v-3.627h-1.499v11.102h1.499v-0.803c0.5,0.619,1.016,0.916,1.547,0.916c0.598,0,0.998-0.314,1.199-0.93
		C17.243,25.557,17.293,25.006,17.293,24.242z M21.452,21.613h-1.498V20.85c0-0.766,0.25-1.148,0.75-1.148
		c0.496,0,0.748,0.383,0.748,1.148V21.613z M22.95,24.078v-0.219H21.42c0,0.6-0.02,0.934-0.033,1.014
		c-0.084,0.402-0.301,0.602-0.67,0.602c-0.514,0-0.764-0.381-0.764-1.146v-1.467h2.996v-1.713c0-0.885-0.15-1.529-0.463-1.949
		c-0.42-0.566-1.018-0.848-1.77-0.848c-0.764,0-1.361,0.281-1.793,0.848c-0.32,0.42-0.465,1.064-0.465,1.949v2.896
		c0,0.879,0.164,1.533,0.482,1.945c0.434,0.564,1.029,0.848,1.814,0.848c0.781,0,1.396-0.297,1.812-0.896
		c0.18-0.266,0.299-0.566,0.35-0.898C22.932,24.893,22.95,24.561,22.95,24.078z"/>
</g>
</svg>
